%TF.GenerationSoftware,KiCad,Pcbnew,9.0.0-rc3*%
%TF.CreationDate,2025-08-01T11:58:29+07:00*%
%TF.ProjectId,logic,6c6f6769-632e-46b6-9963-61645f706362,rev?*%
%TF.SameCoordinates,Original*%
%TF.FileFunction,Plated,1,2,PTH,Drill*%
%TF.FilePolarity,Positive*%
%FSLAX46Y46*%
G04 Gerber Fmt 4.6, Leading zero omitted, Abs format (unit mm)*
G04 Created by KiCad (PCBNEW 9.0.0-rc3) date 2025-08-01 11:58:29*
%MOMM*%
%LPD*%
G01*
G04 APERTURE LIST*
%TA.AperFunction,ComponentDrill*%
%ADD10C,0.750000*%
%TD*%
%TA.AperFunction,ComponentDrill*%
%ADD11C,0.800000*%
%TD*%
%TA.AperFunction,ComponentDrill*%
%ADD12C,1.000000*%
%TD*%
%TA.AperFunction,ComponentDrill*%
%ADD13C,1.520000*%
%TD*%
G04 APERTURE END LIST*
D10*
%TO.C,J_DRV_SIG_1*%
X122750000Y-37000000D03*
X122750000Y-39000000D03*
X122750000Y-41000000D03*
X122750000Y-43000000D03*
%TO.C,J_LEFT_ENC1*%
X123750000Y-106900000D03*
X123750000Y-108900000D03*
X123750000Y-110900000D03*
X123750000Y-112900000D03*
%TO.C,J_DRV_SIG1*%
X128500000Y-169500000D03*
X130500000Y-169500000D03*
%TO.C,J_LEFT_ENC2*%
X131650000Y-106800000D03*
X131650000Y-108800000D03*
X131650000Y-110800000D03*
X131650000Y-112800000D03*
%TO.C,J_DRV_SIG1*%
X132500000Y-169500000D03*
X134500000Y-169500000D03*
X136500000Y-169500000D03*
X138500000Y-169500000D03*
%TO.C,J_RIGHT_ENC1*%
X139850000Y-106900000D03*
X139850000Y-108900000D03*
X139850000Y-110900000D03*
X139850000Y-112900000D03*
%TO.C,J_DRV_SIG1*%
X140500000Y-169500000D03*
%TO.C,J_RIGHT_ENC2*%
X147750000Y-106900000D03*
X147750000Y-108900000D03*
X147750000Y-110900000D03*
X147750000Y-112900000D03*
%TO.C,J_DRV_SIG2*%
X154250000Y-131000000D03*
X154250000Y-133000000D03*
X154250000Y-135000000D03*
X154250000Y-137000000D03*
X154250000Y-139000000D03*
X154250000Y-141000000D03*
X154250000Y-143000000D03*
D11*
%TO.C,R_PULLUP3*%
X131030000Y-147400000D03*
%TO.C,R_PULLUP5*%
X131040000Y-152200000D03*
%TO.C,R_PULLUP4*%
X131040000Y-157100000D03*
%TO.C,R_PULLUP2*%
X133830000Y-84300000D03*
X133830000Y-91920000D03*
%TO.C,C_BYPASS1*%
X136250000Y-175250000D03*
%TO.C,R_PULLUP3*%
X138650000Y-147400000D03*
%TO.C,R_PULLUP5*%
X138660000Y-152200000D03*
%TO.C,R_PULLUP4*%
X138660000Y-157100000D03*
%TO.C,C_BYPASS1*%
X138750000Y-175250000D03*
%TO.C,R_PULLUP1*%
X139330000Y-84300000D03*
X139330000Y-91920000D03*
%TO.C,R_JUMPER1*%
X154900000Y-90500000D03*
X154900000Y-98120000D03*
D12*
%TO.C,J_LEFT_HEADERS1*%
X122100000Y-118250000D03*
X122100000Y-120790000D03*
X122100000Y-123330000D03*
X122100000Y-125870000D03*
X122100000Y-128410000D03*
X122100000Y-130950000D03*
X122100000Y-133490000D03*
X122100000Y-136030000D03*
X122100000Y-138570000D03*
X122100000Y-141110000D03*
X122100000Y-143650000D03*
X122100000Y-146190000D03*
X122100000Y-148730000D03*
X122100000Y-151270000D03*
X122100000Y-153810000D03*
X122100000Y-156350000D03*
X122100000Y-158890000D03*
X122100000Y-161430000D03*
X122100000Y-163970000D03*
%TO.C,J_SERVO1*%
X122850000Y-49660000D03*
X122850000Y-52200000D03*
X122850000Y-54740000D03*
%TO.C,J_RF1*%
X128700000Y-19750000D03*
%TO.C,J_IMU1*%
X128710000Y-79400000D03*
%TO.C,J_LEFT_HEADERS2*%
X128850000Y-26200000D03*
X128850000Y-28740000D03*
X128850000Y-31280000D03*
X128850000Y-33820000D03*
X128850000Y-36360000D03*
X128850000Y-38900000D03*
X128850000Y-41440000D03*
X128850000Y-43980000D03*
X128850000Y-46520000D03*
X128850000Y-49060000D03*
X128850000Y-51600000D03*
X128850000Y-54140000D03*
X128850000Y-56680000D03*
X128850000Y-59220000D03*
X128850000Y-61760000D03*
X128850000Y-64300000D03*
X128850000Y-66840000D03*
X128850000Y-69380000D03*
X128850000Y-71920000D03*
%TO.C,J_RF1*%
X131240000Y-19750000D03*
%TO.C,J_IMU1*%
X131250000Y-79400000D03*
%TO.C,J_RF1*%
X133780000Y-19750000D03*
%TO.C,J_IMU1*%
X133790000Y-79400000D03*
%TO.C,J_RF1*%
X136320000Y-19750000D03*
%TO.C,J_IMU1*%
X136330000Y-79400000D03*
%TO.C,J_RF1*%
X138860000Y-19750000D03*
%TO.C,J_IMU1*%
X138870000Y-79400000D03*
%TO.C,J_RF1*%
X141400000Y-19750000D03*
%TO.C,J_IMU1*%
X141410000Y-79400000D03*
%TO.C,J_RF1*%
X143940000Y-19750000D03*
%TO.C,J_IMU1*%
X143950000Y-79400000D03*
%TO.C,J_RF1*%
X146480000Y-19750000D03*
%TO.C,J_IMU1*%
X146490000Y-79400000D03*
%TO.C,J_RIGHT_HEADERS1*%
X147600000Y-118250000D03*
X147600000Y-120790000D03*
X147600000Y-123330000D03*
X147600000Y-125870000D03*
X147600000Y-128410000D03*
X147600000Y-130950000D03*
X147600000Y-133490000D03*
X147600000Y-136030000D03*
X147600000Y-138570000D03*
X147600000Y-141110000D03*
X147600000Y-143650000D03*
X147600000Y-146190000D03*
X147600000Y-148730000D03*
X147600000Y-151270000D03*
X147600000Y-153810000D03*
X147600000Y-156350000D03*
X147600000Y-158890000D03*
X147600000Y-161430000D03*
X147600000Y-163970000D03*
%TO.C,J_IMU1*%
X149030000Y-79400000D03*
X151570000Y-79400000D03*
%TO.C,J_RIGHT_HEADERS2*%
X154350000Y-26200000D03*
X154350000Y-28740000D03*
X154350000Y-31280000D03*
X154350000Y-33820000D03*
X154350000Y-36360000D03*
X154350000Y-38900000D03*
X154350000Y-41440000D03*
X154350000Y-43980000D03*
X154350000Y-46520000D03*
X154350000Y-49060000D03*
X154350000Y-51600000D03*
X154350000Y-54140000D03*
X154350000Y-56680000D03*
X154350000Y-59220000D03*
X154350000Y-61760000D03*
X154350000Y-64300000D03*
X154350000Y-66840000D03*
X154350000Y-69380000D03*
X154350000Y-71920000D03*
D13*
%TO.C,J_LOGIC1*%
X134920000Y-181000000D03*
X140000000Y-181000000D03*
M02*
