%TF.GenerationSoftware,KiCad,Pcbnew,9.0.0-rc3*%
%TF.CreationDate,2025-08-01T11:57:15+07:00*%
%TF.ProjectId,pdb,7064622e-6b69-4636-9164-5f7063625858,rev?*%
%TF.SameCoordinates,Original*%
%TF.FileFunction,Legend,Top*%
%TF.FilePolarity,Positive*%
%FSLAX46Y46*%
G04 Gerber Fmt 4.6, Leading zero omitted, Abs format (unit mm)*
G04 Created by KiCad (PCBNEW 9.0.0-rc3) date 2025-08-01 11:57:15*
%MOMM*%
%LPD*%
G01*
G04 APERTURE LIST*
%ADD10C,0.100000*%
%ADD11C,0.120000*%
G04 APERTURE END LIST*
D10*
X154703884Y-75091466D02*
X155465789Y-75091466D01*
X155084836Y-75472419D02*
X155084836Y-74710514D01*
X190703884Y-96291466D02*
X191465789Y-96291466D01*
X191084836Y-96672419D02*
X191084836Y-95910514D01*
X177703884Y-121491466D02*
X178465789Y-121491466D01*
X178084836Y-121872419D02*
X178084836Y-121110514D01*
X165503884Y-121491466D02*
X166265789Y-121491466D01*
X165884836Y-121872419D02*
X165884836Y-121110514D01*
X117103884Y-121091466D02*
X117865789Y-121091466D01*
X117484836Y-121472419D02*
X117484836Y-120710514D01*
X109703884Y-106691466D02*
X110465789Y-106691466D01*
X110084836Y-107072419D02*
X110084836Y-106310514D01*
X109903884Y-94691466D02*
X110665789Y-94691466D01*
X110284836Y-95072419D02*
X110284836Y-94310514D01*
X105472419Y-105419925D02*
X105472419Y-105896115D01*
X105472419Y-105896115D02*
X104472419Y-105896115D01*
X104472419Y-104896115D02*
X104472419Y-104705639D01*
X104472419Y-104705639D02*
X104520038Y-104610401D01*
X104520038Y-104610401D02*
X104615276Y-104515163D01*
X104615276Y-104515163D02*
X104805752Y-104467544D01*
X104805752Y-104467544D02*
X105139085Y-104467544D01*
X105139085Y-104467544D02*
X105329561Y-104515163D01*
X105329561Y-104515163D02*
X105424800Y-104610401D01*
X105424800Y-104610401D02*
X105472419Y-104705639D01*
X105472419Y-104705639D02*
X105472419Y-104896115D01*
X105472419Y-104896115D02*
X105424800Y-104991353D01*
X105424800Y-104991353D02*
X105329561Y-105086591D01*
X105329561Y-105086591D02*
X105139085Y-105134210D01*
X105139085Y-105134210D02*
X104805752Y-105134210D01*
X104805752Y-105134210D02*
X104615276Y-105086591D01*
X104615276Y-105086591D02*
X104520038Y-104991353D01*
X104520038Y-104991353D02*
X104472419Y-104896115D01*
X104520038Y-103515163D02*
X104472419Y-103610401D01*
X104472419Y-103610401D02*
X104472419Y-103753258D01*
X104472419Y-103753258D02*
X104520038Y-103896115D01*
X104520038Y-103896115D02*
X104615276Y-103991353D01*
X104615276Y-103991353D02*
X104710514Y-104038972D01*
X104710514Y-104038972D02*
X104900990Y-104086591D01*
X104900990Y-104086591D02*
X105043847Y-104086591D01*
X105043847Y-104086591D02*
X105234323Y-104038972D01*
X105234323Y-104038972D02*
X105329561Y-103991353D01*
X105329561Y-103991353D02*
X105424800Y-103896115D01*
X105424800Y-103896115D02*
X105472419Y-103753258D01*
X105472419Y-103753258D02*
X105472419Y-103658020D01*
X105472419Y-103658020D02*
X105424800Y-103515163D01*
X105424800Y-103515163D02*
X105377180Y-103467544D01*
X105377180Y-103467544D02*
X105043847Y-103467544D01*
X105043847Y-103467544D02*
X105043847Y-103658020D01*
X105472419Y-103038972D02*
X104472419Y-103038972D01*
X105377180Y-101991354D02*
X105424800Y-102038973D01*
X105424800Y-102038973D02*
X105472419Y-102181830D01*
X105472419Y-102181830D02*
X105472419Y-102277068D01*
X105472419Y-102277068D02*
X105424800Y-102419925D01*
X105424800Y-102419925D02*
X105329561Y-102515163D01*
X105329561Y-102515163D02*
X105234323Y-102562782D01*
X105234323Y-102562782D02*
X105043847Y-102610401D01*
X105043847Y-102610401D02*
X104900990Y-102610401D01*
X104900990Y-102610401D02*
X104710514Y-102562782D01*
X104710514Y-102562782D02*
X104615276Y-102515163D01*
X104615276Y-102515163D02*
X104520038Y-102419925D01*
X104520038Y-102419925D02*
X104472419Y-102277068D01*
X104472419Y-102277068D02*
X104472419Y-102181830D01*
X104472419Y-102181830D02*
X104520038Y-102038973D01*
X104520038Y-102038973D02*
X104567657Y-101991354D01*
X105472419Y-100800877D02*
X104472419Y-100800877D01*
X104472419Y-100800877D02*
X104472419Y-100419925D01*
X104472419Y-100419925D02*
X104520038Y-100324687D01*
X104520038Y-100324687D02*
X104567657Y-100277068D01*
X104567657Y-100277068D02*
X104662895Y-100229449D01*
X104662895Y-100229449D02*
X104805752Y-100229449D01*
X104805752Y-100229449D02*
X104900990Y-100277068D01*
X104900990Y-100277068D02*
X104948609Y-100324687D01*
X104948609Y-100324687D02*
X104996228Y-100419925D01*
X104996228Y-100419925D02*
X104996228Y-100800877D01*
X104472419Y-99610401D02*
X104472419Y-99419925D01*
X104472419Y-99419925D02*
X104520038Y-99324687D01*
X104520038Y-99324687D02*
X104615276Y-99229449D01*
X104615276Y-99229449D02*
X104805752Y-99181830D01*
X104805752Y-99181830D02*
X105139085Y-99181830D01*
X105139085Y-99181830D02*
X105329561Y-99229449D01*
X105329561Y-99229449D02*
X105424800Y-99324687D01*
X105424800Y-99324687D02*
X105472419Y-99419925D01*
X105472419Y-99419925D02*
X105472419Y-99610401D01*
X105472419Y-99610401D02*
X105424800Y-99705639D01*
X105424800Y-99705639D02*
X105329561Y-99800877D01*
X105329561Y-99800877D02*
X105139085Y-99848496D01*
X105139085Y-99848496D02*
X104805752Y-99848496D01*
X104805752Y-99848496D02*
X104615276Y-99800877D01*
X104615276Y-99800877D02*
X104520038Y-99705639D01*
X104520038Y-99705639D02*
X104472419Y-99610401D01*
X104472419Y-98848496D02*
X105472419Y-98610401D01*
X105472419Y-98610401D02*
X104758133Y-98419925D01*
X104758133Y-98419925D02*
X105472419Y-98229449D01*
X105472419Y-98229449D02*
X104472419Y-97991354D01*
X104948609Y-97610401D02*
X104948609Y-97277068D01*
X105472419Y-97134211D02*
X105472419Y-97610401D01*
X105472419Y-97610401D02*
X104472419Y-97610401D01*
X104472419Y-97610401D02*
X104472419Y-97134211D01*
X105472419Y-96134211D02*
X104996228Y-96467544D01*
X105472419Y-96705639D02*
X104472419Y-96705639D01*
X104472419Y-96705639D02*
X104472419Y-96324687D01*
X104472419Y-96324687D02*
X104520038Y-96229449D01*
X104520038Y-96229449D02*
X104567657Y-96181830D01*
X104567657Y-96181830D02*
X104662895Y-96134211D01*
X104662895Y-96134211D02*
X104805752Y-96134211D01*
X104805752Y-96134211D02*
X104900990Y-96181830D01*
X104900990Y-96181830D02*
X104948609Y-96229449D01*
X104948609Y-96229449D02*
X104996228Y-96324687D01*
X104996228Y-96324687D02*
X104996228Y-96705639D01*
X105672419Y-116896115D02*
X104672419Y-116896115D01*
X104672419Y-116896115D02*
X105386704Y-116562782D01*
X105386704Y-116562782D02*
X104672419Y-116229449D01*
X104672419Y-116229449D02*
X105672419Y-116229449D01*
X104672419Y-115562782D02*
X104672419Y-115372306D01*
X104672419Y-115372306D02*
X104720038Y-115277068D01*
X104720038Y-115277068D02*
X104815276Y-115181830D01*
X104815276Y-115181830D02*
X105005752Y-115134211D01*
X105005752Y-115134211D02*
X105339085Y-115134211D01*
X105339085Y-115134211D02*
X105529561Y-115181830D01*
X105529561Y-115181830D02*
X105624800Y-115277068D01*
X105624800Y-115277068D02*
X105672419Y-115372306D01*
X105672419Y-115372306D02*
X105672419Y-115562782D01*
X105672419Y-115562782D02*
X105624800Y-115658020D01*
X105624800Y-115658020D02*
X105529561Y-115753258D01*
X105529561Y-115753258D02*
X105339085Y-115800877D01*
X105339085Y-115800877D02*
X105005752Y-115800877D01*
X105005752Y-115800877D02*
X104815276Y-115753258D01*
X104815276Y-115753258D02*
X104720038Y-115658020D01*
X104720038Y-115658020D02*
X104672419Y-115562782D01*
X104672419Y-114848496D02*
X104672419Y-114277068D01*
X105672419Y-114562782D02*
X104672419Y-114562782D01*
X105672419Y-113181829D02*
X104672419Y-113181829D01*
X104672419Y-113181829D02*
X104672419Y-112800877D01*
X104672419Y-112800877D02*
X104720038Y-112705639D01*
X104720038Y-112705639D02*
X104767657Y-112658020D01*
X104767657Y-112658020D02*
X104862895Y-112610401D01*
X104862895Y-112610401D02*
X105005752Y-112610401D01*
X105005752Y-112610401D02*
X105100990Y-112658020D01*
X105100990Y-112658020D02*
X105148609Y-112705639D01*
X105148609Y-112705639D02*
X105196228Y-112800877D01*
X105196228Y-112800877D02*
X105196228Y-113181829D01*
X104672419Y-111991353D02*
X104672419Y-111800877D01*
X104672419Y-111800877D02*
X104720038Y-111705639D01*
X104720038Y-111705639D02*
X104815276Y-111610401D01*
X104815276Y-111610401D02*
X105005752Y-111562782D01*
X105005752Y-111562782D02*
X105339085Y-111562782D01*
X105339085Y-111562782D02*
X105529561Y-111610401D01*
X105529561Y-111610401D02*
X105624800Y-111705639D01*
X105624800Y-111705639D02*
X105672419Y-111800877D01*
X105672419Y-111800877D02*
X105672419Y-111991353D01*
X105672419Y-111991353D02*
X105624800Y-112086591D01*
X105624800Y-112086591D02*
X105529561Y-112181829D01*
X105529561Y-112181829D02*
X105339085Y-112229448D01*
X105339085Y-112229448D02*
X105005752Y-112229448D01*
X105005752Y-112229448D02*
X104815276Y-112181829D01*
X104815276Y-112181829D02*
X104720038Y-112086591D01*
X104720038Y-112086591D02*
X104672419Y-111991353D01*
X104672419Y-111229448D02*
X105672419Y-110991353D01*
X105672419Y-110991353D02*
X104958133Y-110800877D01*
X104958133Y-110800877D02*
X105672419Y-110610401D01*
X105672419Y-110610401D02*
X104672419Y-110372306D01*
X105148609Y-109991353D02*
X105148609Y-109658020D01*
X105672419Y-109515163D02*
X105672419Y-109991353D01*
X105672419Y-109991353D02*
X104672419Y-109991353D01*
X104672419Y-109991353D02*
X104672419Y-109515163D01*
X105672419Y-108515163D02*
X105196228Y-108848496D01*
X105672419Y-109086591D02*
X104672419Y-109086591D01*
X104672419Y-109086591D02*
X104672419Y-108705639D01*
X104672419Y-108705639D02*
X104720038Y-108610401D01*
X104720038Y-108610401D02*
X104767657Y-108562782D01*
X104767657Y-108562782D02*
X104862895Y-108515163D01*
X104862895Y-108515163D02*
X105005752Y-108515163D01*
X105005752Y-108515163D02*
X105100990Y-108562782D01*
X105100990Y-108562782D02*
X105148609Y-108610401D01*
X105148609Y-108610401D02*
X105196228Y-108705639D01*
X105196228Y-108705639D02*
X105196228Y-109086591D01*
X145837217Y-69948609D02*
X145980074Y-69996228D01*
X145980074Y-69996228D02*
X146027693Y-70043847D01*
X146027693Y-70043847D02*
X146075312Y-70139085D01*
X146075312Y-70139085D02*
X146075312Y-70281942D01*
X146075312Y-70281942D02*
X146027693Y-70377180D01*
X146027693Y-70377180D02*
X145980074Y-70424800D01*
X145980074Y-70424800D02*
X145884836Y-70472419D01*
X145884836Y-70472419D02*
X145503884Y-70472419D01*
X145503884Y-70472419D02*
X145503884Y-69472419D01*
X145503884Y-69472419D02*
X145837217Y-69472419D01*
X145837217Y-69472419D02*
X145932455Y-69520038D01*
X145932455Y-69520038D02*
X145980074Y-69567657D01*
X145980074Y-69567657D02*
X146027693Y-69662895D01*
X146027693Y-69662895D02*
X146027693Y-69758133D01*
X146027693Y-69758133D02*
X145980074Y-69853371D01*
X145980074Y-69853371D02*
X145932455Y-69900990D01*
X145932455Y-69900990D02*
X145837217Y-69948609D01*
X145837217Y-69948609D02*
X145503884Y-69948609D01*
X146503884Y-69472419D02*
X146503884Y-70281942D01*
X146503884Y-70281942D02*
X146551503Y-70377180D01*
X146551503Y-70377180D02*
X146599122Y-70424800D01*
X146599122Y-70424800D02*
X146694360Y-70472419D01*
X146694360Y-70472419D02*
X146884836Y-70472419D01*
X146884836Y-70472419D02*
X146980074Y-70424800D01*
X146980074Y-70424800D02*
X147027693Y-70377180D01*
X147027693Y-70377180D02*
X147075312Y-70281942D01*
X147075312Y-70281942D02*
X147075312Y-69472419D01*
X148122931Y-70377180D02*
X148075312Y-70424800D01*
X148075312Y-70424800D02*
X147932455Y-70472419D01*
X147932455Y-70472419D02*
X147837217Y-70472419D01*
X147837217Y-70472419D02*
X147694360Y-70424800D01*
X147694360Y-70424800D02*
X147599122Y-70329561D01*
X147599122Y-70329561D02*
X147551503Y-70234323D01*
X147551503Y-70234323D02*
X147503884Y-70043847D01*
X147503884Y-70043847D02*
X147503884Y-69900990D01*
X147503884Y-69900990D02*
X147551503Y-69710514D01*
X147551503Y-69710514D02*
X147599122Y-69615276D01*
X147599122Y-69615276D02*
X147694360Y-69520038D01*
X147694360Y-69520038D02*
X147837217Y-69472419D01*
X147837217Y-69472419D02*
X147932455Y-69472419D01*
X147932455Y-69472419D02*
X148075312Y-69520038D01*
X148075312Y-69520038D02*
X148122931Y-69567657D01*
X148551503Y-70472419D02*
X148551503Y-69472419D01*
X149122931Y-70472419D02*
X148694360Y-69900990D01*
X149122931Y-69472419D02*
X148551503Y-70043847D01*
X150503884Y-69472419D02*
X150694360Y-69472419D01*
X150694360Y-69472419D02*
X150789598Y-69520038D01*
X150789598Y-69520038D02*
X150884836Y-69615276D01*
X150884836Y-69615276D02*
X150932455Y-69805752D01*
X150932455Y-69805752D02*
X150932455Y-70139085D01*
X150932455Y-70139085D02*
X150884836Y-70329561D01*
X150884836Y-70329561D02*
X150789598Y-70424800D01*
X150789598Y-70424800D02*
X150694360Y-70472419D01*
X150694360Y-70472419D02*
X150503884Y-70472419D01*
X150503884Y-70472419D02*
X150408646Y-70424800D01*
X150408646Y-70424800D02*
X150313408Y-70329561D01*
X150313408Y-70329561D02*
X150265789Y-70139085D01*
X150265789Y-70139085D02*
X150265789Y-69805752D01*
X150265789Y-69805752D02*
X150313408Y-69615276D01*
X150313408Y-69615276D02*
X150408646Y-69520038D01*
X150408646Y-69520038D02*
X150503884Y-69472419D01*
X151361027Y-69472419D02*
X151361027Y-70281942D01*
X151361027Y-70281942D02*
X151408646Y-70377180D01*
X151408646Y-70377180D02*
X151456265Y-70424800D01*
X151456265Y-70424800D02*
X151551503Y-70472419D01*
X151551503Y-70472419D02*
X151741979Y-70472419D01*
X151741979Y-70472419D02*
X151837217Y-70424800D01*
X151837217Y-70424800D02*
X151884836Y-70377180D01*
X151884836Y-70377180D02*
X151932455Y-70281942D01*
X151932455Y-70281942D02*
X151932455Y-69472419D01*
X152265789Y-69472419D02*
X152837217Y-69472419D01*
X152551503Y-70472419D02*
X152551503Y-69472419D01*
X120503884Y-125672419D02*
X120503884Y-126481942D01*
X120503884Y-126481942D02*
X120551503Y-126577180D01*
X120551503Y-126577180D02*
X120599122Y-126624800D01*
X120599122Y-126624800D02*
X120694360Y-126672419D01*
X120694360Y-126672419D02*
X120884836Y-126672419D01*
X120884836Y-126672419D02*
X120980074Y-126624800D01*
X120980074Y-126624800D02*
X121027693Y-126577180D01*
X121027693Y-126577180D02*
X121075312Y-126481942D01*
X121075312Y-126481942D02*
X121075312Y-125672419D01*
X121884836Y-126148609D02*
X122027693Y-126196228D01*
X122027693Y-126196228D02*
X122075312Y-126243847D01*
X122075312Y-126243847D02*
X122122931Y-126339085D01*
X122122931Y-126339085D02*
X122122931Y-126481942D01*
X122122931Y-126481942D02*
X122075312Y-126577180D01*
X122075312Y-126577180D02*
X122027693Y-126624800D01*
X122027693Y-126624800D02*
X121932455Y-126672419D01*
X121932455Y-126672419D02*
X121551503Y-126672419D01*
X121551503Y-126672419D02*
X121551503Y-125672419D01*
X121551503Y-125672419D02*
X121884836Y-125672419D01*
X121884836Y-125672419D02*
X121980074Y-125720038D01*
X121980074Y-125720038D02*
X122027693Y-125767657D01*
X122027693Y-125767657D02*
X122075312Y-125862895D01*
X122075312Y-125862895D02*
X122075312Y-125958133D01*
X122075312Y-125958133D02*
X122027693Y-126053371D01*
X122027693Y-126053371D02*
X121980074Y-126100990D01*
X121980074Y-126100990D02*
X121884836Y-126148609D01*
X121884836Y-126148609D02*
X121551503Y-126148609D01*
X122551503Y-126148609D02*
X122884836Y-126148609D01*
X123027693Y-126672419D02*
X122551503Y-126672419D01*
X122551503Y-126672419D02*
X122551503Y-125672419D01*
X122551503Y-125672419D02*
X123027693Y-125672419D01*
X124027693Y-126577180D02*
X123980074Y-126624800D01*
X123980074Y-126624800D02*
X123837217Y-126672419D01*
X123837217Y-126672419D02*
X123741979Y-126672419D01*
X123741979Y-126672419D02*
X123599122Y-126624800D01*
X123599122Y-126624800D02*
X123503884Y-126529561D01*
X123503884Y-126529561D02*
X123456265Y-126434323D01*
X123456265Y-126434323D02*
X123408646Y-126243847D01*
X123408646Y-126243847D02*
X123408646Y-126100990D01*
X123408646Y-126100990D02*
X123456265Y-125910514D01*
X123456265Y-125910514D02*
X123503884Y-125815276D01*
X123503884Y-125815276D02*
X123599122Y-125720038D01*
X123599122Y-125720038D02*
X123741979Y-125672419D01*
X123741979Y-125672419D02*
X123837217Y-125672419D01*
X123837217Y-125672419D02*
X123980074Y-125720038D01*
X123980074Y-125720038D02*
X124027693Y-125767657D01*
X125408646Y-125672419D02*
X125599122Y-125672419D01*
X125599122Y-125672419D02*
X125694360Y-125720038D01*
X125694360Y-125720038D02*
X125789598Y-125815276D01*
X125789598Y-125815276D02*
X125837217Y-126005752D01*
X125837217Y-126005752D02*
X125837217Y-126339085D01*
X125837217Y-126339085D02*
X125789598Y-126529561D01*
X125789598Y-126529561D02*
X125694360Y-126624800D01*
X125694360Y-126624800D02*
X125599122Y-126672419D01*
X125599122Y-126672419D02*
X125408646Y-126672419D01*
X125408646Y-126672419D02*
X125313408Y-126624800D01*
X125313408Y-126624800D02*
X125218170Y-126529561D01*
X125218170Y-126529561D02*
X125170551Y-126339085D01*
X125170551Y-126339085D02*
X125170551Y-126005752D01*
X125170551Y-126005752D02*
X125218170Y-125815276D01*
X125218170Y-125815276D02*
X125313408Y-125720038D01*
X125313408Y-125720038D02*
X125408646Y-125672419D01*
X126265789Y-125672419D02*
X126265789Y-126481942D01*
X126265789Y-126481942D02*
X126313408Y-126577180D01*
X126313408Y-126577180D02*
X126361027Y-126624800D01*
X126361027Y-126624800D02*
X126456265Y-126672419D01*
X126456265Y-126672419D02*
X126646741Y-126672419D01*
X126646741Y-126672419D02*
X126741979Y-126624800D01*
X126741979Y-126624800D02*
X126789598Y-126577180D01*
X126789598Y-126577180D02*
X126837217Y-126481942D01*
X126837217Y-126481942D02*
X126837217Y-125672419D01*
X127170551Y-125672419D02*
X127741979Y-125672419D01*
X127456265Y-126672419D02*
X127456265Y-125672419D01*
X181637217Y-125948609D02*
X181780074Y-125996228D01*
X181780074Y-125996228D02*
X181827693Y-126043847D01*
X181827693Y-126043847D02*
X181875312Y-126139085D01*
X181875312Y-126139085D02*
X181875312Y-126281942D01*
X181875312Y-126281942D02*
X181827693Y-126377180D01*
X181827693Y-126377180D02*
X181780074Y-126424800D01*
X181780074Y-126424800D02*
X181684836Y-126472419D01*
X181684836Y-126472419D02*
X181303884Y-126472419D01*
X181303884Y-126472419D02*
X181303884Y-125472419D01*
X181303884Y-125472419D02*
X181637217Y-125472419D01*
X181637217Y-125472419D02*
X181732455Y-125520038D01*
X181732455Y-125520038D02*
X181780074Y-125567657D01*
X181780074Y-125567657D02*
X181827693Y-125662895D01*
X181827693Y-125662895D02*
X181827693Y-125758133D01*
X181827693Y-125758133D02*
X181780074Y-125853371D01*
X181780074Y-125853371D02*
X181732455Y-125900990D01*
X181732455Y-125900990D02*
X181637217Y-125948609D01*
X181637217Y-125948609D02*
X181303884Y-125948609D01*
X182303884Y-125472419D02*
X182303884Y-126281942D01*
X182303884Y-126281942D02*
X182351503Y-126377180D01*
X182351503Y-126377180D02*
X182399122Y-126424800D01*
X182399122Y-126424800D02*
X182494360Y-126472419D01*
X182494360Y-126472419D02*
X182684836Y-126472419D01*
X182684836Y-126472419D02*
X182780074Y-126424800D01*
X182780074Y-126424800D02*
X182827693Y-126377180D01*
X182827693Y-126377180D02*
X182875312Y-126281942D01*
X182875312Y-126281942D02*
X182875312Y-125472419D01*
X183922931Y-126377180D02*
X183875312Y-126424800D01*
X183875312Y-126424800D02*
X183732455Y-126472419D01*
X183732455Y-126472419D02*
X183637217Y-126472419D01*
X183637217Y-126472419D02*
X183494360Y-126424800D01*
X183494360Y-126424800D02*
X183399122Y-126329561D01*
X183399122Y-126329561D02*
X183351503Y-126234323D01*
X183351503Y-126234323D02*
X183303884Y-126043847D01*
X183303884Y-126043847D02*
X183303884Y-125900990D01*
X183303884Y-125900990D02*
X183351503Y-125710514D01*
X183351503Y-125710514D02*
X183399122Y-125615276D01*
X183399122Y-125615276D02*
X183494360Y-125520038D01*
X183494360Y-125520038D02*
X183637217Y-125472419D01*
X183637217Y-125472419D02*
X183732455Y-125472419D01*
X183732455Y-125472419D02*
X183875312Y-125520038D01*
X183875312Y-125520038D02*
X183922931Y-125567657D01*
X184351503Y-126472419D02*
X184351503Y-125472419D01*
X184922931Y-126472419D02*
X184494360Y-125900990D01*
X184922931Y-125472419D02*
X184351503Y-126043847D01*
X186113408Y-126472419D02*
X186113408Y-125472419D01*
X186589598Y-126472419D02*
X186589598Y-125472419D01*
X186589598Y-125472419D02*
X187161026Y-126472419D01*
X187161026Y-126472419D02*
X187161026Y-125472419D01*
X168903884Y-125472419D02*
X168903884Y-126281942D01*
X168903884Y-126281942D02*
X168951503Y-126377180D01*
X168951503Y-126377180D02*
X168999122Y-126424800D01*
X168999122Y-126424800D02*
X169094360Y-126472419D01*
X169094360Y-126472419D02*
X169284836Y-126472419D01*
X169284836Y-126472419D02*
X169380074Y-126424800D01*
X169380074Y-126424800D02*
X169427693Y-126377180D01*
X169427693Y-126377180D02*
X169475312Y-126281942D01*
X169475312Y-126281942D02*
X169475312Y-125472419D01*
X170284836Y-125948609D02*
X170427693Y-125996228D01*
X170427693Y-125996228D02*
X170475312Y-126043847D01*
X170475312Y-126043847D02*
X170522931Y-126139085D01*
X170522931Y-126139085D02*
X170522931Y-126281942D01*
X170522931Y-126281942D02*
X170475312Y-126377180D01*
X170475312Y-126377180D02*
X170427693Y-126424800D01*
X170427693Y-126424800D02*
X170332455Y-126472419D01*
X170332455Y-126472419D02*
X169951503Y-126472419D01*
X169951503Y-126472419D02*
X169951503Y-125472419D01*
X169951503Y-125472419D02*
X170284836Y-125472419D01*
X170284836Y-125472419D02*
X170380074Y-125520038D01*
X170380074Y-125520038D02*
X170427693Y-125567657D01*
X170427693Y-125567657D02*
X170475312Y-125662895D01*
X170475312Y-125662895D02*
X170475312Y-125758133D01*
X170475312Y-125758133D02*
X170427693Y-125853371D01*
X170427693Y-125853371D02*
X170380074Y-125900990D01*
X170380074Y-125900990D02*
X170284836Y-125948609D01*
X170284836Y-125948609D02*
X169951503Y-125948609D01*
X170951503Y-125948609D02*
X171284836Y-125948609D01*
X171427693Y-126472419D02*
X170951503Y-126472419D01*
X170951503Y-126472419D02*
X170951503Y-125472419D01*
X170951503Y-125472419D02*
X171427693Y-125472419D01*
X172427693Y-126377180D02*
X172380074Y-126424800D01*
X172380074Y-126424800D02*
X172237217Y-126472419D01*
X172237217Y-126472419D02*
X172141979Y-126472419D01*
X172141979Y-126472419D02*
X171999122Y-126424800D01*
X171999122Y-126424800D02*
X171903884Y-126329561D01*
X171903884Y-126329561D02*
X171856265Y-126234323D01*
X171856265Y-126234323D02*
X171808646Y-126043847D01*
X171808646Y-126043847D02*
X171808646Y-125900990D01*
X171808646Y-125900990D02*
X171856265Y-125710514D01*
X171856265Y-125710514D02*
X171903884Y-125615276D01*
X171903884Y-125615276D02*
X171999122Y-125520038D01*
X171999122Y-125520038D02*
X172141979Y-125472419D01*
X172141979Y-125472419D02*
X172237217Y-125472419D01*
X172237217Y-125472419D02*
X172380074Y-125520038D01*
X172380074Y-125520038D02*
X172427693Y-125567657D01*
X173618170Y-126472419D02*
X173618170Y-125472419D01*
X174094360Y-126472419D02*
X174094360Y-125472419D01*
X174094360Y-125472419D02*
X174665788Y-126472419D01*
X174665788Y-126472419D02*
X174665788Y-125472419D01*
X157472419Y-114924687D02*
X156996228Y-115258020D01*
X157472419Y-115496115D02*
X156472419Y-115496115D01*
X156472419Y-115496115D02*
X156472419Y-115115163D01*
X156472419Y-115115163D02*
X156520038Y-115019925D01*
X156520038Y-115019925D02*
X156567657Y-114972306D01*
X156567657Y-114972306D02*
X156662895Y-114924687D01*
X156662895Y-114924687D02*
X156805752Y-114924687D01*
X156805752Y-114924687D02*
X156900990Y-114972306D01*
X156900990Y-114972306D02*
X156948609Y-115019925D01*
X156948609Y-115019925D02*
X156996228Y-115115163D01*
X156996228Y-115115163D02*
X156996228Y-115496115D01*
X156472419Y-114305639D02*
X156472419Y-114115163D01*
X156472419Y-114115163D02*
X156520038Y-114019925D01*
X156520038Y-114019925D02*
X156615276Y-113924687D01*
X156615276Y-113924687D02*
X156805752Y-113877068D01*
X156805752Y-113877068D02*
X157139085Y-113877068D01*
X157139085Y-113877068D02*
X157329561Y-113924687D01*
X157329561Y-113924687D02*
X157424800Y-114019925D01*
X157424800Y-114019925D02*
X157472419Y-114115163D01*
X157472419Y-114115163D02*
X157472419Y-114305639D01*
X157472419Y-114305639D02*
X157424800Y-114400877D01*
X157424800Y-114400877D02*
X157329561Y-114496115D01*
X157329561Y-114496115D02*
X157139085Y-114543734D01*
X157139085Y-114543734D02*
X156805752Y-114543734D01*
X156805752Y-114543734D02*
X156615276Y-114496115D01*
X156615276Y-114496115D02*
X156520038Y-114400877D01*
X156520038Y-114400877D02*
X156472419Y-114305639D01*
X157472419Y-112972306D02*
X157472419Y-113448496D01*
X157472419Y-113448496D02*
X156472419Y-113448496D01*
X157472419Y-112162782D02*
X157472419Y-112638972D01*
X157472419Y-112638972D02*
X156472419Y-112638972D01*
X156948609Y-111829448D02*
X156948609Y-111496115D01*
X157472419Y-111353258D02*
X157472419Y-111829448D01*
X157472419Y-111829448D02*
X156472419Y-111829448D01*
X156472419Y-111829448D02*
X156472419Y-111353258D01*
X157472419Y-110353258D02*
X156996228Y-110686591D01*
X157472419Y-110924686D02*
X156472419Y-110924686D01*
X156472419Y-110924686D02*
X156472419Y-110543734D01*
X156472419Y-110543734D02*
X156520038Y-110448496D01*
X156520038Y-110448496D02*
X156567657Y-110400877D01*
X156567657Y-110400877D02*
X156662895Y-110353258D01*
X156662895Y-110353258D02*
X156805752Y-110353258D01*
X156805752Y-110353258D02*
X156900990Y-110400877D01*
X156900990Y-110400877D02*
X156948609Y-110448496D01*
X156948609Y-110448496D02*
X156996228Y-110543734D01*
X156996228Y-110543734D02*
X156996228Y-110924686D01*
X190672419Y-88896115D02*
X189672419Y-88896115D01*
X189672419Y-88896115D02*
X190386704Y-88562782D01*
X190386704Y-88562782D02*
X189672419Y-88229449D01*
X189672419Y-88229449D02*
X190672419Y-88229449D01*
X189672419Y-87562782D02*
X189672419Y-87372306D01*
X189672419Y-87372306D02*
X189720038Y-87277068D01*
X189720038Y-87277068D02*
X189815276Y-87181830D01*
X189815276Y-87181830D02*
X190005752Y-87134211D01*
X190005752Y-87134211D02*
X190339085Y-87134211D01*
X190339085Y-87134211D02*
X190529561Y-87181830D01*
X190529561Y-87181830D02*
X190624800Y-87277068D01*
X190624800Y-87277068D02*
X190672419Y-87372306D01*
X190672419Y-87372306D02*
X190672419Y-87562782D01*
X190672419Y-87562782D02*
X190624800Y-87658020D01*
X190624800Y-87658020D02*
X190529561Y-87753258D01*
X190529561Y-87753258D02*
X190339085Y-87800877D01*
X190339085Y-87800877D02*
X190005752Y-87800877D01*
X190005752Y-87800877D02*
X189815276Y-87753258D01*
X189815276Y-87753258D02*
X189720038Y-87658020D01*
X189720038Y-87658020D02*
X189672419Y-87562782D01*
X189672419Y-86848496D02*
X189672419Y-86277068D01*
X190672419Y-86562782D02*
X189672419Y-86562782D01*
X190386704Y-85229448D02*
X190386704Y-84753258D01*
X190672419Y-85324686D02*
X189672419Y-84991353D01*
X189672419Y-84991353D02*
X190672419Y-84658020D01*
X190672419Y-82753257D02*
X190672419Y-82800877D01*
X190672419Y-82800877D02*
X190624800Y-82896115D01*
X190624800Y-82896115D02*
X190481942Y-83038972D01*
X190481942Y-83038972D02*
X190196228Y-83277067D01*
X190196228Y-83277067D02*
X190053371Y-83372305D01*
X190053371Y-83372305D02*
X189910514Y-83419924D01*
X189910514Y-83419924D02*
X189815276Y-83419924D01*
X189815276Y-83419924D02*
X189720038Y-83372305D01*
X189720038Y-83372305D02*
X189672419Y-83277067D01*
X189672419Y-83277067D02*
X189672419Y-83229448D01*
X189672419Y-83229448D02*
X189720038Y-83134210D01*
X189720038Y-83134210D02*
X189815276Y-83086591D01*
X189815276Y-83086591D02*
X189862895Y-83086591D01*
X189862895Y-83086591D02*
X189958133Y-83134210D01*
X189958133Y-83134210D02*
X190005752Y-83181829D01*
X190005752Y-83181829D02*
X190196228Y-83467543D01*
X190196228Y-83467543D02*
X190243847Y-83515162D01*
X190243847Y-83515162D02*
X190339085Y-83562781D01*
X190339085Y-83562781D02*
X190481942Y-83562781D01*
X190481942Y-83562781D02*
X190577180Y-83515162D01*
X190577180Y-83515162D02*
X190624800Y-83467543D01*
X190624800Y-83467543D02*
X190672419Y-83372305D01*
X190672419Y-83372305D02*
X190672419Y-83229448D01*
X190672419Y-83229448D02*
X190624800Y-83134210D01*
X190624800Y-83134210D02*
X190577180Y-83086591D01*
X190577180Y-83086591D02*
X190386704Y-82943734D01*
X190386704Y-82943734D02*
X190243847Y-82896115D01*
X190243847Y-82896115D02*
X190148609Y-82896115D01*
X190148609Y-81229448D02*
X190196228Y-81086591D01*
X190196228Y-81086591D02*
X190243847Y-81038972D01*
X190243847Y-81038972D02*
X190339085Y-80991353D01*
X190339085Y-80991353D02*
X190481942Y-80991353D01*
X190481942Y-80991353D02*
X190577180Y-81038972D01*
X190577180Y-81038972D02*
X190624800Y-81086591D01*
X190624800Y-81086591D02*
X190672419Y-81181829D01*
X190672419Y-81181829D02*
X190672419Y-81562781D01*
X190672419Y-81562781D02*
X189672419Y-81562781D01*
X189672419Y-81562781D02*
X189672419Y-81229448D01*
X189672419Y-81229448D02*
X189720038Y-81134210D01*
X189720038Y-81134210D02*
X189767657Y-81086591D01*
X189767657Y-81086591D02*
X189862895Y-81038972D01*
X189862895Y-81038972D02*
X189958133Y-81038972D01*
X189958133Y-81038972D02*
X190053371Y-81086591D01*
X190053371Y-81086591D02*
X190100990Y-81134210D01*
X190100990Y-81134210D02*
X190148609Y-81229448D01*
X190148609Y-81229448D02*
X190148609Y-81562781D01*
X133272419Y-86896115D02*
X132272419Y-86896115D01*
X132272419Y-86896115D02*
X132986704Y-86562782D01*
X132986704Y-86562782D02*
X132272419Y-86229449D01*
X132272419Y-86229449D02*
X133272419Y-86229449D01*
X132272419Y-85562782D02*
X132272419Y-85372306D01*
X132272419Y-85372306D02*
X132320038Y-85277068D01*
X132320038Y-85277068D02*
X132415276Y-85181830D01*
X132415276Y-85181830D02*
X132605752Y-85134211D01*
X132605752Y-85134211D02*
X132939085Y-85134211D01*
X132939085Y-85134211D02*
X133129561Y-85181830D01*
X133129561Y-85181830D02*
X133224800Y-85277068D01*
X133224800Y-85277068D02*
X133272419Y-85372306D01*
X133272419Y-85372306D02*
X133272419Y-85562782D01*
X133272419Y-85562782D02*
X133224800Y-85658020D01*
X133224800Y-85658020D02*
X133129561Y-85753258D01*
X133129561Y-85753258D02*
X132939085Y-85800877D01*
X132939085Y-85800877D02*
X132605752Y-85800877D01*
X132605752Y-85800877D02*
X132415276Y-85753258D01*
X132415276Y-85753258D02*
X132320038Y-85658020D01*
X132320038Y-85658020D02*
X132272419Y-85562782D01*
X132272419Y-84848496D02*
X132272419Y-84277068D01*
X133272419Y-84562782D02*
X132272419Y-84562782D01*
X133177180Y-82610401D02*
X133224800Y-82658020D01*
X133224800Y-82658020D02*
X133272419Y-82800877D01*
X133272419Y-82800877D02*
X133272419Y-82896115D01*
X133272419Y-82896115D02*
X133224800Y-83038972D01*
X133224800Y-83038972D02*
X133129561Y-83134210D01*
X133129561Y-83134210D02*
X133034323Y-83181829D01*
X133034323Y-83181829D02*
X132843847Y-83229448D01*
X132843847Y-83229448D02*
X132700990Y-83229448D01*
X132700990Y-83229448D02*
X132510514Y-83181829D01*
X132510514Y-83181829D02*
X132415276Y-83134210D01*
X132415276Y-83134210D02*
X132320038Y-83038972D01*
X132320038Y-83038972D02*
X132272419Y-82896115D01*
X132272419Y-82896115D02*
X132272419Y-82800877D01*
X132272419Y-82800877D02*
X132320038Y-82658020D01*
X132320038Y-82658020D02*
X132367657Y-82610401D01*
X133272419Y-80610400D02*
X133272419Y-80658020D01*
X133272419Y-80658020D02*
X133224800Y-80753258D01*
X133224800Y-80753258D02*
X133081942Y-80896115D01*
X133081942Y-80896115D02*
X132796228Y-81134210D01*
X132796228Y-81134210D02*
X132653371Y-81229448D01*
X132653371Y-81229448D02*
X132510514Y-81277067D01*
X132510514Y-81277067D02*
X132415276Y-81277067D01*
X132415276Y-81277067D02*
X132320038Y-81229448D01*
X132320038Y-81229448D02*
X132272419Y-81134210D01*
X132272419Y-81134210D02*
X132272419Y-81086591D01*
X132272419Y-81086591D02*
X132320038Y-80991353D01*
X132320038Y-80991353D02*
X132415276Y-80943734D01*
X132415276Y-80943734D02*
X132462895Y-80943734D01*
X132462895Y-80943734D02*
X132558133Y-80991353D01*
X132558133Y-80991353D02*
X132605752Y-81038972D01*
X132605752Y-81038972D02*
X132796228Y-81324686D01*
X132796228Y-81324686D02*
X132843847Y-81372305D01*
X132843847Y-81372305D02*
X132939085Y-81419924D01*
X132939085Y-81419924D02*
X133081942Y-81419924D01*
X133081942Y-81419924D02*
X133177180Y-81372305D01*
X133177180Y-81372305D02*
X133224800Y-81324686D01*
X133224800Y-81324686D02*
X133272419Y-81229448D01*
X133272419Y-81229448D02*
X133272419Y-81086591D01*
X133272419Y-81086591D02*
X133224800Y-80991353D01*
X133224800Y-80991353D02*
X133177180Y-80943734D01*
X133177180Y-80943734D02*
X132986704Y-80800877D01*
X132986704Y-80800877D02*
X132843847Y-80753258D01*
X132843847Y-80753258D02*
X132748609Y-80753258D01*
X133272419Y-79419924D02*
X132272419Y-79419924D01*
X132272419Y-79419924D02*
X132272419Y-79181829D01*
X132272419Y-79181829D02*
X132320038Y-79038972D01*
X132320038Y-79038972D02*
X132415276Y-78943734D01*
X132415276Y-78943734D02*
X132510514Y-78896115D01*
X132510514Y-78896115D02*
X132700990Y-78848496D01*
X132700990Y-78848496D02*
X132843847Y-78848496D01*
X132843847Y-78848496D02*
X133034323Y-78896115D01*
X133034323Y-78896115D02*
X133129561Y-78943734D01*
X133129561Y-78943734D02*
X133224800Y-79038972D01*
X133224800Y-79038972D02*
X133272419Y-79181829D01*
X133272419Y-79181829D02*
X133272419Y-79419924D01*
X142903884Y-90291466D02*
X143665789Y-90291466D01*
X143284836Y-90672419D02*
X143284836Y-89910514D01*
X118503884Y-105491466D02*
X119265789Y-105491466D01*
X118884836Y-105872419D02*
X118884836Y-105110514D01*
X155605752Y-93467544D02*
X156272419Y-93467544D01*
X155224800Y-93705639D02*
X155939085Y-93943734D01*
X155939085Y-93943734D02*
X155939085Y-93324687D01*
X155272419Y-93038972D02*
X155272419Y-92372306D01*
X155272419Y-92372306D02*
X156272419Y-92800877D01*
X155272419Y-91800877D02*
X155272419Y-91705639D01*
X155272419Y-91705639D02*
X155320038Y-91610401D01*
X155320038Y-91610401D02*
X155367657Y-91562782D01*
X155367657Y-91562782D02*
X155462895Y-91515163D01*
X155462895Y-91515163D02*
X155653371Y-91467544D01*
X155653371Y-91467544D02*
X155891466Y-91467544D01*
X155891466Y-91467544D02*
X156081942Y-91515163D01*
X156081942Y-91515163D02*
X156177180Y-91562782D01*
X156177180Y-91562782D02*
X156224800Y-91610401D01*
X156224800Y-91610401D02*
X156272419Y-91705639D01*
X156272419Y-91705639D02*
X156272419Y-91800877D01*
X156272419Y-91800877D02*
X156224800Y-91896115D01*
X156224800Y-91896115D02*
X156177180Y-91943734D01*
X156177180Y-91943734D02*
X156081942Y-91991353D01*
X156081942Y-91991353D02*
X155891466Y-92038972D01*
X155891466Y-92038972D02*
X155653371Y-92038972D01*
X155653371Y-92038972D02*
X155462895Y-91991353D01*
X155462895Y-91991353D02*
X155367657Y-91943734D01*
X155367657Y-91943734D02*
X155320038Y-91896115D01*
X155320038Y-91896115D02*
X155272419Y-91800877D01*
X129405752Y-104267544D02*
X130072419Y-104267544D01*
X129024800Y-104505639D02*
X129739085Y-104743734D01*
X129739085Y-104743734D02*
X129739085Y-104124687D01*
X129072419Y-103838972D02*
X129072419Y-103172306D01*
X129072419Y-103172306D02*
X130072419Y-103600877D01*
X129072419Y-102600877D02*
X129072419Y-102505639D01*
X129072419Y-102505639D02*
X129120038Y-102410401D01*
X129120038Y-102410401D02*
X129167657Y-102362782D01*
X129167657Y-102362782D02*
X129262895Y-102315163D01*
X129262895Y-102315163D02*
X129453371Y-102267544D01*
X129453371Y-102267544D02*
X129691466Y-102267544D01*
X129691466Y-102267544D02*
X129881942Y-102315163D01*
X129881942Y-102315163D02*
X129977180Y-102362782D01*
X129977180Y-102362782D02*
X130024800Y-102410401D01*
X130024800Y-102410401D02*
X130072419Y-102505639D01*
X130072419Y-102505639D02*
X130072419Y-102600877D01*
X130072419Y-102600877D02*
X130024800Y-102696115D01*
X130024800Y-102696115D02*
X129977180Y-102743734D01*
X129977180Y-102743734D02*
X129881942Y-102791353D01*
X129881942Y-102791353D02*
X129691466Y-102838972D01*
X129691466Y-102838972D02*
X129453371Y-102838972D01*
X129453371Y-102838972D02*
X129262895Y-102791353D01*
X129262895Y-102791353D02*
X129167657Y-102743734D01*
X129167657Y-102743734D02*
X129120038Y-102696115D01*
X129120038Y-102696115D02*
X129072419Y-102600877D01*
X128472419Y-113105639D02*
X128472419Y-113010401D01*
X128472419Y-113010401D02*
X128520038Y-112915163D01*
X128520038Y-112915163D02*
X128567657Y-112867544D01*
X128567657Y-112867544D02*
X128662895Y-112819925D01*
X128662895Y-112819925D02*
X128853371Y-112772306D01*
X128853371Y-112772306D02*
X129091466Y-112772306D01*
X129091466Y-112772306D02*
X129281942Y-112819925D01*
X129281942Y-112819925D02*
X129377180Y-112867544D01*
X129377180Y-112867544D02*
X129424800Y-112915163D01*
X129424800Y-112915163D02*
X129472419Y-113010401D01*
X129472419Y-113010401D02*
X129472419Y-113105639D01*
X129472419Y-113105639D02*
X129424800Y-113200877D01*
X129424800Y-113200877D02*
X129377180Y-113248496D01*
X129377180Y-113248496D02*
X129281942Y-113296115D01*
X129281942Y-113296115D02*
X129091466Y-113343734D01*
X129091466Y-113343734D02*
X128853371Y-113343734D01*
X128853371Y-113343734D02*
X128662895Y-113296115D01*
X128662895Y-113296115D02*
X128567657Y-113248496D01*
X128567657Y-113248496D02*
X128520038Y-113200877D01*
X128520038Y-113200877D02*
X128472419Y-113105639D01*
X129377180Y-112343734D02*
X129424800Y-112296115D01*
X129424800Y-112296115D02*
X129472419Y-112343734D01*
X129472419Y-112343734D02*
X129424800Y-112391353D01*
X129424800Y-112391353D02*
X129377180Y-112343734D01*
X129377180Y-112343734D02*
X129472419Y-112343734D01*
X129472419Y-111343735D02*
X129472419Y-111915163D01*
X129472419Y-111629449D02*
X128472419Y-111629449D01*
X128472419Y-111629449D02*
X128615276Y-111724687D01*
X128615276Y-111724687D02*
X128710514Y-111819925D01*
X128710514Y-111819925D02*
X128758133Y-111915163D01*
X128805752Y-110486592D02*
X129472419Y-110486592D01*
X128805752Y-110915163D02*
X129329561Y-110915163D01*
X129329561Y-110915163D02*
X129424800Y-110867544D01*
X129424800Y-110867544D02*
X129472419Y-110772306D01*
X129472419Y-110772306D02*
X129472419Y-110629449D01*
X129472419Y-110629449D02*
X129424800Y-110534211D01*
X129424800Y-110534211D02*
X129377180Y-110486592D01*
X128948609Y-109677068D02*
X128948609Y-110010401D01*
X129472419Y-110010401D02*
X128472419Y-110010401D01*
X128472419Y-110010401D02*
X128472419Y-109534211D01*
X155072419Y-86105639D02*
X155072419Y-86010401D01*
X155072419Y-86010401D02*
X155120038Y-85915163D01*
X155120038Y-85915163D02*
X155167657Y-85867544D01*
X155167657Y-85867544D02*
X155262895Y-85819925D01*
X155262895Y-85819925D02*
X155453371Y-85772306D01*
X155453371Y-85772306D02*
X155691466Y-85772306D01*
X155691466Y-85772306D02*
X155881942Y-85819925D01*
X155881942Y-85819925D02*
X155977180Y-85867544D01*
X155977180Y-85867544D02*
X156024800Y-85915163D01*
X156024800Y-85915163D02*
X156072419Y-86010401D01*
X156072419Y-86010401D02*
X156072419Y-86105639D01*
X156072419Y-86105639D02*
X156024800Y-86200877D01*
X156024800Y-86200877D02*
X155977180Y-86248496D01*
X155977180Y-86248496D02*
X155881942Y-86296115D01*
X155881942Y-86296115D02*
X155691466Y-86343734D01*
X155691466Y-86343734D02*
X155453371Y-86343734D01*
X155453371Y-86343734D02*
X155262895Y-86296115D01*
X155262895Y-86296115D02*
X155167657Y-86248496D01*
X155167657Y-86248496D02*
X155120038Y-86200877D01*
X155120038Y-86200877D02*
X155072419Y-86105639D01*
X155977180Y-85343734D02*
X156024800Y-85296115D01*
X156024800Y-85296115D02*
X156072419Y-85343734D01*
X156072419Y-85343734D02*
X156024800Y-85391353D01*
X156024800Y-85391353D02*
X155977180Y-85343734D01*
X155977180Y-85343734D02*
X156072419Y-85343734D01*
X156072419Y-84343735D02*
X156072419Y-84915163D01*
X156072419Y-84629449D02*
X155072419Y-84629449D01*
X155072419Y-84629449D02*
X155215276Y-84724687D01*
X155215276Y-84724687D02*
X155310514Y-84819925D01*
X155310514Y-84819925D02*
X155358133Y-84915163D01*
X155405752Y-83486592D02*
X156072419Y-83486592D01*
X155405752Y-83915163D02*
X155929561Y-83915163D01*
X155929561Y-83915163D02*
X156024800Y-83867544D01*
X156024800Y-83867544D02*
X156072419Y-83772306D01*
X156072419Y-83772306D02*
X156072419Y-83629449D01*
X156072419Y-83629449D02*
X156024800Y-83534211D01*
X156024800Y-83534211D02*
X155977180Y-83486592D01*
X155548609Y-82677068D02*
X155548609Y-83010401D01*
X156072419Y-83010401D02*
X155072419Y-83010401D01*
X155072419Y-83010401D02*
X155072419Y-82534211D01*
X178694360Y-92672419D02*
X178789598Y-92672419D01*
X178789598Y-92672419D02*
X178884836Y-92720038D01*
X178884836Y-92720038D02*
X178932455Y-92767657D01*
X178932455Y-92767657D02*
X178980074Y-92862895D01*
X178980074Y-92862895D02*
X179027693Y-93053371D01*
X179027693Y-93053371D02*
X179027693Y-93291466D01*
X179027693Y-93291466D02*
X178980074Y-93481942D01*
X178980074Y-93481942D02*
X178932455Y-93577180D01*
X178932455Y-93577180D02*
X178884836Y-93624800D01*
X178884836Y-93624800D02*
X178789598Y-93672419D01*
X178789598Y-93672419D02*
X178694360Y-93672419D01*
X178694360Y-93672419D02*
X178599122Y-93624800D01*
X178599122Y-93624800D02*
X178551503Y-93577180D01*
X178551503Y-93577180D02*
X178503884Y-93481942D01*
X178503884Y-93481942D02*
X178456265Y-93291466D01*
X178456265Y-93291466D02*
X178456265Y-93053371D01*
X178456265Y-93053371D02*
X178503884Y-92862895D01*
X178503884Y-92862895D02*
X178551503Y-92767657D01*
X178551503Y-92767657D02*
X178599122Y-92720038D01*
X178599122Y-92720038D02*
X178694360Y-92672419D01*
X179456265Y-93577180D02*
X179503884Y-93624800D01*
X179503884Y-93624800D02*
X179456265Y-93672419D01*
X179456265Y-93672419D02*
X179408646Y-93624800D01*
X179408646Y-93624800D02*
X179456265Y-93577180D01*
X179456265Y-93577180D02*
X179456265Y-93672419D01*
X180456264Y-93672419D02*
X179884836Y-93672419D01*
X180170550Y-93672419D02*
X180170550Y-92672419D01*
X180170550Y-92672419D02*
X180075312Y-92815276D01*
X180075312Y-92815276D02*
X179980074Y-92910514D01*
X179980074Y-92910514D02*
X179884836Y-92958133D01*
X181313407Y-93005752D02*
X181313407Y-93672419D01*
X180884836Y-93005752D02*
X180884836Y-93529561D01*
X180884836Y-93529561D02*
X180932455Y-93624800D01*
X180932455Y-93624800D02*
X181027693Y-93672419D01*
X181027693Y-93672419D02*
X181170550Y-93672419D01*
X181170550Y-93672419D02*
X181265788Y-93624800D01*
X181265788Y-93624800D02*
X181313407Y-93577180D01*
X182122931Y-93148609D02*
X181789598Y-93148609D01*
X181789598Y-93672419D02*
X181789598Y-92672419D01*
X181789598Y-92672419D02*
X182265788Y-92672419D01*
X178694360Y-88272419D02*
X178789598Y-88272419D01*
X178789598Y-88272419D02*
X178884836Y-88320038D01*
X178884836Y-88320038D02*
X178932455Y-88367657D01*
X178932455Y-88367657D02*
X178980074Y-88462895D01*
X178980074Y-88462895D02*
X179027693Y-88653371D01*
X179027693Y-88653371D02*
X179027693Y-88891466D01*
X179027693Y-88891466D02*
X178980074Y-89081942D01*
X178980074Y-89081942D02*
X178932455Y-89177180D01*
X178932455Y-89177180D02*
X178884836Y-89224800D01*
X178884836Y-89224800D02*
X178789598Y-89272419D01*
X178789598Y-89272419D02*
X178694360Y-89272419D01*
X178694360Y-89272419D02*
X178599122Y-89224800D01*
X178599122Y-89224800D02*
X178551503Y-89177180D01*
X178551503Y-89177180D02*
X178503884Y-89081942D01*
X178503884Y-89081942D02*
X178456265Y-88891466D01*
X178456265Y-88891466D02*
X178456265Y-88653371D01*
X178456265Y-88653371D02*
X178503884Y-88462895D01*
X178503884Y-88462895D02*
X178551503Y-88367657D01*
X178551503Y-88367657D02*
X178599122Y-88320038D01*
X178599122Y-88320038D02*
X178694360Y-88272419D01*
X179456265Y-89177180D02*
X179503884Y-89224800D01*
X179503884Y-89224800D02*
X179456265Y-89272419D01*
X179456265Y-89272419D02*
X179408646Y-89224800D01*
X179408646Y-89224800D02*
X179456265Y-89177180D01*
X179456265Y-89177180D02*
X179456265Y-89272419D01*
X180456264Y-89272419D02*
X179884836Y-89272419D01*
X180170550Y-89272419D02*
X180170550Y-88272419D01*
X180170550Y-88272419D02*
X180075312Y-88415276D01*
X180075312Y-88415276D02*
X179980074Y-88510514D01*
X179980074Y-88510514D02*
X179884836Y-88558133D01*
X181313407Y-88605752D02*
X181313407Y-89272419D01*
X180884836Y-88605752D02*
X180884836Y-89129561D01*
X180884836Y-89129561D02*
X180932455Y-89224800D01*
X180932455Y-89224800D02*
X181027693Y-89272419D01*
X181027693Y-89272419D02*
X181170550Y-89272419D01*
X181170550Y-89272419D02*
X181265788Y-89224800D01*
X181265788Y-89224800D02*
X181313407Y-89177180D01*
X182122931Y-88748609D02*
X181789598Y-88748609D01*
X181789598Y-89272419D02*
X181789598Y-88272419D01*
X181789598Y-88272419D02*
X182265788Y-88272419D01*
X120894360Y-93072419D02*
X120989598Y-93072419D01*
X120989598Y-93072419D02*
X121084836Y-93120038D01*
X121084836Y-93120038D02*
X121132455Y-93167657D01*
X121132455Y-93167657D02*
X121180074Y-93262895D01*
X121180074Y-93262895D02*
X121227693Y-93453371D01*
X121227693Y-93453371D02*
X121227693Y-93691466D01*
X121227693Y-93691466D02*
X121180074Y-93881942D01*
X121180074Y-93881942D02*
X121132455Y-93977180D01*
X121132455Y-93977180D02*
X121084836Y-94024800D01*
X121084836Y-94024800D02*
X120989598Y-94072419D01*
X120989598Y-94072419D02*
X120894360Y-94072419D01*
X120894360Y-94072419D02*
X120799122Y-94024800D01*
X120799122Y-94024800D02*
X120751503Y-93977180D01*
X120751503Y-93977180D02*
X120703884Y-93881942D01*
X120703884Y-93881942D02*
X120656265Y-93691466D01*
X120656265Y-93691466D02*
X120656265Y-93453371D01*
X120656265Y-93453371D02*
X120703884Y-93262895D01*
X120703884Y-93262895D02*
X120751503Y-93167657D01*
X120751503Y-93167657D02*
X120799122Y-93120038D01*
X120799122Y-93120038D02*
X120894360Y-93072419D01*
X121656265Y-93977180D02*
X121703884Y-94024800D01*
X121703884Y-94024800D02*
X121656265Y-94072419D01*
X121656265Y-94072419D02*
X121608646Y-94024800D01*
X121608646Y-94024800D02*
X121656265Y-93977180D01*
X121656265Y-93977180D02*
X121656265Y-94072419D01*
X122656264Y-94072419D02*
X122084836Y-94072419D01*
X122370550Y-94072419D02*
X122370550Y-93072419D01*
X122370550Y-93072419D02*
X122275312Y-93215276D01*
X122275312Y-93215276D02*
X122180074Y-93310514D01*
X122180074Y-93310514D02*
X122084836Y-93358133D01*
X123513407Y-93405752D02*
X123513407Y-94072419D01*
X123084836Y-93405752D02*
X123084836Y-93929561D01*
X123084836Y-93929561D02*
X123132455Y-94024800D01*
X123132455Y-94024800D02*
X123227693Y-94072419D01*
X123227693Y-94072419D02*
X123370550Y-94072419D01*
X123370550Y-94072419D02*
X123465788Y-94024800D01*
X123465788Y-94024800D02*
X123513407Y-93977180D01*
X124322931Y-93548609D02*
X123989598Y-93548609D01*
X123989598Y-94072419D02*
X123989598Y-93072419D01*
X123989598Y-93072419D02*
X124465788Y-93072419D01*
X120894360Y-89072419D02*
X120989598Y-89072419D01*
X120989598Y-89072419D02*
X121084836Y-89120038D01*
X121084836Y-89120038D02*
X121132455Y-89167657D01*
X121132455Y-89167657D02*
X121180074Y-89262895D01*
X121180074Y-89262895D02*
X121227693Y-89453371D01*
X121227693Y-89453371D02*
X121227693Y-89691466D01*
X121227693Y-89691466D02*
X121180074Y-89881942D01*
X121180074Y-89881942D02*
X121132455Y-89977180D01*
X121132455Y-89977180D02*
X121084836Y-90024800D01*
X121084836Y-90024800D02*
X120989598Y-90072419D01*
X120989598Y-90072419D02*
X120894360Y-90072419D01*
X120894360Y-90072419D02*
X120799122Y-90024800D01*
X120799122Y-90024800D02*
X120751503Y-89977180D01*
X120751503Y-89977180D02*
X120703884Y-89881942D01*
X120703884Y-89881942D02*
X120656265Y-89691466D01*
X120656265Y-89691466D02*
X120656265Y-89453371D01*
X120656265Y-89453371D02*
X120703884Y-89262895D01*
X120703884Y-89262895D02*
X120751503Y-89167657D01*
X120751503Y-89167657D02*
X120799122Y-89120038D01*
X120799122Y-89120038D02*
X120894360Y-89072419D01*
X121656265Y-89977180D02*
X121703884Y-90024800D01*
X121703884Y-90024800D02*
X121656265Y-90072419D01*
X121656265Y-90072419D02*
X121608646Y-90024800D01*
X121608646Y-90024800D02*
X121656265Y-89977180D01*
X121656265Y-89977180D02*
X121656265Y-90072419D01*
X122656264Y-90072419D02*
X122084836Y-90072419D01*
X122370550Y-90072419D02*
X122370550Y-89072419D01*
X122370550Y-89072419D02*
X122275312Y-89215276D01*
X122275312Y-89215276D02*
X122180074Y-89310514D01*
X122180074Y-89310514D02*
X122084836Y-89358133D01*
X123513407Y-89405752D02*
X123513407Y-90072419D01*
X123084836Y-89405752D02*
X123084836Y-89929561D01*
X123084836Y-89929561D02*
X123132455Y-90024800D01*
X123132455Y-90024800D02*
X123227693Y-90072419D01*
X123227693Y-90072419D02*
X123370550Y-90072419D01*
X123370550Y-90072419D02*
X123465788Y-90024800D01*
X123465788Y-90024800D02*
X123513407Y-89977180D01*
X124322931Y-89548609D02*
X123989598Y-89548609D01*
X123989598Y-90072419D02*
X123989598Y-89072419D01*
X123989598Y-89072419D02*
X124465788Y-89072419D01*
X145294360Y-122672419D02*
X145389598Y-122672419D01*
X145389598Y-122672419D02*
X145484836Y-122720038D01*
X145484836Y-122720038D02*
X145532455Y-122767657D01*
X145532455Y-122767657D02*
X145580074Y-122862895D01*
X145580074Y-122862895D02*
X145627693Y-123053371D01*
X145627693Y-123053371D02*
X145627693Y-123291466D01*
X145627693Y-123291466D02*
X145580074Y-123481942D01*
X145580074Y-123481942D02*
X145532455Y-123577180D01*
X145532455Y-123577180D02*
X145484836Y-123624800D01*
X145484836Y-123624800D02*
X145389598Y-123672419D01*
X145389598Y-123672419D02*
X145294360Y-123672419D01*
X145294360Y-123672419D02*
X145199122Y-123624800D01*
X145199122Y-123624800D02*
X145151503Y-123577180D01*
X145151503Y-123577180D02*
X145103884Y-123481942D01*
X145103884Y-123481942D02*
X145056265Y-123291466D01*
X145056265Y-123291466D02*
X145056265Y-123053371D01*
X145056265Y-123053371D02*
X145103884Y-122862895D01*
X145103884Y-122862895D02*
X145151503Y-122767657D01*
X145151503Y-122767657D02*
X145199122Y-122720038D01*
X145199122Y-122720038D02*
X145294360Y-122672419D01*
X146056265Y-123577180D02*
X146103884Y-123624800D01*
X146103884Y-123624800D02*
X146056265Y-123672419D01*
X146056265Y-123672419D02*
X146008646Y-123624800D01*
X146008646Y-123624800D02*
X146056265Y-123577180D01*
X146056265Y-123577180D02*
X146056265Y-123672419D01*
X147056264Y-123672419D02*
X146484836Y-123672419D01*
X146770550Y-123672419D02*
X146770550Y-122672419D01*
X146770550Y-122672419D02*
X146675312Y-122815276D01*
X146675312Y-122815276D02*
X146580074Y-122910514D01*
X146580074Y-122910514D02*
X146484836Y-122958133D01*
X147913407Y-123005752D02*
X147913407Y-123672419D01*
X147484836Y-123005752D02*
X147484836Y-123529561D01*
X147484836Y-123529561D02*
X147532455Y-123624800D01*
X147532455Y-123624800D02*
X147627693Y-123672419D01*
X147627693Y-123672419D02*
X147770550Y-123672419D01*
X147770550Y-123672419D02*
X147865788Y-123624800D01*
X147865788Y-123624800D02*
X147913407Y-123577180D01*
X148722931Y-123148609D02*
X148389598Y-123148609D01*
X148389598Y-123672419D02*
X148389598Y-122672419D01*
X148389598Y-122672419D02*
X148865788Y-122672419D01*
X145494360Y-118472419D02*
X145589598Y-118472419D01*
X145589598Y-118472419D02*
X145684836Y-118520038D01*
X145684836Y-118520038D02*
X145732455Y-118567657D01*
X145732455Y-118567657D02*
X145780074Y-118662895D01*
X145780074Y-118662895D02*
X145827693Y-118853371D01*
X145827693Y-118853371D02*
X145827693Y-119091466D01*
X145827693Y-119091466D02*
X145780074Y-119281942D01*
X145780074Y-119281942D02*
X145732455Y-119377180D01*
X145732455Y-119377180D02*
X145684836Y-119424800D01*
X145684836Y-119424800D02*
X145589598Y-119472419D01*
X145589598Y-119472419D02*
X145494360Y-119472419D01*
X145494360Y-119472419D02*
X145399122Y-119424800D01*
X145399122Y-119424800D02*
X145351503Y-119377180D01*
X145351503Y-119377180D02*
X145303884Y-119281942D01*
X145303884Y-119281942D02*
X145256265Y-119091466D01*
X145256265Y-119091466D02*
X145256265Y-118853371D01*
X145256265Y-118853371D02*
X145303884Y-118662895D01*
X145303884Y-118662895D02*
X145351503Y-118567657D01*
X145351503Y-118567657D02*
X145399122Y-118520038D01*
X145399122Y-118520038D02*
X145494360Y-118472419D01*
X146256265Y-119377180D02*
X146303884Y-119424800D01*
X146303884Y-119424800D02*
X146256265Y-119472419D01*
X146256265Y-119472419D02*
X146208646Y-119424800D01*
X146208646Y-119424800D02*
X146256265Y-119377180D01*
X146256265Y-119377180D02*
X146256265Y-119472419D01*
X147256264Y-119472419D02*
X146684836Y-119472419D01*
X146970550Y-119472419D02*
X146970550Y-118472419D01*
X146970550Y-118472419D02*
X146875312Y-118615276D01*
X146875312Y-118615276D02*
X146780074Y-118710514D01*
X146780074Y-118710514D02*
X146684836Y-118758133D01*
X148113407Y-118805752D02*
X148113407Y-119472419D01*
X147684836Y-118805752D02*
X147684836Y-119329561D01*
X147684836Y-119329561D02*
X147732455Y-119424800D01*
X147732455Y-119424800D02*
X147827693Y-119472419D01*
X147827693Y-119472419D02*
X147970550Y-119472419D01*
X147970550Y-119472419D02*
X148065788Y-119424800D01*
X148065788Y-119424800D02*
X148113407Y-119377180D01*
X148922931Y-118948609D02*
X148589598Y-118948609D01*
X148589598Y-119472419D02*
X148589598Y-118472419D01*
X148589598Y-118472419D02*
X149065788Y-118472419D01*
X131815312Y-108472419D02*
X131481979Y-107996228D01*
X131243884Y-108472419D02*
X131243884Y-107472419D01*
X131243884Y-107472419D02*
X131624836Y-107472419D01*
X131624836Y-107472419D02*
X131720074Y-107520038D01*
X131720074Y-107520038D02*
X131767693Y-107567657D01*
X131767693Y-107567657D02*
X131815312Y-107662895D01*
X131815312Y-107662895D02*
X131815312Y-107805752D01*
X131815312Y-107805752D02*
X131767693Y-107900990D01*
X131767693Y-107900990D02*
X131720074Y-107948609D01*
X131720074Y-107948609D02*
X131624836Y-107996228D01*
X131624836Y-107996228D02*
X131243884Y-107996228D01*
X132434360Y-107472419D02*
X132624836Y-107472419D01*
X132624836Y-107472419D02*
X132720074Y-107520038D01*
X132720074Y-107520038D02*
X132815312Y-107615276D01*
X132815312Y-107615276D02*
X132862931Y-107805752D01*
X132862931Y-107805752D02*
X132862931Y-108139085D01*
X132862931Y-108139085D02*
X132815312Y-108329561D01*
X132815312Y-108329561D02*
X132720074Y-108424800D01*
X132720074Y-108424800D02*
X132624836Y-108472419D01*
X132624836Y-108472419D02*
X132434360Y-108472419D01*
X132434360Y-108472419D02*
X132339122Y-108424800D01*
X132339122Y-108424800D02*
X132243884Y-108329561D01*
X132243884Y-108329561D02*
X132196265Y-108139085D01*
X132196265Y-108139085D02*
X132196265Y-107805752D01*
X132196265Y-107805752D02*
X132243884Y-107615276D01*
X132243884Y-107615276D02*
X132339122Y-107520038D01*
X132339122Y-107520038D02*
X132434360Y-107472419D01*
X133767693Y-108472419D02*
X133291503Y-108472419D01*
X133291503Y-108472419D02*
X133291503Y-107472419D01*
X134577217Y-108472419D02*
X134101027Y-108472419D01*
X134101027Y-108472419D02*
X134101027Y-107472419D01*
X134910551Y-107948609D02*
X135243884Y-107948609D01*
X135386741Y-108472419D02*
X134910551Y-108472419D01*
X134910551Y-108472419D02*
X134910551Y-107472419D01*
X134910551Y-107472419D02*
X135386741Y-107472419D01*
X136386741Y-108472419D02*
X136053408Y-107996228D01*
X135815313Y-108472419D02*
X135815313Y-107472419D01*
X135815313Y-107472419D02*
X136196265Y-107472419D01*
X136196265Y-107472419D02*
X136291503Y-107520038D01*
X136291503Y-107520038D02*
X136339122Y-107567657D01*
X136339122Y-107567657D02*
X136386741Y-107662895D01*
X136386741Y-107662895D02*
X136386741Y-107805752D01*
X136386741Y-107805752D02*
X136339122Y-107900990D01*
X136339122Y-107900990D02*
X136291503Y-107948609D01*
X136291503Y-107948609D02*
X136196265Y-107996228D01*
X136196265Y-107996228D02*
X135815313Y-107996228D01*
X171405752Y-112417544D02*
X172072419Y-112417544D01*
X171024800Y-112655639D02*
X171739085Y-112893734D01*
X171739085Y-112893734D02*
X171739085Y-112274687D01*
X171072419Y-111988972D02*
X171072419Y-111322306D01*
X171072419Y-111322306D02*
X172072419Y-111750877D01*
X171072419Y-110750877D02*
X171072419Y-110655639D01*
X171072419Y-110655639D02*
X171120038Y-110560401D01*
X171120038Y-110560401D02*
X171167657Y-110512782D01*
X171167657Y-110512782D02*
X171262895Y-110465163D01*
X171262895Y-110465163D02*
X171453371Y-110417544D01*
X171453371Y-110417544D02*
X171691466Y-110417544D01*
X171691466Y-110417544D02*
X171881942Y-110465163D01*
X171881942Y-110465163D02*
X171977180Y-110512782D01*
X171977180Y-110512782D02*
X172024800Y-110560401D01*
X172024800Y-110560401D02*
X172072419Y-110655639D01*
X172072419Y-110655639D02*
X172072419Y-110750877D01*
X172072419Y-110750877D02*
X172024800Y-110846115D01*
X172024800Y-110846115D02*
X171977180Y-110893734D01*
X171977180Y-110893734D02*
X171881942Y-110941353D01*
X171881942Y-110941353D02*
X171691466Y-110988972D01*
X171691466Y-110988972D02*
X171453371Y-110988972D01*
X171453371Y-110988972D02*
X171262895Y-110941353D01*
X171262895Y-110941353D02*
X171167657Y-110893734D01*
X171167657Y-110893734D02*
X171120038Y-110846115D01*
X171120038Y-110846115D02*
X171072419Y-110750877D01*
X171405752Y-109560401D02*
X172072419Y-109560401D01*
X171405752Y-109988972D02*
X171929561Y-109988972D01*
X171929561Y-109988972D02*
X172024800Y-109941353D01*
X172024800Y-109941353D02*
X172072419Y-109846115D01*
X172072419Y-109846115D02*
X172072419Y-109703258D01*
X172072419Y-109703258D02*
X172024800Y-109608020D01*
X172024800Y-109608020D02*
X171977180Y-109560401D01*
X171548609Y-108750877D02*
X171548609Y-109084210D01*
X172072419Y-109084210D02*
X171072419Y-109084210D01*
X171072419Y-109084210D02*
X171072419Y-108608020D01*
X115367657Y-113143734D02*
X115320038Y-113096115D01*
X115320038Y-113096115D02*
X115272419Y-113000877D01*
X115272419Y-113000877D02*
X115272419Y-112762782D01*
X115272419Y-112762782D02*
X115320038Y-112667544D01*
X115320038Y-112667544D02*
X115367657Y-112619925D01*
X115367657Y-112619925D02*
X115462895Y-112572306D01*
X115462895Y-112572306D02*
X115558133Y-112572306D01*
X115558133Y-112572306D02*
X115700990Y-112619925D01*
X115700990Y-112619925D02*
X116272419Y-113191353D01*
X116272419Y-113191353D02*
X116272419Y-112572306D01*
X115367657Y-112191353D02*
X115320038Y-112143734D01*
X115320038Y-112143734D02*
X115272419Y-112048496D01*
X115272419Y-112048496D02*
X115272419Y-111810401D01*
X115272419Y-111810401D02*
X115320038Y-111715163D01*
X115320038Y-111715163D02*
X115367657Y-111667544D01*
X115367657Y-111667544D02*
X115462895Y-111619925D01*
X115462895Y-111619925D02*
X115558133Y-111619925D01*
X115558133Y-111619925D02*
X115700990Y-111667544D01*
X115700990Y-111667544D02*
X116272419Y-112238972D01*
X116272419Y-112238972D02*
X116272419Y-111619925D01*
X115272419Y-111000877D02*
X115272419Y-110905639D01*
X115272419Y-110905639D02*
X115320038Y-110810401D01*
X115320038Y-110810401D02*
X115367657Y-110762782D01*
X115367657Y-110762782D02*
X115462895Y-110715163D01*
X115462895Y-110715163D02*
X115653371Y-110667544D01*
X115653371Y-110667544D02*
X115891466Y-110667544D01*
X115891466Y-110667544D02*
X116081942Y-110715163D01*
X116081942Y-110715163D02*
X116177180Y-110762782D01*
X116177180Y-110762782D02*
X116224800Y-110810401D01*
X116224800Y-110810401D02*
X116272419Y-110905639D01*
X116272419Y-110905639D02*
X116272419Y-111000877D01*
X116272419Y-111000877D02*
X116224800Y-111096115D01*
X116224800Y-111096115D02*
X116177180Y-111143734D01*
X116177180Y-111143734D02*
X116081942Y-111191353D01*
X116081942Y-111191353D02*
X115891466Y-111238972D01*
X115891466Y-111238972D02*
X115653371Y-111238972D01*
X115653371Y-111238972D02*
X115462895Y-111191353D01*
X115462895Y-111191353D02*
X115367657Y-111143734D01*
X115367657Y-111143734D02*
X115320038Y-111096115D01*
X115320038Y-111096115D02*
X115272419Y-111000877D01*
X115605752Y-109810401D02*
X116272419Y-109810401D01*
X115605752Y-110238972D02*
X116129561Y-110238972D01*
X116129561Y-110238972D02*
X116224800Y-110191353D01*
X116224800Y-110191353D02*
X116272419Y-110096115D01*
X116272419Y-110096115D02*
X116272419Y-109953258D01*
X116272419Y-109953258D02*
X116224800Y-109858020D01*
X116224800Y-109858020D02*
X116177180Y-109810401D01*
X115748609Y-109000877D02*
X115748609Y-109334210D01*
X116272419Y-109334210D02*
X115272419Y-109334210D01*
X115272419Y-109334210D02*
X115272419Y-108858020D01*
X140567657Y-86943734D02*
X140520038Y-86896115D01*
X140520038Y-86896115D02*
X140472419Y-86800877D01*
X140472419Y-86800877D02*
X140472419Y-86562782D01*
X140472419Y-86562782D02*
X140520038Y-86467544D01*
X140520038Y-86467544D02*
X140567657Y-86419925D01*
X140567657Y-86419925D02*
X140662895Y-86372306D01*
X140662895Y-86372306D02*
X140758133Y-86372306D01*
X140758133Y-86372306D02*
X140900990Y-86419925D01*
X140900990Y-86419925D02*
X141472419Y-86991353D01*
X141472419Y-86991353D02*
X141472419Y-86372306D01*
X140567657Y-85991353D02*
X140520038Y-85943734D01*
X140520038Y-85943734D02*
X140472419Y-85848496D01*
X140472419Y-85848496D02*
X140472419Y-85610401D01*
X140472419Y-85610401D02*
X140520038Y-85515163D01*
X140520038Y-85515163D02*
X140567657Y-85467544D01*
X140567657Y-85467544D02*
X140662895Y-85419925D01*
X140662895Y-85419925D02*
X140758133Y-85419925D01*
X140758133Y-85419925D02*
X140900990Y-85467544D01*
X140900990Y-85467544D02*
X141472419Y-86038972D01*
X141472419Y-86038972D02*
X141472419Y-85419925D01*
X140472419Y-84800877D02*
X140472419Y-84705639D01*
X140472419Y-84705639D02*
X140520038Y-84610401D01*
X140520038Y-84610401D02*
X140567657Y-84562782D01*
X140567657Y-84562782D02*
X140662895Y-84515163D01*
X140662895Y-84515163D02*
X140853371Y-84467544D01*
X140853371Y-84467544D02*
X141091466Y-84467544D01*
X141091466Y-84467544D02*
X141281942Y-84515163D01*
X141281942Y-84515163D02*
X141377180Y-84562782D01*
X141377180Y-84562782D02*
X141424800Y-84610401D01*
X141424800Y-84610401D02*
X141472419Y-84705639D01*
X141472419Y-84705639D02*
X141472419Y-84800877D01*
X141472419Y-84800877D02*
X141424800Y-84896115D01*
X141424800Y-84896115D02*
X141377180Y-84943734D01*
X141377180Y-84943734D02*
X141281942Y-84991353D01*
X141281942Y-84991353D02*
X141091466Y-85038972D01*
X141091466Y-85038972D02*
X140853371Y-85038972D01*
X140853371Y-85038972D02*
X140662895Y-84991353D01*
X140662895Y-84991353D02*
X140567657Y-84943734D01*
X140567657Y-84943734D02*
X140520038Y-84896115D01*
X140520038Y-84896115D02*
X140472419Y-84800877D01*
X140805752Y-83610401D02*
X141472419Y-83610401D01*
X140805752Y-84038972D02*
X141329561Y-84038972D01*
X141329561Y-84038972D02*
X141424800Y-83991353D01*
X141424800Y-83991353D02*
X141472419Y-83896115D01*
X141472419Y-83896115D02*
X141472419Y-83753258D01*
X141472419Y-83753258D02*
X141424800Y-83658020D01*
X141424800Y-83658020D02*
X141377180Y-83610401D01*
X140948609Y-82800877D02*
X140948609Y-83134210D01*
X141472419Y-83134210D02*
X140472419Y-83134210D01*
X140472419Y-83134210D02*
X140472419Y-82658020D01*
X145332455Y-112405752D02*
X145332455Y-113072419D01*
X145094360Y-112024800D02*
X144856265Y-112739085D01*
X144856265Y-112739085D02*
X145475312Y-112739085D01*
X145761027Y-112072419D02*
X146427693Y-112072419D01*
X146427693Y-112072419D02*
X145999122Y-113072419D01*
X146999122Y-112072419D02*
X147094360Y-112072419D01*
X147094360Y-112072419D02*
X147189598Y-112120038D01*
X147189598Y-112120038D02*
X147237217Y-112167657D01*
X147237217Y-112167657D02*
X147284836Y-112262895D01*
X147284836Y-112262895D02*
X147332455Y-112453371D01*
X147332455Y-112453371D02*
X147332455Y-112691466D01*
X147332455Y-112691466D02*
X147284836Y-112881942D01*
X147284836Y-112881942D02*
X147237217Y-112977180D01*
X147237217Y-112977180D02*
X147189598Y-113024800D01*
X147189598Y-113024800D02*
X147094360Y-113072419D01*
X147094360Y-113072419D02*
X146999122Y-113072419D01*
X146999122Y-113072419D02*
X146903884Y-113024800D01*
X146903884Y-113024800D02*
X146856265Y-112977180D01*
X146856265Y-112977180D02*
X146808646Y-112881942D01*
X146808646Y-112881942D02*
X146761027Y-112691466D01*
X146761027Y-112691466D02*
X146761027Y-112453371D01*
X146761027Y-112453371D02*
X146808646Y-112262895D01*
X146808646Y-112262895D02*
X146856265Y-112167657D01*
X146856265Y-112167657D02*
X146903884Y-112120038D01*
X146903884Y-112120038D02*
X146999122Y-112072419D01*
X148189598Y-112405752D02*
X148189598Y-113072419D01*
X147761027Y-112405752D02*
X147761027Y-112929561D01*
X147761027Y-112929561D02*
X147808646Y-113024800D01*
X147808646Y-113024800D02*
X147903884Y-113072419D01*
X147903884Y-113072419D02*
X148046741Y-113072419D01*
X148046741Y-113072419D02*
X148141979Y-113024800D01*
X148141979Y-113024800D02*
X148189598Y-112977180D01*
X148999122Y-112548609D02*
X148665789Y-112548609D01*
X148665789Y-113072419D02*
X148665789Y-112072419D01*
X148665789Y-112072419D02*
X149141979Y-112072419D01*
X178732455Y-82405752D02*
X178732455Y-83072419D01*
X178494360Y-82024800D02*
X178256265Y-82739085D01*
X178256265Y-82739085D02*
X178875312Y-82739085D01*
X179161027Y-82072419D02*
X179827693Y-82072419D01*
X179827693Y-82072419D02*
X179399122Y-83072419D01*
X180399122Y-82072419D02*
X180494360Y-82072419D01*
X180494360Y-82072419D02*
X180589598Y-82120038D01*
X180589598Y-82120038D02*
X180637217Y-82167657D01*
X180637217Y-82167657D02*
X180684836Y-82262895D01*
X180684836Y-82262895D02*
X180732455Y-82453371D01*
X180732455Y-82453371D02*
X180732455Y-82691466D01*
X180732455Y-82691466D02*
X180684836Y-82881942D01*
X180684836Y-82881942D02*
X180637217Y-82977180D01*
X180637217Y-82977180D02*
X180589598Y-83024800D01*
X180589598Y-83024800D02*
X180494360Y-83072419D01*
X180494360Y-83072419D02*
X180399122Y-83072419D01*
X180399122Y-83072419D02*
X180303884Y-83024800D01*
X180303884Y-83024800D02*
X180256265Y-82977180D01*
X180256265Y-82977180D02*
X180208646Y-82881942D01*
X180208646Y-82881942D02*
X180161027Y-82691466D01*
X180161027Y-82691466D02*
X180161027Y-82453371D01*
X180161027Y-82453371D02*
X180208646Y-82262895D01*
X180208646Y-82262895D02*
X180256265Y-82167657D01*
X180256265Y-82167657D02*
X180303884Y-82120038D01*
X180303884Y-82120038D02*
X180399122Y-82072419D01*
X181589598Y-82405752D02*
X181589598Y-83072419D01*
X181161027Y-82405752D02*
X181161027Y-82929561D01*
X181161027Y-82929561D02*
X181208646Y-83024800D01*
X181208646Y-83024800D02*
X181303884Y-83072419D01*
X181303884Y-83072419D02*
X181446741Y-83072419D01*
X181446741Y-83072419D02*
X181541979Y-83024800D01*
X181541979Y-83024800D02*
X181589598Y-82977180D01*
X182399122Y-82548609D02*
X182065789Y-82548609D01*
X182065789Y-83072419D02*
X182065789Y-82072419D01*
X182065789Y-82072419D02*
X182541979Y-82072419D01*
X120732455Y-82405752D02*
X120732455Y-83072419D01*
X120494360Y-82024800D02*
X120256265Y-82739085D01*
X120256265Y-82739085D02*
X120875312Y-82739085D01*
X121161027Y-82072419D02*
X121827693Y-82072419D01*
X121827693Y-82072419D02*
X121399122Y-83072419D01*
X122399122Y-82072419D02*
X122494360Y-82072419D01*
X122494360Y-82072419D02*
X122589598Y-82120038D01*
X122589598Y-82120038D02*
X122637217Y-82167657D01*
X122637217Y-82167657D02*
X122684836Y-82262895D01*
X122684836Y-82262895D02*
X122732455Y-82453371D01*
X122732455Y-82453371D02*
X122732455Y-82691466D01*
X122732455Y-82691466D02*
X122684836Y-82881942D01*
X122684836Y-82881942D02*
X122637217Y-82977180D01*
X122637217Y-82977180D02*
X122589598Y-83024800D01*
X122589598Y-83024800D02*
X122494360Y-83072419D01*
X122494360Y-83072419D02*
X122399122Y-83072419D01*
X122399122Y-83072419D02*
X122303884Y-83024800D01*
X122303884Y-83024800D02*
X122256265Y-82977180D01*
X122256265Y-82977180D02*
X122208646Y-82881942D01*
X122208646Y-82881942D02*
X122161027Y-82691466D01*
X122161027Y-82691466D02*
X122161027Y-82453371D01*
X122161027Y-82453371D02*
X122208646Y-82262895D01*
X122208646Y-82262895D02*
X122256265Y-82167657D01*
X122256265Y-82167657D02*
X122303884Y-82120038D01*
X122303884Y-82120038D02*
X122399122Y-82072419D01*
X123589598Y-82405752D02*
X123589598Y-83072419D01*
X123161027Y-82405752D02*
X123161027Y-82929561D01*
X123161027Y-82929561D02*
X123208646Y-83024800D01*
X123208646Y-83024800D02*
X123303884Y-83072419D01*
X123303884Y-83072419D02*
X123446741Y-83072419D01*
X123446741Y-83072419D02*
X123541979Y-83024800D01*
X123541979Y-83024800D02*
X123589598Y-82977180D01*
X124399122Y-82548609D02*
X124065789Y-82548609D01*
X124065789Y-83072419D02*
X124065789Y-82072419D01*
X124065789Y-82072419D02*
X124541979Y-82072419D01*
X170072419Y-89496115D02*
X169072419Y-89496115D01*
X169072419Y-89496115D02*
X169786704Y-89162782D01*
X169786704Y-89162782D02*
X169072419Y-88829449D01*
X169072419Y-88829449D02*
X170072419Y-88829449D01*
X169072419Y-88162782D02*
X169072419Y-87972306D01*
X169072419Y-87972306D02*
X169120038Y-87877068D01*
X169120038Y-87877068D02*
X169215276Y-87781830D01*
X169215276Y-87781830D02*
X169405752Y-87734211D01*
X169405752Y-87734211D02*
X169739085Y-87734211D01*
X169739085Y-87734211D02*
X169929561Y-87781830D01*
X169929561Y-87781830D02*
X170024800Y-87877068D01*
X170024800Y-87877068D02*
X170072419Y-87972306D01*
X170072419Y-87972306D02*
X170072419Y-88162782D01*
X170072419Y-88162782D02*
X170024800Y-88258020D01*
X170024800Y-88258020D02*
X169929561Y-88353258D01*
X169929561Y-88353258D02*
X169739085Y-88400877D01*
X169739085Y-88400877D02*
X169405752Y-88400877D01*
X169405752Y-88400877D02*
X169215276Y-88353258D01*
X169215276Y-88353258D02*
X169120038Y-88258020D01*
X169120038Y-88258020D02*
X169072419Y-88162782D01*
X169072419Y-87448496D02*
X169072419Y-86877068D01*
X170072419Y-87162782D02*
X169072419Y-87162782D01*
X169786704Y-85829448D02*
X169786704Y-85353258D01*
X170072419Y-85924686D02*
X169072419Y-85591353D01*
X169072419Y-85591353D02*
X170072419Y-85258020D01*
X170072419Y-81096115D02*
X169072419Y-81096115D01*
X169072419Y-81096115D02*
X169786704Y-80762782D01*
X169786704Y-80762782D02*
X169072419Y-80429449D01*
X169072419Y-80429449D02*
X170072419Y-80429449D01*
X169072419Y-79762782D02*
X169072419Y-79572306D01*
X169072419Y-79572306D02*
X169120038Y-79477068D01*
X169120038Y-79477068D02*
X169215276Y-79381830D01*
X169215276Y-79381830D02*
X169405752Y-79334211D01*
X169405752Y-79334211D02*
X169739085Y-79334211D01*
X169739085Y-79334211D02*
X169929561Y-79381830D01*
X169929561Y-79381830D02*
X170024800Y-79477068D01*
X170024800Y-79477068D02*
X170072419Y-79572306D01*
X170072419Y-79572306D02*
X170072419Y-79762782D01*
X170072419Y-79762782D02*
X170024800Y-79858020D01*
X170024800Y-79858020D02*
X169929561Y-79953258D01*
X169929561Y-79953258D02*
X169739085Y-80000877D01*
X169739085Y-80000877D02*
X169405752Y-80000877D01*
X169405752Y-80000877D02*
X169215276Y-79953258D01*
X169215276Y-79953258D02*
X169120038Y-79858020D01*
X169120038Y-79858020D02*
X169072419Y-79762782D01*
X169072419Y-79048496D02*
X169072419Y-78477068D01*
X170072419Y-78762782D02*
X169072419Y-78762782D01*
X169548609Y-77048496D02*
X169596228Y-76905639D01*
X169596228Y-76905639D02*
X169643847Y-76858020D01*
X169643847Y-76858020D02*
X169739085Y-76810401D01*
X169739085Y-76810401D02*
X169881942Y-76810401D01*
X169881942Y-76810401D02*
X169977180Y-76858020D01*
X169977180Y-76858020D02*
X170024800Y-76905639D01*
X170024800Y-76905639D02*
X170072419Y-77000877D01*
X170072419Y-77000877D02*
X170072419Y-77381829D01*
X170072419Y-77381829D02*
X169072419Y-77381829D01*
X169072419Y-77381829D02*
X169072419Y-77048496D01*
X169072419Y-77048496D02*
X169120038Y-76953258D01*
X169120038Y-76953258D02*
X169167657Y-76905639D01*
X169167657Y-76905639D02*
X169262895Y-76858020D01*
X169262895Y-76858020D02*
X169358133Y-76858020D01*
X169358133Y-76858020D02*
X169453371Y-76905639D01*
X169453371Y-76905639D02*
X169500990Y-76953258D01*
X169500990Y-76953258D02*
X169548609Y-77048496D01*
X169548609Y-77048496D02*
X169548609Y-77381829D01*
X112472419Y-89696115D02*
X111472419Y-89696115D01*
X111472419Y-89696115D02*
X112186704Y-89362782D01*
X112186704Y-89362782D02*
X111472419Y-89029449D01*
X111472419Y-89029449D02*
X112472419Y-89029449D01*
X111472419Y-88362782D02*
X111472419Y-88172306D01*
X111472419Y-88172306D02*
X111520038Y-88077068D01*
X111520038Y-88077068D02*
X111615276Y-87981830D01*
X111615276Y-87981830D02*
X111805752Y-87934211D01*
X111805752Y-87934211D02*
X112139085Y-87934211D01*
X112139085Y-87934211D02*
X112329561Y-87981830D01*
X112329561Y-87981830D02*
X112424800Y-88077068D01*
X112424800Y-88077068D02*
X112472419Y-88172306D01*
X112472419Y-88172306D02*
X112472419Y-88362782D01*
X112472419Y-88362782D02*
X112424800Y-88458020D01*
X112424800Y-88458020D02*
X112329561Y-88553258D01*
X112329561Y-88553258D02*
X112139085Y-88600877D01*
X112139085Y-88600877D02*
X111805752Y-88600877D01*
X111805752Y-88600877D02*
X111615276Y-88553258D01*
X111615276Y-88553258D02*
X111520038Y-88458020D01*
X111520038Y-88458020D02*
X111472419Y-88362782D01*
X111472419Y-87648496D02*
X111472419Y-87077068D01*
X112472419Y-87362782D02*
X111472419Y-87362782D01*
X112377180Y-85410401D02*
X112424800Y-85458020D01*
X112424800Y-85458020D02*
X112472419Y-85600877D01*
X112472419Y-85600877D02*
X112472419Y-85696115D01*
X112472419Y-85696115D02*
X112424800Y-85838972D01*
X112424800Y-85838972D02*
X112329561Y-85934210D01*
X112329561Y-85934210D02*
X112234323Y-85981829D01*
X112234323Y-85981829D02*
X112043847Y-86029448D01*
X112043847Y-86029448D02*
X111900990Y-86029448D01*
X111900990Y-86029448D02*
X111710514Y-85981829D01*
X111710514Y-85981829D02*
X111615276Y-85934210D01*
X111615276Y-85934210D02*
X111520038Y-85838972D01*
X111520038Y-85838972D02*
X111472419Y-85696115D01*
X111472419Y-85696115D02*
X111472419Y-85600877D01*
X111472419Y-85600877D02*
X111520038Y-85458020D01*
X111520038Y-85458020D02*
X111567657Y-85410401D01*
X112472419Y-82046115D02*
X111472419Y-82046115D01*
X111472419Y-82046115D02*
X112186704Y-81712782D01*
X112186704Y-81712782D02*
X111472419Y-81379449D01*
X111472419Y-81379449D02*
X112472419Y-81379449D01*
X111472419Y-80712782D02*
X111472419Y-80522306D01*
X111472419Y-80522306D02*
X111520038Y-80427068D01*
X111520038Y-80427068D02*
X111615276Y-80331830D01*
X111615276Y-80331830D02*
X111805752Y-80284211D01*
X111805752Y-80284211D02*
X112139085Y-80284211D01*
X112139085Y-80284211D02*
X112329561Y-80331830D01*
X112329561Y-80331830D02*
X112424800Y-80427068D01*
X112424800Y-80427068D02*
X112472419Y-80522306D01*
X112472419Y-80522306D02*
X112472419Y-80712782D01*
X112472419Y-80712782D02*
X112424800Y-80808020D01*
X112424800Y-80808020D02*
X112329561Y-80903258D01*
X112329561Y-80903258D02*
X112139085Y-80950877D01*
X112139085Y-80950877D02*
X111805752Y-80950877D01*
X111805752Y-80950877D02*
X111615276Y-80903258D01*
X111615276Y-80903258D02*
X111520038Y-80808020D01*
X111520038Y-80808020D02*
X111472419Y-80712782D01*
X111472419Y-79998496D02*
X111472419Y-79427068D01*
X112472419Y-79712782D02*
X111472419Y-79712782D01*
X112472419Y-78331829D02*
X111472419Y-78331829D01*
X111472419Y-78331829D02*
X111472419Y-78093734D01*
X111472419Y-78093734D02*
X111520038Y-77950877D01*
X111520038Y-77950877D02*
X111615276Y-77855639D01*
X111615276Y-77855639D02*
X111710514Y-77808020D01*
X111710514Y-77808020D02*
X111900990Y-77760401D01*
X111900990Y-77760401D02*
X112043847Y-77760401D01*
X112043847Y-77760401D02*
X112234323Y-77808020D01*
X112234323Y-77808020D02*
X112329561Y-77855639D01*
X112329561Y-77855639D02*
X112424800Y-77950877D01*
X112424800Y-77950877D02*
X112472419Y-78093734D01*
X112472419Y-78093734D02*
X112472419Y-78331829D01*
X168103884Y-74291466D02*
X168865789Y-74291466D01*
X168484836Y-74672419D02*
X168484836Y-73910514D01*
X169770550Y-73672419D02*
X169580074Y-73672419D01*
X169580074Y-73672419D02*
X169484836Y-73720038D01*
X169484836Y-73720038D02*
X169437217Y-73767657D01*
X169437217Y-73767657D02*
X169341979Y-73910514D01*
X169341979Y-73910514D02*
X169294360Y-74100990D01*
X169294360Y-74100990D02*
X169294360Y-74481942D01*
X169294360Y-74481942D02*
X169341979Y-74577180D01*
X169341979Y-74577180D02*
X169389598Y-74624800D01*
X169389598Y-74624800D02*
X169484836Y-74672419D01*
X169484836Y-74672419D02*
X169675312Y-74672419D01*
X169675312Y-74672419D02*
X169770550Y-74624800D01*
X169770550Y-74624800D02*
X169818169Y-74577180D01*
X169818169Y-74577180D02*
X169865788Y-74481942D01*
X169865788Y-74481942D02*
X169865788Y-74243847D01*
X169865788Y-74243847D02*
X169818169Y-74148609D01*
X169818169Y-74148609D02*
X169770550Y-74100990D01*
X169770550Y-74100990D02*
X169675312Y-74053371D01*
X169675312Y-74053371D02*
X169484836Y-74053371D01*
X169484836Y-74053371D02*
X169389598Y-74100990D01*
X169389598Y-74100990D02*
X169341979Y-74148609D01*
X169341979Y-74148609D02*
X169294360Y-74243847D01*
X170151503Y-73672419D02*
X170484836Y-74672419D01*
X170484836Y-74672419D02*
X170818169Y-73672419D01*
X134903884Y-104091466D02*
X135665789Y-104091466D01*
X135284836Y-104472419D02*
X135284836Y-103710514D01*
X136570550Y-103472419D02*
X136380074Y-103472419D01*
X136380074Y-103472419D02*
X136284836Y-103520038D01*
X136284836Y-103520038D02*
X136237217Y-103567657D01*
X136237217Y-103567657D02*
X136141979Y-103710514D01*
X136141979Y-103710514D02*
X136094360Y-103900990D01*
X136094360Y-103900990D02*
X136094360Y-104281942D01*
X136094360Y-104281942D02*
X136141979Y-104377180D01*
X136141979Y-104377180D02*
X136189598Y-104424800D01*
X136189598Y-104424800D02*
X136284836Y-104472419D01*
X136284836Y-104472419D02*
X136475312Y-104472419D01*
X136475312Y-104472419D02*
X136570550Y-104424800D01*
X136570550Y-104424800D02*
X136618169Y-104377180D01*
X136618169Y-104377180D02*
X136665788Y-104281942D01*
X136665788Y-104281942D02*
X136665788Y-104043847D01*
X136665788Y-104043847D02*
X136618169Y-103948609D01*
X136618169Y-103948609D02*
X136570550Y-103900990D01*
X136570550Y-103900990D02*
X136475312Y-103853371D01*
X136475312Y-103853371D02*
X136284836Y-103853371D01*
X136284836Y-103853371D02*
X136189598Y-103900990D01*
X136189598Y-103900990D02*
X136141979Y-103948609D01*
X136141979Y-103948609D02*
X136094360Y-104043847D01*
X136951503Y-103472419D02*
X137284836Y-104472419D01*
X137284836Y-104472419D02*
X137618169Y-103472419D01*
X110303884Y-74291466D02*
X111065789Y-74291466D01*
X110684836Y-74672419D02*
X110684836Y-73910514D01*
X111970550Y-73672419D02*
X111780074Y-73672419D01*
X111780074Y-73672419D02*
X111684836Y-73720038D01*
X111684836Y-73720038D02*
X111637217Y-73767657D01*
X111637217Y-73767657D02*
X111541979Y-73910514D01*
X111541979Y-73910514D02*
X111494360Y-74100990D01*
X111494360Y-74100990D02*
X111494360Y-74481942D01*
X111494360Y-74481942D02*
X111541979Y-74577180D01*
X111541979Y-74577180D02*
X111589598Y-74624800D01*
X111589598Y-74624800D02*
X111684836Y-74672419D01*
X111684836Y-74672419D02*
X111875312Y-74672419D01*
X111875312Y-74672419D02*
X111970550Y-74624800D01*
X111970550Y-74624800D02*
X112018169Y-74577180D01*
X112018169Y-74577180D02*
X112065788Y-74481942D01*
X112065788Y-74481942D02*
X112065788Y-74243847D01*
X112065788Y-74243847D02*
X112018169Y-74148609D01*
X112018169Y-74148609D02*
X111970550Y-74100990D01*
X111970550Y-74100990D02*
X111875312Y-74053371D01*
X111875312Y-74053371D02*
X111684836Y-74053371D01*
X111684836Y-74053371D02*
X111589598Y-74100990D01*
X111589598Y-74100990D02*
X111541979Y-74148609D01*
X111541979Y-74148609D02*
X111494360Y-74243847D01*
X112351503Y-73672419D02*
X112684836Y-74672419D01*
X112684836Y-74672419D02*
X113018169Y-73672419D01*
D11*
%TO.C,J_DRV_SIG1*%
X196310000Y-78290000D02*
X196310000Y-77040000D01*
X196310000Y-77040000D02*
X195060000Y-77040000D01*
X196210000Y-79100000D02*
X196210000Y-78800000D01*
X196210000Y-78800000D02*
X196010000Y-78800000D01*
X196110000Y-79100000D02*
X196110000Y-78800000D01*
X196010000Y-93460000D02*
X196010000Y-77340000D01*
X196010000Y-79900000D02*
X195400000Y-79900000D01*
X196010000Y-79100000D02*
X196210000Y-79100000D01*
X196010000Y-77340000D02*
X191290000Y-77340000D01*
X195400000Y-92850000D02*
X195400000Y-90900000D01*
X195400000Y-90900000D02*
X196010000Y-90900000D01*
X195400000Y-79900000D02*
X195400000Y-77950000D01*
X195400000Y-77950000D02*
X191900000Y-77950000D01*
X194700000Y-93460000D02*
X194700000Y-92850000D01*
X194700000Y-77340000D02*
X194700000Y-77950000D01*
X193400000Y-93460000D02*
X193400000Y-92850000D01*
X193400000Y-77340000D02*
X193400000Y-77950000D01*
X192400000Y-90500000D02*
X191900000Y-90500000D01*
X192400000Y-90300000D02*
X192400000Y-90500000D01*
X192400000Y-88500000D02*
X191900000Y-88500000D01*
X192400000Y-88300000D02*
X192400000Y-88500000D01*
X192400000Y-86500000D02*
X191900000Y-86500000D01*
X192400000Y-86300000D02*
X192400000Y-86500000D01*
X192400000Y-84500000D02*
X191900000Y-84500000D01*
X192400000Y-84300000D02*
X192400000Y-84500000D01*
X192400000Y-82500000D02*
X191900000Y-82500000D01*
X192400000Y-82300000D02*
X192400000Y-82500000D01*
X192400000Y-80500000D02*
X191900000Y-80500000D01*
X192400000Y-80300000D02*
X192400000Y-80500000D01*
X191900000Y-92850000D02*
X195400000Y-92850000D01*
X191900000Y-90400000D02*
X192400000Y-90400000D01*
X191900000Y-90300000D02*
X192400000Y-90300000D01*
X191900000Y-88400000D02*
X192400000Y-88400000D01*
X191900000Y-88300000D02*
X192400000Y-88300000D01*
X191900000Y-86400000D02*
X192400000Y-86400000D01*
X191900000Y-86300000D02*
X192400000Y-86300000D01*
X191900000Y-84400000D02*
X192400000Y-84400000D01*
X191900000Y-84300000D02*
X192400000Y-84300000D01*
X191900000Y-82400000D02*
X192400000Y-82400000D01*
X191900000Y-82300000D02*
X192400000Y-82300000D01*
X191900000Y-80400000D02*
X192400000Y-80400000D01*
X191900000Y-80300000D02*
X192400000Y-80300000D01*
X191900000Y-77950000D02*
X191900000Y-92850000D01*
X191290000Y-93460000D02*
X196010000Y-93460000D01*
X191290000Y-77340000D02*
X191290000Y-93460000D01*
%TO.C,J_LEFT_HEADER3*%
X137870000Y-105170000D02*
X137870000Y-123010000D01*
X137870000Y-105170000D02*
X140530000Y-105170000D01*
X137870000Y-123010000D02*
X140530000Y-123010000D01*
X139200000Y-102570000D02*
X140530000Y-102570000D01*
X140530000Y-102570000D02*
X140530000Y-103900000D01*
X140530000Y-105170000D02*
X140530000Y-123010000D01*
%TO.C,J_RIGHT_HEADER2*%
X128760000Y-75510000D02*
X128760000Y-93350000D01*
X128760000Y-75510000D02*
X131420000Y-75510000D01*
X128760000Y-93350000D02*
X131420000Y-93350000D01*
X130090000Y-72910000D02*
X131420000Y-72910000D01*
X131420000Y-72910000D02*
X131420000Y-74240000D01*
X131420000Y-75510000D02*
X131420000Y-93350000D01*
%TO.C,J_LEFT_HEADER2*%
X113520000Y-75510000D02*
X113520000Y-93350000D01*
X113520000Y-75510000D02*
X116180000Y-75510000D01*
X113520000Y-93350000D02*
X116180000Y-93350000D01*
X114850000Y-72910000D02*
X116180000Y-72910000D01*
X116180000Y-72910000D02*
X116180000Y-74240000D01*
X116180000Y-75510000D02*
X116180000Y-93350000D01*
%TO.C,C_BYPASS9*%
X146321000Y-120480000D02*
X147579000Y-120480000D01*
X146321000Y-122320000D02*
X147579000Y-122320000D01*
%TO.C,J_DRV_SIG_3*%
X158290000Y-108090000D02*
X158290000Y-118210000D01*
X158290000Y-118210000D02*
X163010000Y-118210000D01*
X158900000Y-108700000D02*
X158900000Y-117600000D01*
X158900000Y-111050000D02*
X159400000Y-111050000D01*
X158900000Y-111150000D02*
X159400000Y-111150000D01*
X158900000Y-113050000D02*
X159400000Y-113050000D01*
X158900000Y-113150000D02*
X159400000Y-113150000D01*
X158900000Y-115050000D02*
X159400000Y-115050000D01*
X158900000Y-115150000D02*
X159400000Y-115150000D01*
X158900000Y-117600000D02*
X162400000Y-117600000D01*
X159400000Y-111050000D02*
X159400000Y-111250000D01*
X159400000Y-111250000D02*
X158900000Y-111250000D01*
X159400000Y-113050000D02*
X159400000Y-113250000D01*
X159400000Y-113250000D02*
X158900000Y-113250000D01*
X159400000Y-115050000D02*
X159400000Y-115250000D01*
X159400000Y-115250000D02*
X158900000Y-115250000D01*
X160400000Y-108090000D02*
X160400000Y-108700000D01*
X160400000Y-118210000D02*
X160400000Y-117600000D01*
X161700000Y-108090000D02*
X161700000Y-108700000D01*
X161700000Y-118210000D02*
X161700000Y-117600000D01*
X162400000Y-108700000D02*
X158900000Y-108700000D01*
X162400000Y-110650000D02*
X162400000Y-108700000D01*
X162400000Y-115650000D02*
X163010000Y-115650000D01*
X162400000Y-117600000D02*
X162400000Y-115650000D01*
X163010000Y-108090000D02*
X158290000Y-108090000D01*
X163010000Y-109850000D02*
X163210000Y-109850000D01*
X163010000Y-110650000D02*
X162400000Y-110650000D01*
X163010000Y-118210000D02*
X163010000Y-108090000D01*
X163110000Y-109850000D02*
X163110000Y-109550000D01*
X163210000Y-109550000D02*
X163010000Y-109550000D01*
X163210000Y-109850000D02*
X163210000Y-109550000D01*
X163310000Y-107790000D02*
X162060000Y-107790000D01*
X163310000Y-109040000D02*
X163310000Y-107790000D01*
%TO.C,C_BYPASS8*%
X146321000Y-116230000D02*
X147579000Y-116230000D01*
X146321000Y-118070000D02*
X147579000Y-118070000D01*
%TO.C,C_BULK6*%
X145459000Y-107563323D02*
X141782000Y-107563323D01*
X145459000Y-107603323D02*
X141793000Y-107603323D01*
X145459000Y-107643323D02*
X141803000Y-107643323D01*
X145459000Y-107683323D02*
X141815000Y-107683323D01*
X145459000Y-107723323D02*
X141826000Y-107723323D01*
X145459000Y-107763323D02*
X141838000Y-107763323D01*
X145459000Y-107803323D02*
X141850000Y-107803323D01*
X145459000Y-107843323D02*
X141863000Y-107843323D01*
X145459000Y-107883323D02*
X141876000Y-107883323D01*
X145459000Y-107923323D02*
X141889000Y-107923323D01*
X145459000Y-107963323D02*
X141903000Y-107963323D01*
X145459000Y-108003323D02*
X141917000Y-108003323D01*
X145459000Y-108043323D02*
X141932000Y-108043323D01*
X145459000Y-108083323D02*
X141946000Y-108083323D01*
X145459000Y-108123323D02*
X141962000Y-108123323D01*
X145459000Y-108163323D02*
X141977000Y-108163323D01*
X145459000Y-108203323D02*
X141993000Y-108203323D01*
X145459000Y-108243323D02*
X142010000Y-108243323D01*
X145459000Y-108283323D02*
X142026000Y-108283323D01*
X145459000Y-108323323D02*
X142043000Y-108323323D01*
X145459000Y-108363323D02*
X142061000Y-108363323D01*
X145459000Y-108403323D02*
X142079000Y-108403323D01*
X145459000Y-108443323D02*
X142097000Y-108443323D01*
X145459000Y-108483323D02*
X142116000Y-108483323D01*
X145459000Y-108523323D02*
X142136000Y-108523323D01*
X145459000Y-108563323D02*
X142155000Y-108563323D01*
X145459000Y-108603323D02*
X142175000Y-108603323D01*
X145459000Y-108643323D02*
X142196000Y-108643323D01*
X145459000Y-108683323D02*
X142217000Y-108683323D01*
X145459000Y-108723323D02*
X142238000Y-108723323D01*
X145459000Y-108763323D02*
X142260000Y-108763323D01*
X145459000Y-108803323D02*
X142283000Y-108803323D01*
X145459000Y-108843323D02*
X142305000Y-108843323D01*
X145459000Y-108883323D02*
X142329000Y-108883323D01*
X145459000Y-108923323D02*
X142353000Y-108923323D01*
X145459000Y-108963323D02*
X142377000Y-108963323D01*
X145459000Y-109003323D02*
X142402000Y-109003323D01*
X145459000Y-109043323D02*
X142427000Y-109043323D01*
X145459000Y-109083323D02*
X142453000Y-109083323D01*
X145459000Y-109123323D02*
X142479000Y-109123323D01*
X145459000Y-109163323D02*
X142506000Y-109163323D01*
X145459000Y-109203323D02*
X142534000Y-109203323D01*
X145459000Y-109243323D02*
X142562000Y-109243323D01*
X145459000Y-109283323D02*
X142590000Y-109283323D01*
X145459000Y-109323323D02*
X142620000Y-109323323D01*
X145459000Y-109363323D02*
X142650000Y-109363323D01*
X145459000Y-109403323D02*
X142680000Y-109403323D01*
X145459000Y-109443323D02*
X142711000Y-109443323D01*
X145459000Y-109483323D02*
X142743000Y-109483323D01*
X145459000Y-109523323D02*
X142775000Y-109523323D01*
X145459000Y-109563323D02*
X142808000Y-109563323D01*
X145459000Y-109603323D02*
X142842000Y-109603323D01*
X145459000Y-109643323D02*
X142876000Y-109643323D01*
X145459000Y-109683323D02*
X142911000Y-109683323D01*
X145459000Y-109723323D02*
X142947000Y-109723323D01*
X145459000Y-109763323D02*
X142984000Y-109763323D01*
X145459000Y-109803323D02*
X143021000Y-109803323D01*
X145459000Y-109843323D02*
X143060000Y-109843323D01*
X145459000Y-109883323D02*
X143099000Y-109883323D01*
X145459000Y-109923323D02*
X143139000Y-109923323D01*
X145459000Y-109963323D02*
X143180000Y-109963323D01*
X145459000Y-110003323D02*
X143222000Y-110003323D01*
X147299000Y-111363323D02*
X146101000Y-111363323D01*
X147562000Y-111323323D02*
X145838000Y-111323323D01*
X147762000Y-111283323D02*
X145638000Y-111283323D01*
X147930000Y-111243323D02*
X145470000Y-111243323D01*
X148078000Y-111203323D02*
X145322000Y-111203323D01*
X148210000Y-111163323D02*
X145190000Y-111163323D01*
X148330000Y-111123323D02*
X145070000Y-111123323D01*
X148442000Y-111083323D02*
X144958000Y-111083323D01*
X148546000Y-111043323D02*
X144854000Y-111043323D01*
X148644000Y-111003323D02*
X144756000Y-111003323D01*
X148737000Y-110963323D02*
X144663000Y-110963323D01*
X148825000Y-110923323D02*
X144575000Y-110923323D01*
X148909000Y-110883323D02*
X144491000Y-110883323D01*
X148989000Y-110843323D02*
X144411000Y-110843323D01*
X149065000Y-110803323D02*
X144335000Y-110803323D01*
X149139000Y-110763323D02*
X144261000Y-110763323D01*
X149210000Y-110723323D02*
X144190000Y-110723323D01*
X149279000Y-110683323D02*
X144121000Y-110683323D01*
X149345000Y-110643323D02*
X144055000Y-110643323D01*
X149409000Y-110603323D02*
X143991000Y-110603323D01*
X149470000Y-110563323D02*
X143930000Y-110563323D01*
X149530000Y-110523323D02*
X143870000Y-110523323D01*
X149575000Y-100802677D02*
X149575000Y-101802677D01*
X149589000Y-110483323D02*
X143811000Y-110483323D01*
X149645000Y-110443323D02*
X143755000Y-110443323D01*
X149700000Y-110403323D02*
X143700000Y-110403323D01*
X149754000Y-110363323D02*
X143646000Y-110363323D01*
X149806000Y-110323323D02*
X143594000Y-110323323D01*
X149856000Y-110283323D02*
X143544000Y-110283323D01*
X149906000Y-110243323D02*
X143494000Y-110243323D01*
X149954000Y-110203323D02*
X143446000Y-110203323D01*
X150001000Y-110163323D02*
X143399000Y-110163323D01*
X150047000Y-110123323D02*
X143353000Y-110123323D01*
X150075000Y-101302677D02*
X149075000Y-101302677D01*
X150092000Y-110083323D02*
X143308000Y-110083323D01*
X150136000Y-110043323D02*
X143264000Y-110043323D01*
X150178000Y-110003323D02*
X147941000Y-110003323D01*
X150220000Y-109963323D02*
X147941000Y-109963323D01*
X150261000Y-109923323D02*
X147941000Y-109923323D01*
X150301000Y-109883323D02*
X147941000Y-109883323D01*
X150340000Y-109843323D02*
X147941000Y-109843323D01*
X150379000Y-109803323D02*
X147941000Y-109803323D01*
X150416000Y-109763323D02*
X147941000Y-109763323D01*
X150453000Y-109723323D02*
X147941000Y-109723323D01*
X150489000Y-109683323D02*
X147941000Y-109683323D01*
X150524000Y-109643323D02*
X147941000Y-109643323D01*
X150558000Y-109603323D02*
X147941000Y-109603323D01*
X150592000Y-109563323D02*
X147941000Y-109563323D01*
X150625000Y-109523323D02*
X147941000Y-109523323D01*
X150657000Y-109483323D02*
X147941000Y-109483323D01*
X150689000Y-109443323D02*
X147941000Y-109443323D01*
X150720000Y-109403323D02*
X147941000Y-109403323D01*
X150750000Y-109363323D02*
X147941000Y-109363323D01*
X150780000Y-109323323D02*
X147941000Y-109323323D01*
X150810000Y-109283323D02*
X147941000Y-109283323D01*
X150838000Y-109243323D02*
X147941000Y-109243323D01*
X150866000Y-109203323D02*
X147941000Y-109203323D01*
X150894000Y-109163323D02*
X147941000Y-109163323D01*
X150921000Y-109123323D02*
X147941000Y-109123323D01*
X150947000Y-109083323D02*
X147941000Y-109083323D01*
X150973000Y-109043323D02*
X147941000Y-109043323D01*
X150998000Y-109003323D02*
X147941000Y-109003323D01*
X151023000Y-108963323D02*
X147941000Y-108963323D01*
X151047000Y-108923323D02*
X147941000Y-108923323D01*
X151071000Y-108883323D02*
X147941000Y-108883323D01*
X151095000Y-108843323D02*
X147941000Y-108843323D01*
X151117000Y-108803323D02*
X147941000Y-108803323D01*
X151140000Y-108763323D02*
X147941000Y-108763323D01*
X151162000Y-108723323D02*
X147941000Y-108723323D01*
X151183000Y-108683323D02*
X147941000Y-108683323D01*
X151204000Y-108643323D02*
X147941000Y-108643323D01*
X151225000Y-108603323D02*
X147941000Y-108603323D01*
X151245000Y-108563323D02*
X147941000Y-108563323D01*
X151264000Y-108523323D02*
X147941000Y-108523323D01*
X151284000Y-108483323D02*
X147941000Y-108483323D01*
X151303000Y-108443323D02*
X147941000Y-108443323D01*
X151321000Y-108403323D02*
X147941000Y-108403323D01*
X151339000Y-108363323D02*
X147941000Y-108363323D01*
X151357000Y-108323323D02*
X147941000Y-108323323D01*
X151374000Y-108283323D02*
X147941000Y-108283323D01*
X151390000Y-108243323D02*
X147941000Y-108243323D01*
X151407000Y-108203323D02*
X147941000Y-108203323D01*
X151423000Y-108163323D02*
X147941000Y-108163323D01*
X151438000Y-108123323D02*
X147941000Y-108123323D01*
X151454000Y-108083323D02*
X147941000Y-108083323D01*
X151468000Y-108043323D02*
X147941000Y-108043323D01*
X151483000Y-108003323D02*
X147941000Y-108003323D01*
X151497000Y-107963323D02*
X147941000Y-107963323D01*
X151511000Y-107923323D02*
X147941000Y-107923323D01*
X151524000Y-107883323D02*
X147941000Y-107883323D01*
X151537000Y-107843323D02*
X147941000Y-107843323D01*
X151550000Y-107803323D02*
X147941000Y-107803323D01*
X151562000Y-107763323D02*
X147941000Y-107763323D01*
X151574000Y-107723323D02*
X147941000Y-107723323D01*
X151585000Y-107683323D02*
X147941000Y-107683323D01*
X151597000Y-107643323D02*
X147941000Y-107643323D01*
X151607000Y-107603323D02*
X147941000Y-107603323D01*
X151618000Y-107563323D02*
X147941000Y-107563323D01*
X151628000Y-107523323D02*
X141772000Y-107523323D01*
X151638000Y-107483323D02*
X141762000Y-107483323D01*
X151647000Y-107443323D02*
X141753000Y-107443323D01*
X151656000Y-107403323D02*
X141744000Y-107403323D01*
X151665000Y-107363323D02*
X141735000Y-107363323D01*
X151674000Y-107323323D02*
X141726000Y-107323323D01*
X151682000Y-107283323D02*
X141718000Y-107283323D01*
X151690000Y-107243323D02*
X141710000Y-107243323D01*
X151697000Y-107203323D02*
X141703000Y-107203323D01*
X151704000Y-107163323D02*
X141696000Y-107163323D01*
X151711000Y-107123323D02*
X141689000Y-107123323D01*
X151718000Y-107083323D02*
X141682000Y-107083323D01*
X151724000Y-107043323D02*
X141676000Y-107043323D01*
X151730000Y-107003323D02*
X141670000Y-107003323D01*
X151735000Y-106962323D02*
X141665000Y-106962323D01*
X151740000Y-106922323D02*
X141660000Y-106922323D01*
X151745000Y-106882323D02*
X141655000Y-106882323D01*
X151750000Y-106842323D02*
X141650000Y-106842323D01*
X151754000Y-106802323D02*
X141646000Y-106802323D01*
X151758000Y-106762323D02*
X141642000Y-106762323D01*
X151762000Y-106722323D02*
X141638000Y-106722323D01*
X151765000Y-106682323D02*
X141635000Y-106682323D01*
X151768000Y-106642323D02*
X141632000Y-106642323D01*
X151770000Y-106602323D02*
X141630000Y-106602323D01*
X151773000Y-106562323D02*
X141627000Y-106562323D01*
X151775000Y-106522323D02*
X141625000Y-106522323D01*
X151777000Y-106482323D02*
X141623000Y-106482323D01*
X151778000Y-106442323D02*
X141622000Y-106442323D01*
X151779000Y-106402323D02*
X141621000Y-106402323D01*
X151780000Y-106282323D02*
X141620000Y-106282323D01*
X151780000Y-106322323D02*
X141620000Y-106322323D01*
X151780000Y-106362323D02*
X141620000Y-106362323D01*
X151820000Y-106282323D02*
G75*
G02*
X141580000Y-106282323I-5120000J0D01*
G01*
X141580000Y-106282323D02*
G75*
G02*
X151820000Y-106282323I5120000J0D01*
G01*
%TO.C,R_LED2*%
X151880000Y-89840000D02*
X151880000Y-96380000D01*
X151880000Y-96380000D02*
X152210000Y-96380000D01*
X152210000Y-89840000D02*
X151880000Y-89840000D01*
X154290000Y-89840000D02*
X154620000Y-89840000D01*
X154620000Y-89840000D02*
X154620000Y-96380000D01*
X154620000Y-96380000D02*
X154290000Y-96380000D01*
%TO.C,J_VMOT3*%
X105940000Y-84840000D02*
X105940000Y-90960000D01*
X105940000Y-90960000D02*
X110660000Y-90960000D01*
X106550000Y-85450000D02*
X106550000Y-90350000D01*
X106550000Y-87800000D02*
X107050000Y-87800000D01*
X106550000Y-87900000D02*
X107050000Y-87900000D01*
X106550000Y-90350000D02*
X110050000Y-90350000D01*
X107050000Y-87800000D02*
X107050000Y-88000000D01*
X107050000Y-88000000D02*
X106550000Y-88000000D01*
X108050000Y-84840000D02*
X108050000Y-85450000D01*
X108050000Y-90960000D02*
X108050000Y-90350000D01*
X109350000Y-84840000D02*
X109350000Y-85450000D01*
X109350000Y-90960000D02*
X109350000Y-90350000D01*
X110050000Y-85450000D02*
X106550000Y-85450000D01*
X110050000Y-87400000D02*
X110050000Y-85450000D01*
X110050000Y-88400000D02*
X110660000Y-88400000D01*
X110050000Y-90350000D02*
X110050000Y-88400000D01*
X110660000Y-84840000D02*
X105940000Y-84840000D01*
X110660000Y-86600000D02*
X110860000Y-86600000D01*
X110660000Y-87400000D02*
X110050000Y-87400000D01*
X110660000Y-90960000D02*
X110660000Y-84840000D01*
X110760000Y-86600000D02*
X110760000Y-86300000D01*
X110860000Y-86300000D02*
X110660000Y-86300000D01*
X110860000Y-86600000D02*
X110860000Y-86300000D01*
X110960000Y-84540000D02*
X109710000Y-84540000D01*
X110960000Y-85790000D02*
X110960000Y-84540000D01*
%TO.C,C_BULK4*%
X178709000Y-77681000D02*
X175032000Y-77681000D01*
X178709000Y-77721000D02*
X175043000Y-77721000D01*
X178709000Y-77761000D02*
X175053000Y-77761000D01*
X178709000Y-77801000D02*
X175065000Y-77801000D01*
X178709000Y-77841000D02*
X175076000Y-77841000D01*
X178709000Y-77881000D02*
X175088000Y-77881000D01*
X178709000Y-77921000D02*
X175100000Y-77921000D01*
X178709000Y-77961000D02*
X175113000Y-77961000D01*
X178709000Y-78001000D02*
X175126000Y-78001000D01*
X178709000Y-78041000D02*
X175139000Y-78041000D01*
X178709000Y-78081000D02*
X175153000Y-78081000D01*
X178709000Y-78121000D02*
X175167000Y-78121000D01*
X178709000Y-78161000D02*
X175182000Y-78161000D01*
X178709000Y-78201000D02*
X175196000Y-78201000D01*
X178709000Y-78241000D02*
X175212000Y-78241000D01*
X178709000Y-78281000D02*
X175227000Y-78281000D01*
X178709000Y-78321000D02*
X175243000Y-78321000D01*
X178709000Y-78361000D02*
X175260000Y-78361000D01*
X178709000Y-78401000D02*
X175276000Y-78401000D01*
X178709000Y-78441000D02*
X175293000Y-78441000D01*
X178709000Y-78481000D02*
X175311000Y-78481000D01*
X178709000Y-78521000D02*
X175329000Y-78521000D01*
X178709000Y-78561000D02*
X175347000Y-78561000D01*
X178709000Y-78601000D02*
X175366000Y-78601000D01*
X178709000Y-78641000D02*
X175386000Y-78641000D01*
X178709000Y-78681000D02*
X175405000Y-78681000D01*
X178709000Y-78721000D02*
X175425000Y-78721000D01*
X178709000Y-78761000D02*
X175446000Y-78761000D01*
X178709000Y-78801000D02*
X175467000Y-78801000D01*
X178709000Y-78841000D02*
X175488000Y-78841000D01*
X178709000Y-78881000D02*
X175510000Y-78881000D01*
X178709000Y-78921000D02*
X175533000Y-78921000D01*
X178709000Y-78961000D02*
X175555000Y-78961000D01*
X178709000Y-79001000D02*
X175579000Y-79001000D01*
X178709000Y-79041000D02*
X175603000Y-79041000D01*
X178709000Y-79081000D02*
X175627000Y-79081000D01*
X178709000Y-79121000D02*
X175652000Y-79121000D01*
X178709000Y-79161000D02*
X175677000Y-79161000D01*
X178709000Y-79201000D02*
X175703000Y-79201000D01*
X178709000Y-79241000D02*
X175729000Y-79241000D01*
X178709000Y-79281000D02*
X175756000Y-79281000D01*
X178709000Y-79321000D02*
X175784000Y-79321000D01*
X178709000Y-79361000D02*
X175812000Y-79361000D01*
X178709000Y-79401000D02*
X175840000Y-79401000D01*
X178709000Y-79441000D02*
X175870000Y-79441000D01*
X178709000Y-79481000D02*
X175900000Y-79481000D01*
X178709000Y-79521000D02*
X175930000Y-79521000D01*
X178709000Y-79561000D02*
X175961000Y-79561000D01*
X178709000Y-79601000D02*
X175993000Y-79601000D01*
X178709000Y-79641000D02*
X176025000Y-79641000D01*
X178709000Y-79681000D02*
X176058000Y-79681000D01*
X178709000Y-79721000D02*
X176092000Y-79721000D01*
X178709000Y-79761000D02*
X176126000Y-79761000D01*
X178709000Y-79801000D02*
X176161000Y-79801000D01*
X178709000Y-79841000D02*
X176197000Y-79841000D01*
X178709000Y-79881000D02*
X176234000Y-79881000D01*
X178709000Y-79921000D02*
X176271000Y-79921000D01*
X178709000Y-79961000D02*
X176310000Y-79961000D01*
X178709000Y-80001000D02*
X176349000Y-80001000D01*
X178709000Y-80041000D02*
X176389000Y-80041000D01*
X178709000Y-80081000D02*
X176430000Y-80081000D01*
X178709000Y-80121000D02*
X176472000Y-80121000D01*
X180549000Y-81481000D02*
X179351000Y-81481000D01*
X180812000Y-81441000D02*
X179088000Y-81441000D01*
X181012000Y-81401000D02*
X178888000Y-81401000D01*
X181180000Y-81361000D02*
X178720000Y-81361000D01*
X181328000Y-81321000D02*
X178572000Y-81321000D01*
X181460000Y-81281000D02*
X178440000Y-81281000D01*
X181580000Y-81241000D02*
X178320000Y-81241000D01*
X181692000Y-81201000D02*
X178208000Y-81201000D01*
X181796000Y-81161000D02*
X178104000Y-81161000D01*
X181894000Y-81121000D02*
X178006000Y-81121000D01*
X181987000Y-81081000D02*
X177913000Y-81081000D01*
X182075000Y-81041000D02*
X177825000Y-81041000D01*
X182159000Y-81001000D02*
X177741000Y-81001000D01*
X182239000Y-80961000D02*
X177661000Y-80961000D01*
X182315000Y-80921000D02*
X177585000Y-80921000D01*
X182389000Y-80881000D02*
X177511000Y-80881000D01*
X182460000Y-80841000D02*
X177440000Y-80841000D01*
X182529000Y-80801000D02*
X177371000Y-80801000D01*
X182595000Y-80761000D02*
X177305000Y-80761000D01*
X182659000Y-80721000D02*
X177241000Y-80721000D01*
X182720000Y-80681000D02*
X177180000Y-80681000D01*
X182780000Y-80641000D02*
X177120000Y-80641000D01*
X182825000Y-70920354D02*
X182825000Y-71920354D01*
X182839000Y-80601000D02*
X177061000Y-80601000D01*
X182895000Y-80561000D02*
X177005000Y-80561000D01*
X182950000Y-80521000D02*
X176950000Y-80521000D01*
X183004000Y-80481000D02*
X176896000Y-80481000D01*
X183056000Y-80441000D02*
X176844000Y-80441000D01*
X183106000Y-80401000D02*
X176794000Y-80401000D01*
X183156000Y-80361000D02*
X176744000Y-80361000D01*
X183204000Y-80321000D02*
X176696000Y-80321000D01*
X183251000Y-80281000D02*
X176649000Y-80281000D01*
X183297000Y-80241000D02*
X176603000Y-80241000D01*
X183325000Y-71420354D02*
X182325000Y-71420354D01*
X183342000Y-80201000D02*
X176558000Y-80201000D01*
X183386000Y-80161000D02*
X176514000Y-80161000D01*
X183428000Y-80121000D02*
X181191000Y-80121000D01*
X183470000Y-80081000D02*
X181191000Y-80081000D01*
X183511000Y-80041000D02*
X181191000Y-80041000D01*
X183551000Y-80001000D02*
X181191000Y-80001000D01*
X183590000Y-79961000D02*
X181191000Y-79961000D01*
X183629000Y-79921000D02*
X181191000Y-79921000D01*
X183666000Y-79881000D02*
X181191000Y-79881000D01*
X183703000Y-79841000D02*
X181191000Y-79841000D01*
X183739000Y-79801000D02*
X181191000Y-79801000D01*
X183774000Y-79761000D02*
X181191000Y-79761000D01*
X183808000Y-79721000D02*
X181191000Y-79721000D01*
X183842000Y-79681000D02*
X181191000Y-79681000D01*
X183875000Y-79641000D02*
X181191000Y-79641000D01*
X183907000Y-79601000D02*
X181191000Y-79601000D01*
X183939000Y-79561000D02*
X181191000Y-79561000D01*
X183970000Y-79521000D02*
X181191000Y-79521000D01*
X184000000Y-79481000D02*
X181191000Y-79481000D01*
X184030000Y-79441000D02*
X181191000Y-79441000D01*
X184060000Y-79401000D02*
X181191000Y-79401000D01*
X184088000Y-79361000D02*
X181191000Y-79361000D01*
X184116000Y-79321000D02*
X181191000Y-79321000D01*
X184144000Y-79281000D02*
X181191000Y-79281000D01*
X184171000Y-79241000D02*
X181191000Y-79241000D01*
X184197000Y-79201000D02*
X181191000Y-79201000D01*
X184223000Y-79161000D02*
X181191000Y-79161000D01*
X184248000Y-79121000D02*
X181191000Y-79121000D01*
X184273000Y-79081000D02*
X181191000Y-79081000D01*
X184297000Y-79041000D02*
X181191000Y-79041000D01*
X184321000Y-79001000D02*
X181191000Y-79001000D01*
X184345000Y-78961000D02*
X181191000Y-78961000D01*
X184367000Y-78921000D02*
X181191000Y-78921000D01*
X184390000Y-78881000D02*
X181191000Y-78881000D01*
X184412000Y-78841000D02*
X181191000Y-78841000D01*
X184433000Y-78801000D02*
X181191000Y-78801000D01*
X184454000Y-78761000D02*
X181191000Y-78761000D01*
X184475000Y-78721000D02*
X181191000Y-78721000D01*
X184495000Y-78681000D02*
X181191000Y-78681000D01*
X184514000Y-78641000D02*
X181191000Y-78641000D01*
X184534000Y-78601000D02*
X181191000Y-78601000D01*
X184553000Y-78561000D02*
X181191000Y-78561000D01*
X184571000Y-78521000D02*
X181191000Y-78521000D01*
X184589000Y-78481000D02*
X181191000Y-78481000D01*
X184607000Y-78441000D02*
X181191000Y-78441000D01*
X184624000Y-78401000D02*
X181191000Y-78401000D01*
X184640000Y-78361000D02*
X181191000Y-78361000D01*
X184657000Y-78321000D02*
X181191000Y-78321000D01*
X184673000Y-78281000D02*
X181191000Y-78281000D01*
X184688000Y-78241000D02*
X181191000Y-78241000D01*
X184704000Y-78201000D02*
X181191000Y-78201000D01*
X184718000Y-78161000D02*
X181191000Y-78161000D01*
X184733000Y-78121000D02*
X181191000Y-78121000D01*
X184747000Y-78081000D02*
X181191000Y-78081000D01*
X184761000Y-78041000D02*
X181191000Y-78041000D01*
X184774000Y-78001000D02*
X181191000Y-78001000D01*
X184787000Y-77961000D02*
X181191000Y-77961000D01*
X184800000Y-77921000D02*
X181191000Y-77921000D01*
X184812000Y-77881000D02*
X181191000Y-77881000D01*
X184824000Y-77841000D02*
X181191000Y-77841000D01*
X184835000Y-77801000D02*
X181191000Y-77801000D01*
X184847000Y-77761000D02*
X181191000Y-77761000D01*
X184857000Y-77721000D02*
X181191000Y-77721000D01*
X184868000Y-77681000D02*
X181191000Y-77681000D01*
X184878000Y-77641000D02*
X175022000Y-77641000D01*
X184888000Y-77601000D02*
X175012000Y-77601000D01*
X184897000Y-77561000D02*
X175003000Y-77561000D01*
X184906000Y-77521000D02*
X174994000Y-77521000D01*
X184915000Y-77481000D02*
X174985000Y-77481000D01*
X184924000Y-77441000D02*
X174976000Y-77441000D01*
X184932000Y-77401000D02*
X174968000Y-77401000D01*
X184940000Y-77361000D02*
X174960000Y-77361000D01*
X184947000Y-77321000D02*
X174953000Y-77321000D01*
X184954000Y-77281000D02*
X174946000Y-77281000D01*
X184961000Y-77241000D02*
X174939000Y-77241000D01*
X184968000Y-77201000D02*
X174932000Y-77201000D01*
X184974000Y-77161000D02*
X174926000Y-77161000D01*
X184980000Y-77121000D02*
X174920000Y-77121000D01*
X184985000Y-77080000D02*
X174915000Y-77080000D01*
X184990000Y-77040000D02*
X174910000Y-77040000D01*
X184995000Y-77000000D02*
X174905000Y-77000000D01*
X185000000Y-76960000D02*
X174900000Y-76960000D01*
X185004000Y-76920000D02*
X174896000Y-76920000D01*
X185008000Y-76880000D02*
X174892000Y-76880000D01*
X185012000Y-76840000D02*
X174888000Y-76840000D01*
X185015000Y-76800000D02*
X174885000Y-76800000D01*
X185018000Y-76760000D02*
X174882000Y-76760000D01*
X185020000Y-76720000D02*
X174880000Y-76720000D01*
X185023000Y-76680000D02*
X174877000Y-76680000D01*
X185025000Y-76640000D02*
X174875000Y-76640000D01*
X185027000Y-76600000D02*
X174873000Y-76600000D01*
X185028000Y-76560000D02*
X174872000Y-76560000D01*
X185029000Y-76520000D02*
X174871000Y-76520000D01*
X185030000Y-76400000D02*
X174870000Y-76400000D01*
X185030000Y-76440000D02*
X174870000Y-76440000D01*
X185030000Y-76480000D02*
X174870000Y-76480000D01*
X185070000Y-76400000D02*
G75*
G02*
X174830000Y-76400000I-5120000J0D01*
G01*
X174830000Y-76400000D02*
G75*
G02*
X185070000Y-76400000I5120000J0D01*
G01*
%TO.C,J_BUCK_OUT1*%
X143830000Y-70990000D02*
X143830000Y-78610000D01*
X143830000Y-72260000D02*
X153990000Y-72260000D01*
X143830000Y-78610000D02*
X153990000Y-78610000D01*
X153990000Y-70990000D02*
X143830000Y-70990000D01*
X153990000Y-78610000D02*
X153990000Y-70990000D01*
%TO.C,R_LED1*%
X125730000Y-99570000D02*
X125730000Y-106110000D01*
X125730000Y-106110000D02*
X126060000Y-106110000D01*
X126060000Y-99570000D02*
X125730000Y-99570000D01*
X128140000Y-99570000D02*
X128470000Y-99570000D01*
X128470000Y-99570000D02*
X128470000Y-106110000D01*
X128470000Y-106110000D02*
X128140000Y-106110000D01*
%TO.C,C_BULK5*%
X121209000Y-77681000D02*
X117532000Y-77681000D01*
X121209000Y-77721000D02*
X117543000Y-77721000D01*
X121209000Y-77761000D02*
X117553000Y-77761000D01*
X121209000Y-77801000D02*
X117565000Y-77801000D01*
X121209000Y-77841000D02*
X117576000Y-77841000D01*
X121209000Y-77881000D02*
X117588000Y-77881000D01*
X121209000Y-77921000D02*
X117600000Y-77921000D01*
X121209000Y-77961000D02*
X117613000Y-77961000D01*
X121209000Y-78001000D02*
X117626000Y-78001000D01*
X121209000Y-78041000D02*
X117639000Y-78041000D01*
X121209000Y-78081000D02*
X117653000Y-78081000D01*
X121209000Y-78121000D02*
X117667000Y-78121000D01*
X121209000Y-78161000D02*
X117682000Y-78161000D01*
X121209000Y-78201000D02*
X117696000Y-78201000D01*
X121209000Y-78241000D02*
X117712000Y-78241000D01*
X121209000Y-78281000D02*
X117727000Y-78281000D01*
X121209000Y-78321000D02*
X117743000Y-78321000D01*
X121209000Y-78361000D02*
X117760000Y-78361000D01*
X121209000Y-78401000D02*
X117776000Y-78401000D01*
X121209000Y-78441000D02*
X117793000Y-78441000D01*
X121209000Y-78481000D02*
X117811000Y-78481000D01*
X121209000Y-78521000D02*
X117829000Y-78521000D01*
X121209000Y-78561000D02*
X117847000Y-78561000D01*
X121209000Y-78601000D02*
X117866000Y-78601000D01*
X121209000Y-78641000D02*
X117886000Y-78641000D01*
X121209000Y-78681000D02*
X117905000Y-78681000D01*
X121209000Y-78721000D02*
X117925000Y-78721000D01*
X121209000Y-78761000D02*
X117946000Y-78761000D01*
X121209000Y-78801000D02*
X117967000Y-78801000D01*
X121209000Y-78841000D02*
X117988000Y-78841000D01*
X121209000Y-78881000D02*
X118010000Y-78881000D01*
X121209000Y-78921000D02*
X118033000Y-78921000D01*
X121209000Y-78961000D02*
X118055000Y-78961000D01*
X121209000Y-79001000D02*
X118079000Y-79001000D01*
X121209000Y-79041000D02*
X118103000Y-79041000D01*
X121209000Y-79081000D02*
X118127000Y-79081000D01*
X121209000Y-79121000D02*
X118152000Y-79121000D01*
X121209000Y-79161000D02*
X118177000Y-79161000D01*
X121209000Y-79201000D02*
X118203000Y-79201000D01*
X121209000Y-79241000D02*
X118229000Y-79241000D01*
X121209000Y-79281000D02*
X118256000Y-79281000D01*
X121209000Y-79321000D02*
X118284000Y-79321000D01*
X121209000Y-79361000D02*
X118312000Y-79361000D01*
X121209000Y-79401000D02*
X118340000Y-79401000D01*
X121209000Y-79441000D02*
X118370000Y-79441000D01*
X121209000Y-79481000D02*
X118400000Y-79481000D01*
X121209000Y-79521000D02*
X118430000Y-79521000D01*
X121209000Y-79561000D02*
X118461000Y-79561000D01*
X121209000Y-79601000D02*
X118493000Y-79601000D01*
X121209000Y-79641000D02*
X118525000Y-79641000D01*
X121209000Y-79681000D02*
X118558000Y-79681000D01*
X121209000Y-79721000D02*
X118592000Y-79721000D01*
X121209000Y-79761000D02*
X118626000Y-79761000D01*
X121209000Y-79801000D02*
X118661000Y-79801000D01*
X121209000Y-79841000D02*
X118697000Y-79841000D01*
X121209000Y-79881000D02*
X118734000Y-79881000D01*
X121209000Y-79921000D02*
X118771000Y-79921000D01*
X121209000Y-79961000D02*
X118810000Y-79961000D01*
X121209000Y-80001000D02*
X118849000Y-80001000D01*
X121209000Y-80041000D02*
X118889000Y-80041000D01*
X121209000Y-80081000D02*
X118930000Y-80081000D01*
X121209000Y-80121000D02*
X118972000Y-80121000D01*
X123049000Y-81481000D02*
X121851000Y-81481000D01*
X123312000Y-81441000D02*
X121588000Y-81441000D01*
X123512000Y-81401000D02*
X121388000Y-81401000D01*
X123680000Y-81361000D02*
X121220000Y-81361000D01*
X123828000Y-81321000D02*
X121072000Y-81321000D01*
X123960000Y-81281000D02*
X120940000Y-81281000D01*
X124080000Y-81241000D02*
X120820000Y-81241000D01*
X124192000Y-81201000D02*
X120708000Y-81201000D01*
X124296000Y-81161000D02*
X120604000Y-81161000D01*
X124394000Y-81121000D02*
X120506000Y-81121000D01*
X124487000Y-81081000D02*
X120413000Y-81081000D01*
X124575000Y-81041000D02*
X120325000Y-81041000D01*
X124659000Y-81001000D02*
X120241000Y-81001000D01*
X124739000Y-80961000D02*
X120161000Y-80961000D01*
X124815000Y-80921000D02*
X120085000Y-80921000D01*
X124889000Y-80881000D02*
X120011000Y-80881000D01*
X124960000Y-80841000D02*
X119940000Y-80841000D01*
X125029000Y-80801000D02*
X119871000Y-80801000D01*
X125095000Y-80761000D02*
X119805000Y-80761000D01*
X125159000Y-80721000D02*
X119741000Y-80721000D01*
X125220000Y-80681000D02*
X119680000Y-80681000D01*
X125280000Y-80641000D02*
X119620000Y-80641000D01*
X125325000Y-70920354D02*
X125325000Y-71920354D01*
X125339000Y-80601000D02*
X119561000Y-80601000D01*
X125395000Y-80561000D02*
X119505000Y-80561000D01*
X125450000Y-80521000D02*
X119450000Y-80521000D01*
X125504000Y-80481000D02*
X119396000Y-80481000D01*
X125556000Y-80441000D02*
X119344000Y-80441000D01*
X125606000Y-80401000D02*
X119294000Y-80401000D01*
X125656000Y-80361000D02*
X119244000Y-80361000D01*
X125704000Y-80321000D02*
X119196000Y-80321000D01*
X125751000Y-80281000D02*
X119149000Y-80281000D01*
X125797000Y-80241000D02*
X119103000Y-80241000D01*
X125825000Y-71420354D02*
X124825000Y-71420354D01*
X125842000Y-80201000D02*
X119058000Y-80201000D01*
X125886000Y-80161000D02*
X119014000Y-80161000D01*
X125928000Y-80121000D02*
X123691000Y-80121000D01*
X125970000Y-80081000D02*
X123691000Y-80081000D01*
X126011000Y-80041000D02*
X123691000Y-80041000D01*
X126051000Y-80001000D02*
X123691000Y-80001000D01*
X126090000Y-79961000D02*
X123691000Y-79961000D01*
X126129000Y-79921000D02*
X123691000Y-79921000D01*
X126166000Y-79881000D02*
X123691000Y-79881000D01*
X126203000Y-79841000D02*
X123691000Y-79841000D01*
X126239000Y-79801000D02*
X123691000Y-79801000D01*
X126274000Y-79761000D02*
X123691000Y-79761000D01*
X126308000Y-79721000D02*
X123691000Y-79721000D01*
X126342000Y-79681000D02*
X123691000Y-79681000D01*
X126375000Y-79641000D02*
X123691000Y-79641000D01*
X126407000Y-79601000D02*
X123691000Y-79601000D01*
X126439000Y-79561000D02*
X123691000Y-79561000D01*
X126470000Y-79521000D02*
X123691000Y-79521000D01*
X126500000Y-79481000D02*
X123691000Y-79481000D01*
X126530000Y-79441000D02*
X123691000Y-79441000D01*
X126560000Y-79401000D02*
X123691000Y-79401000D01*
X126588000Y-79361000D02*
X123691000Y-79361000D01*
X126616000Y-79321000D02*
X123691000Y-79321000D01*
X126644000Y-79281000D02*
X123691000Y-79281000D01*
X126671000Y-79241000D02*
X123691000Y-79241000D01*
X126697000Y-79201000D02*
X123691000Y-79201000D01*
X126723000Y-79161000D02*
X123691000Y-79161000D01*
X126748000Y-79121000D02*
X123691000Y-79121000D01*
X126773000Y-79081000D02*
X123691000Y-79081000D01*
X126797000Y-79041000D02*
X123691000Y-79041000D01*
X126821000Y-79001000D02*
X123691000Y-79001000D01*
X126845000Y-78961000D02*
X123691000Y-78961000D01*
X126867000Y-78921000D02*
X123691000Y-78921000D01*
X126890000Y-78881000D02*
X123691000Y-78881000D01*
X126912000Y-78841000D02*
X123691000Y-78841000D01*
X126933000Y-78801000D02*
X123691000Y-78801000D01*
X126954000Y-78761000D02*
X123691000Y-78761000D01*
X126975000Y-78721000D02*
X123691000Y-78721000D01*
X126995000Y-78681000D02*
X123691000Y-78681000D01*
X127014000Y-78641000D02*
X123691000Y-78641000D01*
X127034000Y-78601000D02*
X123691000Y-78601000D01*
X127053000Y-78561000D02*
X123691000Y-78561000D01*
X127071000Y-78521000D02*
X123691000Y-78521000D01*
X127089000Y-78481000D02*
X123691000Y-78481000D01*
X127107000Y-78441000D02*
X123691000Y-78441000D01*
X127124000Y-78401000D02*
X123691000Y-78401000D01*
X127140000Y-78361000D02*
X123691000Y-78361000D01*
X127157000Y-78321000D02*
X123691000Y-78321000D01*
X127173000Y-78281000D02*
X123691000Y-78281000D01*
X127188000Y-78241000D02*
X123691000Y-78241000D01*
X127204000Y-78201000D02*
X123691000Y-78201000D01*
X127218000Y-78161000D02*
X123691000Y-78161000D01*
X127233000Y-78121000D02*
X123691000Y-78121000D01*
X127247000Y-78081000D02*
X123691000Y-78081000D01*
X127261000Y-78041000D02*
X123691000Y-78041000D01*
X127274000Y-78001000D02*
X123691000Y-78001000D01*
X127287000Y-77961000D02*
X123691000Y-77961000D01*
X127300000Y-77921000D02*
X123691000Y-77921000D01*
X127312000Y-77881000D02*
X123691000Y-77881000D01*
X127324000Y-77841000D02*
X123691000Y-77841000D01*
X127335000Y-77801000D02*
X123691000Y-77801000D01*
X127347000Y-77761000D02*
X123691000Y-77761000D01*
X127357000Y-77721000D02*
X123691000Y-77721000D01*
X127368000Y-77681000D02*
X123691000Y-77681000D01*
X127378000Y-77641000D02*
X117522000Y-77641000D01*
X127388000Y-77601000D02*
X117512000Y-77601000D01*
X127397000Y-77561000D02*
X117503000Y-77561000D01*
X127406000Y-77521000D02*
X117494000Y-77521000D01*
X127415000Y-77481000D02*
X117485000Y-77481000D01*
X127424000Y-77441000D02*
X117476000Y-77441000D01*
X127432000Y-77401000D02*
X117468000Y-77401000D01*
X127440000Y-77361000D02*
X117460000Y-77361000D01*
X127447000Y-77321000D02*
X117453000Y-77321000D01*
X127454000Y-77281000D02*
X117446000Y-77281000D01*
X127461000Y-77241000D02*
X117439000Y-77241000D01*
X127468000Y-77201000D02*
X117432000Y-77201000D01*
X127474000Y-77161000D02*
X117426000Y-77161000D01*
X127480000Y-77121000D02*
X117420000Y-77121000D01*
X127485000Y-77080000D02*
X117415000Y-77080000D01*
X127490000Y-77040000D02*
X117410000Y-77040000D01*
X127495000Y-77000000D02*
X117405000Y-77000000D01*
X127500000Y-76960000D02*
X117400000Y-76960000D01*
X127504000Y-76920000D02*
X117396000Y-76920000D01*
X127508000Y-76880000D02*
X117392000Y-76880000D01*
X127512000Y-76840000D02*
X117388000Y-76840000D01*
X127515000Y-76800000D02*
X117385000Y-76800000D01*
X127518000Y-76760000D02*
X117382000Y-76760000D01*
X127520000Y-76720000D02*
X117380000Y-76720000D01*
X127523000Y-76680000D02*
X117377000Y-76680000D01*
X127525000Y-76640000D02*
X117375000Y-76640000D01*
X127527000Y-76600000D02*
X117373000Y-76600000D01*
X127528000Y-76560000D02*
X117372000Y-76560000D01*
X127529000Y-76520000D02*
X117371000Y-76520000D01*
X127530000Y-76400000D02*
X117370000Y-76400000D01*
X127530000Y-76440000D02*
X117370000Y-76440000D01*
X127530000Y-76480000D02*
X117370000Y-76480000D01*
X127570000Y-76400000D02*
G75*
G02*
X117330000Y-76400000I-5120000J0D01*
G01*
X117330000Y-76400000D02*
G75*
G02*
X127570000Y-76400000I5120000J0D01*
G01*
%TO.C,C_BYPASS6*%
X121721000Y-86730000D02*
X122979000Y-86730000D01*
X121721000Y-88570000D02*
X122979000Y-88570000D01*
%TO.C,J_VMOT5*%
X131340000Y-109340000D02*
X131340000Y-115460000D01*
X131340000Y-115460000D02*
X136060000Y-115460000D01*
X131950000Y-109950000D02*
X131950000Y-114850000D01*
X131950000Y-112300000D02*
X132450000Y-112300000D01*
X131950000Y-112400000D02*
X132450000Y-112400000D01*
X131950000Y-114850000D02*
X135450000Y-114850000D01*
X132450000Y-112300000D02*
X132450000Y-112500000D01*
X132450000Y-112500000D02*
X131950000Y-112500000D01*
X133450000Y-109340000D02*
X133450000Y-109950000D01*
X133450000Y-115460000D02*
X133450000Y-114850000D01*
X134750000Y-109340000D02*
X134750000Y-109950000D01*
X134750000Y-115460000D02*
X134750000Y-114850000D01*
X135450000Y-109950000D02*
X131950000Y-109950000D01*
X135450000Y-111900000D02*
X135450000Y-109950000D01*
X135450000Y-112900000D02*
X136060000Y-112900000D01*
X135450000Y-114850000D02*
X135450000Y-112900000D01*
X136060000Y-109340000D02*
X131340000Y-109340000D01*
X136060000Y-111100000D02*
X136260000Y-111100000D01*
X136060000Y-111900000D02*
X135450000Y-111900000D01*
X136060000Y-115460000D02*
X136060000Y-109340000D01*
X136160000Y-111100000D02*
X136160000Y-110800000D01*
X136260000Y-110800000D02*
X136060000Y-110800000D01*
X136260000Y-111100000D02*
X136260000Y-110800000D01*
X136360000Y-109040000D02*
X135110000Y-109040000D01*
X136360000Y-110290000D02*
X136360000Y-109040000D01*
%TO.C,C_BYPASS5*%
X179571000Y-90580000D02*
X180829000Y-90580000D01*
X179571000Y-92420000D02*
X180829000Y-92420000D01*
%TO.C,J_UBEC_IN1*%
X166910000Y-117340000D02*
X166910000Y-124960000D01*
X166910000Y-124960000D02*
X177070000Y-124960000D01*
X177070000Y-117340000D02*
X166910000Y-117340000D01*
X177070000Y-123690000D02*
X166910000Y-123690000D01*
X177070000Y-124960000D02*
X177070000Y-117340000D01*
%TO.C,J_BUCK_IN1*%
X178910000Y-117340000D02*
X178910000Y-124960000D01*
X178910000Y-124960000D02*
X189070000Y-124960000D01*
X189070000Y-117340000D02*
X178910000Y-117340000D01*
X189070000Y-123690000D02*
X178910000Y-123690000D01*
X189070000Y-124960000D02*
X189070000Y-117340000D01*
%TO.C,J_DRV_SIG2*%
X134190000Y-75090000D02*
X134190000Y-91210000D01*
X134190000Y-91210000D02*
X138910000Y-91210000D01*
X134800000Y-75700000D02*
X134800000Y-90600000D01*
X134800000Y-78050000D02*
X135300000Y-78050000D01*
X134800000Y-78150000D02*
X135300000Y-78150000D01*
X134800000Y-80050000D02*
X135300000Y-80050000D01*
X134800000Y-80150000D02*
X135300000Y-80150000D01*
X134800000Y-82050000D02*
X135300000Y-82050000D01*
X134800000Y-82150000D02*
X135300000Y-82150000D01*
X134800000Y-84050000D02*
X135300000Y-84050000D01*
X134800000Y-84150000D02*
X135300000Y-84150000D01*
X134800000Y-86050000D02*
X135300000Y-86050000D01*
X134800000Y-86150000D02*
X135300000Y-86150000D01*
X134800000Y-88050000D02*
X135300000Y-88050000D01*
X134800000Y-88150000D02*
X135300000Y-88150000D01*
X134800000Y-90600000D02*
X138300000Y-90600000D01*
X135300000Y-78050000D02*
X135300000Y-78250000D01*
X135300000Y-78250000D02*
X134800000Y-78250000D01*
X135300000Y-80050000D02*
X135300000Y-80250000D01*
X135300000Y-80250000D02*
X134800000Y-80250000D01*
X135300000Y-82050000D02*
X135300000Y-82250000D01*
X135300000Y-82250000D02*
X134800000Y-82250000D01*
X135300000Y-84050000D02*
X135300000Y-84250000D01*
X135300000Y-84250000D02*
X134800000Y-84250000D01*
X135300000Y-86050000D02*
X135300000Y-86250000D01*
X135300000Y-86250000D02*
X134800000Y-86250000D01*
X135300000Y-88050000D02*
X135300000Y-88250000D01*
X135300000Y-88250000D02*
X134800000Y-88250000D01*
X136300000Y-75090000D02*
X136300000Y-75700000D01*
X136300000Y-91210000D02*
X136300000Y-90600000D01*
X137600000Y-75090000D02*
X137600000Y-75700000D01*
X137600000Y-91210000D02*
X137600000Y-90600000D01*
X138300000Y-75700000D02*
X134800000Y-75700000D01*
X138300000Y-77650000D02*
X138300000Y-75700000D01*
X138300000Y-88650000D02*
X138910000Y-88650000D01*
X138300000Y-90600000D02*
X138300000Y-88650000D01*
X138910000Y-75090000D02*
X134190000Y-75090000D01*
X138910000Y-76850000D02*
X139110000Y-76850000D01*
X138910000Y-77650000D02*
X138300000Y-77650000D01*
X138910000Y-91210000D02*
X138910000Y-75090000D01*
X139010000Y-76850000D02*
X139010000Y-76550000D01*
X139110000Y-76550000D02*
X138910000Y-76550000D01*
X139110000Y-76850000D02*
X139110000Y-76550000D01*
X139210000Y-74790000D02*
X137960000Y-74790000D01*
X139210000Y-76040000D02*
X139210000Y-74790000D01*
%TO.C,C_BULK2*%
X116870000Y-110972651D02*
X125030000Y-110972651D01*
X116870000Y-111012651D02*
X125030000Y-111012651D01*
X116870000Y-111052651D02*
X125030000Y-111052651D01*
X116871000Y-110932651D02*
X125029000Y-110932651D01*
X116873000Y-110892651D02*
X125027000Y-110892651D01*
X116874000Y-110852651D02*
X125026000Y-110852651D01*
X116876000Y-110812651D02*
X125024000Y-110812651D01*
X116879000Y-110772651D02*
X125021000Y-110772651D01*
X116882000Y-110732651D02*
X125018000Y-110732651D01*
X116885000Y-110692651D02*
X125015000Y-110692651D01*
X116889000Y-110652651D02*
X125011000Y-110652651D01*
X116893000Y-110612651D02*
X125007000Y-110612651D01*
X116898000Y-110572651D02*
X125002000Y-110572651D01*
X116902000Y-110532651D02*
X124998000Y-110532651D01*
X116908000Y-110492651D02*
X124992000Y-110492651D01*
X116913000Y-110452651D02*
X124987000Y-110452651D01*
X116920000Y-110412651D02*
X124980000Y-110412651D01*
X116926000Y-110372651D02*
X124974000Y-110372651D01*
X116933000Y-110331651D02*
X119910000Y-110331651D01*
X116940000Y-110291651D02*
X119910000Y-110291651D01*
X116948000Y-110251651D02*
X119910000Y-110251651D01*
X116956000Y-110211651D02*
X119910000Y-110211651D01*
X116965000Y-110171651D02*
X119910000Y-110171651D01*
X116974000Y-110131651D02*
X119910000Y-110131651D01*
X116983000Y-110091651D02*
X119910000Y-110091651D01*
X116993000Y-110051651D02*
X119910000Y-110051651D01*
X117003000Y-110011651D02*
X119910000Y-110011651D01*
X117014000Y-109971651D02*
X119910000Y-109971651D01*
X117025000Y-109931651D02*
X119910000Y-109931651D01*
X117036000Y-109891651D02*
X119910000Y-109891651D01*
X117048000Y-109851651D02*
X119910000Y-109851651D01*
X117061000Y-109811651D02*
X119910000Y-109811651D01*
X117073000Y-109771651D02*
X119910000Y-109771651D01*
X117087000Y-109731651D02*
X119910000Y-109731651D01*
X117100000Y-109691651D02*
X119910000Y-109691651D01*
X117115000Y-109651651D02*
X119910000Y-109651651D01*
X117129000Y-109611651D02*
X119910000Y-109611651D01*
X117145000Y-109571651D02*
X119910000Y-109571651D01*
X117160000Y-109531651D02*
X119910000Y-109531651D01*
X117176000Y-109491651D02*
X119910000Y-109491651D01*
X117193000Y-109451651D02*
X119910000Y-109451651D01*
X117210000Y-109411651D02*
X119910000Y-109411651D01*
X117228000Y-109371651D02*
X119910000Y-109371651D01*
X117246000Y-109331651D02*
X119910000Y-109331651D01*
X117264000Y-109291651D02*
X119910000Y-109291651D01*
X117284000Y-109251651D02*
X119910000Y-109251651D01*
X117303000Y-109211651D02*
X119910000Y-109211651D01*
X117323000Y-109171651D02*
X119910000Y-109171651D01*
X117344000Y-109131651D02*
X119910000Y-109131651D01*
X117366000Y-109091651D02*
X119910000Y-109091651D01*
X117388000Y-109051651D02*
X119910000Y-109051651D01*
X117410000Y-109011651D02*
X119910000Y-109011651D01*
X117433000Y-108971651D02*
X119910000Y-108971651D01*
X117457000Y-108931651D02*
X119910000Y-108931651D01*
X117481000Y-108891651D02*
X119910000Y-108891651D01*
X117506000Y-108851651D02*
X119910000Y-108851651D01*
X117532000Y-108811651D02*
X119910000Y-108811651D01*
X117558000Y-108771651D02*
X119910000Y-108771651D01*
X117585000Y-108731651D02*
X119910000Y-108731651D01*
X117612000Y-108691651D02*
X119910000Y-108691651D01*
X117641000Y-108651651D02*
X119910000Y-108651651D01*
X117670000Y-108611651D02*
X119910000Y-108611651D01*
X117700000Y-108571651D02*
X119910000Y-108571651D01*
X117730000Y-108531651D02*
X119910000Y-108531651D01*
X117761000Y-108491651D02*
X119910000Y-108491651D01*
X117794000Y-108451651D02*
X119910000Y-108451651D01*
X117826000Y-108411651D02*
X119910000Y-108411651D01*
X117860000Y-108371651D02*
X119910000Y-108371651D01*
X117895000Y-108331651D02*
X119910000Y-108331651D01*
X117931000Y-108291651D02*
X119910000Y-108291651D01*
X117967000Y-108251651D02*
X123933000Y-108251651D01*
X118005000Y-108211651D02*
X123895000Y-108211651D01*
X118043000Y-108171651D02*
X123857000Y-108171651D01*
X118083000Y-108131651D02*
X123817000Y-108131651D01*
X118124000Y-108091651D02*
X123776000Y-108091651D01*
X118166000Y-108051651D02*
X123734000Y-108051651D01*
X118209000Y-108011651D02*
X123691000Y-108011651D01*
X118235000Y-115062349D02*
X119035000Y-115062349D01*
X118253000Y-107971651D02*
X123647000Y-107971651D01*
X118299000Y-107931651D02*
X123601000Y-107931651D01*
X118346000Y-107891651D02*
X123554000Y-107891651D01*
X118394000Y-107851651D02*
X123506000Y-107851651D01*
X118445000Y-107811651D02*
X123455000Y-107811651D01*
X118496000Y-107771651D02*
X123404000Y-107771651D01*
X118550000Y-107731651D02*
X123350000Y-107731651D01*
X118605000Y-107691651D02*
X123295000Y-107691651D01*
X118635000Y-115462349D02*
X118635000Y-114662349D01*
X118663000Y-107651651D02*
X123237000Y-107651651D01*
X118722000Y-107611651D02*
X123178000Y-107611651D01*
X118784000Y-107571651D02*
X123116000Y-107571651D01*
X118848000Y-107531651D02*
X123052000Y-107531651D01*
X118916000Y-107491651D02*
X122984000Y-107491651D01*
X118986000Y-107451651D02*
X122914000Y-107451651D01*
X119060000Y-107411651D02*
X122840000Y-107411651D01*
X119137000Y-107371651D02*
X122763000Y-107371651D01*
X119219000Y-107331651D02*
X122681000Y-107331651D01*
X119305000Y-107291651D02*
X122595000Y-107291651D01*
X119398000Y-107251651D02*
X122502000Y-107251651D01*
X119497000Y-107211651D02*
X122403000Y-107211651D01*
X119604000Y-107171651D02*
X122296000Y-107171651D01*
X119721000Y-107131651D02*
X122179000Y-107131651D01*
X119852000Y-107091651D02*
X122048000Y-107091651D01*
X120002000Y-107051651D02*
X121898000Y-107051651D01*
X120182000Y-107011651D02*
X121718000Y-107011651D01*
X120417000Y-106971651D02*
X121483000Y-106971651D01*
X121990000Y-108291651D02*
X123969000Y-108291651D01*
X121990000Y-108331651D02*
X124005000Y-108331651D01*
X121990000Y-108371651D02*
X124040000Y-108371651D01*
X121990000Y-108411651D02*
X124074000Y-108411651D01*
X121990000Y-108451651D02*
X124106000Y-108451651D01*
X121990000Y-108491651D02*
X124139000Y-108491651D01*
X121990000Y-108531651D02*
X124170000Y-108531651D01*
X121990000Y-108571651D02*
X124200000Y-108571651D01*
X121990000Y-108611651D02*
X124230000Y-108611651D01*
X121990000Y-108651651D02*
X124259000Y-108651651D01*
X121990000Y-108691651D02*
X124288000Y-108691651D01*
X121990000Y-108731651D02*
X124315000Y-108731651D01*
X121990000Y-108771651D02*
X124342000Y-108771651D01*
X121990000Y-108811651D02*
X124368000Y-108811651D01*
X121990000Y-108851651D02*
X124394000Y-108851651D01*
X121990000Y-108891651D02*
X124419000Y-108891651D01*
X121990000Y-108931651D02*
X124443000Y-108931651D01*
X121990000Y-108971651D02*
X124467000Y-108971651D01*
X121990000Y-109011651D02*
X124490000Y-109011651D01*
X121990000Y-109051651D02*
X124512000Y-109051651D01*
X121990000Y-109091651D02*
X124534000Y-109091651D01*
X121990000Y-109131651D02*
X124556000Y-109131651D01*
X121990000Y-109171651D02*
X124577000Y-109171651D01*
X121990000Y-109211651D02*
X124597000Y-109211651D01*
X121990000Y-109251651D02*
X124616000Y-109251651D01*
X121990000Y-109291651D02*
X124636000Y-109291651D01*
X121990000Y-109331651D02*
X124654000Y-109331651D01*
X121990000Y-109371651D02*
X124672000Y-109371651D01*
X121990000Y-109411651D02*
X124690000Y-109411651D01*
X121990000Y-109451651D02*
X124707000Y-109451651D01*
X121990000Y-109491651D02*
X124724000Y-109491651D01*
X121990000Y-109531651D02*
X124740000Y-109531651D01*
X121990000Y-109571651D02*
X124755000Y-109571651D01*
X121990000Y-109611651D02*
X124771000Y-109611651D01*
X121990000Y-109651651D02*
X124785000Y-109651651D01*
X121990000Y-109691651D02*
X124800000Y-109691651D01*
X121990000Y-109731651D02*
X124813000Y-109731651D01*
X121990000Y-109771651D02*
X124827000Y-109771651D01*
X121990000Y-109811651D02*
X124839000Y-109811651D01*
X121990000Y-109851651D02*
X124852000Y-109851651D01*
X121990000Y-109891651D02*
X124864000Y-109891651D01*
X121990000Y-109931651D02*
X124875000Y-109931651D01*
X121990000Y-109971651D02*
X124886000Y-109971651D01*
X121990000Y-110011651D02*
X124897000Y-110011651D01*
X121990000Y-110051651D02*
X124907000Y-110051651D01*
X121990000Y-110091651D02*
X124917000Y-110091651D01*
X121990000Y-110131651D02*
X124926000Y-110131651D01*
X121990000Y-110171651D02*
X124935000Y-110171651D01*
X121990000Y-110211651D02*
X124944000Y-110211651D01*
X121990000Y-110251651D02*
X124952000Y-110251651D01*
X121990000Y-110291651D02*
X124960000Y-110291651D01*
X121990000Y-110331651D02*
X124967000Y-110331651D01*
X125070000Y-111052651D02*
G75*
G02*
X116830000Y-111052651I-4120000J0D01*
G01*
X116830000Y-111052651D02*
G75*
G02*
X125070000Y-111052651I4120000J0D01*
G01*
%TO.C,C_BYPASS1*%
X126030000Y-112279000D02*
X126030000Y-111021000D01*
X127870000Y-112279000D02*
X127870000Y-111021000D01*
%TO.C,J_LOGIC1*%
X106290000Y-95860000D02*
X106290000Y-106020000D01*
X106290000Y-106020000D02*
X113910000Y-106020000D01*
X107560000Y-106020000D02*
X107560000Y-95860000D01*
X113910000Y-95860000D02*
X106290000Y-95860000D01*
X113910000Y-106020000D02*
X113910000Y-95860000D01*
%TO.C,J_MOTOR1*%
X106290000Y-107610000D02*
X106290000Y-117770000D01*
X106290000Y-117770000D02*
X113910000Y-117770000D01*
X107560000Y-117770000D02*
X107560000Y-107610000D01*
X113910000Y-107610000D02*
X106290000Y-107610000D01*
X113910000Y-117770000D02*
X113910000Y-107610000D01*
%TO.C,C_BYPASS4*%
X179571000Y-85830000D02*
X180829000Y-85830000D01*
X179571000Y-87670000D02*
X180829000Y-87670000D01*
%TO.C,C_BYPASS7*%
X121471000Y-90730000D02*
X122729000Y-90730000D01*
X121471000Y-92570000D02*
X122729000Y-92570000D01*
%TO.C,J_UBEC_OUT1*%
X118480000Y-117340000D02*
X118480000Y-124960000D01*
X118480000Y-124960000D02*
X128640000Y-124960000D01*
X128640000Y-117340000D02*
X118480000Y-117340000D01*
X128640000Y-123690000D02*
X118480000Y-123690000D01*
X128640000Y-124960000D02*
X128640000Y-117340000D01*
%TO.C,D_LED1*%
X123145000Y-100490000D02*
X120055000Y-100490000D01*
X121599952Y-106040000D02*
G75*
G02*
X120055170Y-100490000I48J2990000D01*
G01*
X123144830Y-100490000D02*
G75*
G02*
X121600048Y-106040000I-1544830J-2560000D01*
G01*
X124100000Y-103050000D02*
G75*
G02*
X119100000Y-103050000I-2500000J0D01*
G01*
X119100000Y-103050000D02*
G75*
G02*
X124100000Y-103050000I2500000J0D01*
G01*
%TO.C,J_LiPo1*%
X185080000Y-97530000D02*
X185080000Y-101100000D01*
X185080000Y-101700000D02*
X185080000Y-112770000D01*
X185800000Y-97530000D02*
X185800000Y-112770000D01*
X187700000Y-97530000D02*
X187700000Y-112770000D01*
X189333000Y-107760000D02*
X189290000Y-107716000D01*
X189560000Y-107533000D02*
X189517000Y-107489000D01*
X191884000Y-110311000D02*
X191840000Y-110267000D01*
X192111000Y-110084000D02*
X192067000Y-110040000D01*
X194300000Y-97530000D02*
X194300000Y-112770000D01*
X196320000Y-97530000D02*
X185080000Y-97530000D01*
X196320000Y-97530000D02*
X196320000Y-112770000D01*
X196320000Y-112770000D02*
X185080000Y-112770000D01*
X188920000Y-101940000D02*
G75*
G02*
X188919794Y-100860679I1780013J540000D01*
G01*
X190160000Y-99620000D02*
G75*
G02*
X191239321Y-99619794I540000J-1780000D01*
G01*
X191240000Y-103180000D02*
G75*
G02*
X190160679Y-103180206I-540000J1780013D01*
G01*
X192480000Y-100860000D02*
G75*
G02*
X192480206Y-101939321I-1780000J-540000D01*
G01*
X192560000Y-108900000D02*
G75*
G02*
X188840000Y-108900000I-1860000J0D01*
G01*
X188840000Y-108900000D02*
G75*
G02*
X192560000Y-108900000I1860000J0D01*
G01*
X185080000Y-101400000D02*
X184470000Y-101840000D01*
X184470000Y-100960000D01*
X185080000Y-101400000D01*
G36*
X185080000Y-101400000D02*
G01*
X184470000Y-101840000D01*
X184470000Y-100960000D01*
X185080000Y-101400000D01*
G37*
%TO.C,D_LED2*%
X144505000Y-95430000D02*
X147595000Y-95430000D01*
X144505170Y-95430000D02*
G75*
G02*
X146049952Y-89880000I1544830J2560000D01*
G01*
X146050048Y-89880000D02*
G75*
G02*
X147594830Y-95430000I-48J-2990000D01*
G01*
X148550000Y-92870000D02*
G75*
G02*
X143550000Y-92870000I-2500000J0D01*
G01*
X143550000Y-92870000D02*
G75*
G02*
X148550000Y-92870000I2500000J0D01*
G01*
%TO.C,C_BULK1*%
X176639000Y-111781000D02*
X172962000Y-111781000D01*
X176639000Y-111821000D02*
X172973000Y-111821000D01*
X176639000Y-111861000D02*
X172983000Y-111861000D01*
X176639000Y-111901000D02*
X172995000Y-111901000D01*
X176639000Y-111941000D02*
X173006000Y-111941000D01*
X176639000Y-111981000D02*
X173018000Y-111981000D01*
X176639000Y-112021000D02*
X173030000Y-112021000D01*
X176639000Y-112061000D02*
X173043000Y-112061000D01*
X176639000Y-112101000D02*
X173056000Y-112101000D01*
X176639000Y-112141000D02*
X173069000Y-112141000D01*
X176639000Y-112181000D02*
X173083000Y-112181000D01*
X176639000Y-112221000D02*
X173097000Y-112221000D01*
X176639000Y-112261000D02*
X173112000Y-112261000D01*
X176639000Y-112301000D02*
X173126000Y-112301000D01*
X176639000Y-112341000D02*
X173142000Y-112341000D01*
X176639000Y-112381000D02*
X173157000Y-112381000D01*
X176639000Y-112421000D02*
X173173000Y-112421000D01*
X176639000Y-112461000D02*
X173190000Y-112461000D01*
X176639000Y-112501000D02*
X173206000Y-112501000D01*
X176639000Y-112541000D02*
X173223000Y-112541000D01*
X176639000Y-112581000D02*
X173241000Y-112581000D01*
X176639000Y-112621000D02*
X173259000Y-112621000D01*
X176639000Y-112661000D02*
X173277000Y-112661000D01*
X176639000Y-112701000D02*
X173296000Y-112701000D01*
X176639000Y-112741000D02*
X173316000Y-112741000D01*
X176639000Y-112781000D02*
X173335000Y-112781000D01*
X176639000Y-112821000D02*
X173355000Y-112821000D01*
X176639000Y-112861000D02*
X173376000Y-112861000D01*
X176639000Y-112901000D02*
X173397000Y-112901000D01*
X176639000Y-112941000D02*
X173418000Y-112941000D01*
X176639000Y-112981000D02*
X173440000Y-112981000D01*
X176639000Y-113021000D02*
X173463000Y-113021000D01*
X176639000Y-113061000D02*
X173485000Y-113061000D01*
X176639000Y-113101000D02*
X173509000Y-113101000D01*
X176639000Y-113141000D02*
X173533000Y-113141000D01*
X176639000Y-113181000D02*
X173557000Y-113181000D01*
X176639000Y-113221000D02*
X173582000Y-113221000D01*
X176639000Y-113261000D02*
X173607000Y-113261000D01*
X176639000Y-113301000D02*
X173633000Y-113301000D01*
X176639000Y-113341000D02*
X173659000Y-113341000D01*
X176639000Y-113381000D02*
X173686000Y-113381000D01*
X176639000Y-113421000D02*
X173714000Y-113421000D01*
X176639000Y-113461000D02*
X173742000Y-113461000D01*
X176639000Y-113501000D02*
X173770000Y-113501000D01*
X176639000Y-113541000D02*
X173800000Y-113541000D01*
X176639000Y-113581000D02*
X173830000Y-113581000D01*
X176639000Y-113621000D02*
X173860000Y-113621000D01*
X176639000Y-113661000D02*
X173891000Y-113661000D01*
X176639000Y-113701000D02*
X173923000Y-113701000D01*
X176639000Y-113741000D02*
X173955000Y-113741000D01*
X176639000Y-113781000D02*
X173988000Y-113781000D01*
X176639000Y-113821000D02*
X174022000Y-113821000D01*
X176639000Y-113861000D02*
X174056000Y-113861000D01*
X176639000Y-113901000D02*
X174091000Y-113901000D01*
X176639000Y-113941000D02*
X174127000Y-113941000D01*
X176639000Y-113981000D02*
X174164000Y-113981000D01*
X176639000Y-114021000D02*
X174201000Y-114021000D01*
X176639000Y-114061000D02*
X174240000Y-114061000D01*
X176639000Y-114101000D02*
X174279000Y-114101000D01*
X176639000Y-114141000D02*
X174319000Y-114141000D01*
X176639000Y-114181000D02*
X174360000Y-114181000D01*
X176639000Y-114221000D02*
X174402000Y-114221000D01*
X178479000Y-115581000D02*
X177281000Y-115581000D01*
X178742000Y-115541000D02*
X177018000Y-115541000D01*
X178942000Y-115501000D02*
X176818000Y-115501000D01*
X179110000Y-115461000D02*
X176650000Y-115461000D01*
X179258000Y-115421000D02*
X176502000Y-115421000D01*
X179390000Y-115381000D02*
X176370000Y-115381000D01*
X179510000Y-115341000D02*
X176250000Y-115341000D01*
X179622000Y-115301000D02*
X176138000Y-115301000D01*
X179726000Y-115261000D02*
X176034000Y-115261000D01*
X179824000Y-115221000D02*
X175936000Y-115221000D01*
X179917000Y-115181000D02*
X175843000Y-115181000D01*
X180005000Y-115141000D02*
X175755000Y-115141000D01*
X180089000Y-115101000D02*
X175671000Y-115101000D01*
X180169000Y-115061000D02*
X175591000Y-115061000D01*
X180245000Y-115021000D02*
X175515000Y-115021000D01*
X180319000Y-114981000D02*
X175441000Y-114981000D01*
X180390000Y-114941000D02*
X175370000Y-114941000D01*
X180459000Y-114901000D02*
X175301000Y-114901000D01*
X180525000Y-114861000D02*
X175235000Y-114861000D01*
X180589000Y-114821000D02*
X175171000Y-114821000D01*
X180650000Y-114781000D02*
X175110000Y-114781000D01*
X180710000Y-114741000D02*
X175050000Y-114741000D01*
X180755000Y-105020354D02*
X180755000Y-106020354D01*
X180769000Y-114701000D02*
X174991000Y-114701000D01*
X180825000Y-114661000D02*
X174935000Y-114661000D01*
X180880000Y-114621000D02*
X174880000Y-114621000D01*
X180934000Y-114581000D02*
X174826000Y-114581000D01*
X180986000Y-114541000D02*
X174774000Y-114541000D01*
X181036000Y-114501000D02*
X174724000Y-114501000D01*
X181086000Y-114461000D02*
X174674000Y-114461000D01*
X181134000Y-114421000D02*
X174626000Y-114421000D01*
X181181000Y-114381000D02*
X174579000Y-114381000D01*
X181227000Y-114341000D02*
X174533000Y-114341000D01*
X181255000Y-105520354D02*
X180255000Y-105520354D01*
X181272000Y-114301000D02*
X174488000Y-114301000D01*
X181316000Y-114261000D02*
X174444000Y-114261000D01*
X181358000Y-114221000D02*
X179121000Y-114221000D01*
X181400000Y-114181000D02*
X179121000Y-114181000D01*
X181441000Y-114141000D02*
X179121000Y-114141000D01*
X181481000Y-114101000D02*
X179121000Y-114101000D01*
X181520000Y-114061000D02*
X179121000Y-114061000D01*
X181559000Y-114021000D02*
X179121000Y-114021000D01*
X181596000Y-113981000D02*
X179121000Y-113981000D01*
X181633000Y-113941000D02*
X179121000Y-113941000D01*
X181669000Y-113901000D02*
X179121000Y-113901000D01*
X181704000Y-113861000D02*
X179121000Y-113861000D01*
X181738000Y-113821000D02*
X179121000Y-113821000D01*
X181772000Y-113781000D02*
X179121000Y-113781000D01*
X181805000Y-113741000D02*
X179121000Y-113741000D01*
X181837000Y-113701000D02*
X179121000Y-113701000D01*
X181869000Y-113661000D02*
X179121000Y-113661000D01*
X181900000Y-113621000D02*
X179121000Y-113621000D01*
X181930000Y-113581000D02*
X179121000Y-113581000D01*
X181960000Y-113541000D02*
X179121000Y-113541000D01*
X181990000Y-113501000D02*
X179121000Y-113501000D01*
X182018000Y-113461000D02*
X179121000Y-113461000D01*
X182046000Y-113421000D02*
X179121000Y-113421000D01*
X182074000Y-113381000D02*
X179121000Y-113381000D01*
X182101000Y-113341000D02*
X179121000Y-113341000D01*
X182127000Y-113301000D02*
X179121000Y-113301000D01*
X182153000Y-113261000D02*
X179121000Y-113261000D01*
X182178000Y-113221000D02*
X179121000Y-113221000D01*
X182203000Y-113181000D02*
X179121000Y-113181000D01*
X182227000Y-113141000D02*
X179121000Y-113141000D01*
X182251000Y-113101000D02*
X179121000Y-113101000D01*
X182275000Y-113061000D02*
X179121000Y-113061000D01*
X182297000Y-113021000D02*
X179121000Y-113021000D01*
X182320000Y-112981000D02*
X179121000Y-112981000D01*
X182342000Y-112941000D02*
X179121000Y-112941000D01*
X182363000Y-112901000D02*
X179121000Y-112901000D01*
X182384000Y-112861000D02*
X179121000Y-112861000D01*
X182405000Y-112821000D02*
X179121000Y-112821000D01*
X182425000Y-112781000D02*
X179121000Y-112781000D01*
X182444000Y-112741000D02*
X179121000Y-112741000D01*
X182464000Y-112701000D02*
X179121000Y-112701000D01*
X182483000Y-112661000D02*
X179121000Y-112661000D01*
X182501000Y-112621000D02*
X179121000Y-112621000D01*
X182519000Y-112581000D02*
X179121000Y-112581000D01*
X182537000Y-112541000D02*
X179121000Y-112541000D01*
X182554000Y-112501000D02*
X179121000Y-112501000D01*
X182570000Y-112461000D02*
X179121000Y-112461000D01*
X182587000Y-112421000D02*
X179121000Y-112421000D01*
X182603000Y-112381000D02*
X179121000Y-112381000D01*
X182618000Y-112341000D02*
X179121000Y-112341000D01*
X182634000Y-112301000D02*
X179121000Y-112301000D01*
X182648000Y-112261000D02*
X179121000Y-112261000D01*
X182663000Y-112221000D02*
X179121000Y-112221000D01*
X182677000Y-112181000D02*
X179121000Y-112181000D01*
X182691000Y-112141000D02*
X179121000Y-112141000D01*
X182704000Y-112101000D02*
X179121000Y-112101000D01*
X182717000Y-112061000D02*
X179121000Y-112061000D01*
X182730000Y-112021000D02*
X179121000Y-112021000D01*
X182742000Y-111981000D02*
X179121000Y-111981000D01*
X182754000Y-111941000D02*
X179121000Y-111941000D01*
X182765000Y-111901000D02*
X179121000Y-111901000D01*
X182777000Y-111861000D02*
X179121000Y-111861000D01*
X182787000Y-111821000D02*
X179121000Y-111821000D01*
X182798000Y-111781000D02*
X179121000Y-111781000D01*
X182808000Y-111741000D02*
X172952000Y-111741000D01*
X182818000Y-111701000D02*
X172942000Y-111701000D01*
X182827000Y-111661000D02*
X172933000Y-111661000D01*
X182836000Y-111621000D02*
X172924000Y-111621000D01*
X182845000Y-111581000D02*
X172915000Y-111581000D01*
X182854000Y-111541000D02*
X172906000Y-111541000D01*
X182862000Y-111501000D02*
X172898000Y-111501000D01*
X182870000Y-111461000D02*
X172890000Y-111461000D01*
X182877000Y-111421000D02*
X172883000Y-111421000D01*
X182884000Y-111381000D02*
X172876000Y-111381000D01*
X182891000Y-111341000D02*
X172869000Y-111341000D01*
X182898000Y-111301000D02*
X172862000Y-111301000D01*
X182904000Y-111261000D02*
X172856000Y-111261000D01*
X182910000Y-111221000D02*
X172850000Y-111221000D01*
X182915000Y-111180000D02*
X172845000Y-111180000D01*
X182920000Y-111140000D02*
X172840000Y-111140000D01*
X182925000Y-111100000D02*
X172835000Y-111100000D01*
X182930000Y-111060000D02*
X172830000Y-111060000D01*
X182934000Y-111020000D02*
X172826000Y-111020000D01*
X182938000Y-110980000D02*
X172822000Y-110980000D01*
X182942000Y-110940000D02*
X172818000Y-110940000D01*
X182945000Y-110900000D02*
X172815000Y-110900000D01*
X182948000Y-110860000D02*
X172812000Y-110860000D01*
X182950000Y-110820000D02*
X172810000Y-110820000D01*
X182953000Y-110780000D02*
X172807000Y-110780000D01*
X182955000Y-110740000D02*
X172805000Y-110740000D01*
X182957000Y-110700000D02*
X172803000Y-110700000D01*
X182958000Y-110660000D02*
X172802000Y-110660000D01*
X182959000Y-110620000D02*
X172801000Y-110620000D01*
X182960000Y-110500000D02*
X172800000Y-110500000D01*
X182960000Y-110540000D02*
X172800000Y-110540000D01*
X182960000Y-110580000D02*
X172800000Y-110580000D01*
X183000000Y-110500000D02*
G75*
G02*
X172760000Y-110500000I-5120000J0D01*
G01*
X172760000Y-110500000D02*
G75*
G02*
X183000000Y-110500000I5120000J0D01*
G01*
%TO.C,J_VMOT4*%
X105940000Y-76840000D02*
X105940000Y-82960000D01*
X105940000Y-82960000D02*
X110660000Y-82960000D01*
X106550000Y-77450000D02*
X106550000Y-82350000D01*
X106550000Y-79800000D02*
X107050000Y-79800000D01*
X106550000Y-79900000D02*
X107050000Y-79900000D01*
X106550000Y-82350000D02*
X110050000Y-82350000D01*
X107050000Y-79800000D02*
X107050000Y-80000000D01*
X107050000Y-80000000D02*
X106550000Y-80000000D01*
X108050000Y-76840000D02*
X108050000Y-77450000D01*
X108050000Y-82960000D02*
X108050000Y-82350000D01*
X109350000Y-76840000D02*
X109350000Y-77450000D01*
X109350000Y-82960000D02*
X109350000Y-82350000D01*
X110050000Y-77450000D02*
X106550000Y-77450000D01*
X110050000Y-79400000D02*
X110050000Y-77450000D01*
X110050000Y-80400000D02*
X110660000Y-80400000D01*
X110050000Y-82350000D02*
X110050000Y-80400000D01*
X110660000Y-76840000D02*
X105940000Y-76840000D01*
X110660000Y-78600000D02*
X110860000Y-78600000D01*
X110660000Y-79400000D02*
X110050000Y-79400000D01*
X110660000Y-82960000D02*
X110660000Y-76840000D01*
X110760000Y-78600000D02*
X110760000Y-78300000D01*
X110860000Y-78300000D02*
X110660000Y-78300000D01*
X110860000Y-78600000D02*
X110860000Y-78300000D01*
X110960000Y-76540000D02*
X109710000Y-76540000D01*
X110960000Y-77790000D02*
X110960000Y-76540000D01*
%TO.C,F_SLOW1*%
X160680000Y-103640000D02*
X160680000Y-98560000D01*
X161450000Y-98560000D02*
X160680000Y-98560000D01*
X161450000Y-103640000D02*
X160680000Y-103640000D01*
X164050000Y-98560000D02*
X165680000Y-98560000D01*
X164050000Y-103640000D02*
X165680000Y-103640000D01*
X165680000Y-98600000D02*
X177620000Y-98600000D01*
X165680000Y-103600000D02*
X177620000Y-103600000D01*
X165680000Y-103640000D02*
X165680000Y-98560000D01*
X177620000Y-98560000D02*
X179250000Y-98560000D01*
X177620000Y-103640000D02*
X177620000Y-98560000D01*
X177620000Y-103640000D02*
X179250000Y-103640000D01*
X181850000Y-98560000D02*
X182620000Y-98560000D01*
X181850000Y-103640000D02*
X182620000Y-103640000D01*
X182620000Y-98560000D02*
X182620000Y-103640000D01*
%TO.C,C_BYPASS2*%
X152530000Y-83821000D02*
X152530000Y-85079000D01*
X154370000Y-83821000D02*
X154370000Y-85079000D01*
%TO.C,J_VMOT1*%
X163590000Y-84540000D02*
X163590000Y-90660000D01*
X163590000Y-90660000D02*
X168310000Y-90660000D01*
X164200000Y-85150000D02*
X164200000Y-90050000D01*
X164200000Y-87500000D02*
X164700000Y-87500000D01*
X164200000Y-87600000D02*
X164700000Y-87600000D01*
X164200000Y-90050000D02*
X167700000Y-90050000D01*
X164700000Y-87500000D02*
X164700000Y-87700000D01*
X164700000Y-87700000D02*
X164200000Y-87700000D01*
X165700000Y-84540000D02*
X165700000Y-85150000D01*
X165700000Y-90660000D02*
X165700000Y-90050000D01*
X167000000Y-84540000D02*
X167000000Y-85150000D01*
X167000000Y-90660000D02*
X167000000Y-90050000D01*
X167700000Y-85150000D02*
X164200000Y-85150000D01*
X167700000Y-87100000D02*
X167700000Y-85150000D01*
X167700000Y-88100000D02*
X168310000Y-88100000D01*
X167700000Y-90050000D02*
X167700000Y-88100000D01*
X168310000Y-84540000D02*
X163590000Y-84540000D01*
X168310000Y-86300000D02*
X168510000Y-86300000D01*
X168310000Y-87100000D02*
X167700000Y-87100000D01*
X168310000Y-90660000D02*
X168310000Y-84540000D01*
X168410000Y-86300000D02*
X168410000Y-86000000D01*
X168510000Y-86000000D02*
X168310000Y-86000000D01*
X168510000Y-86300000D02*
X168510000Y-86000000D01*
X168610000Y-84240000D02*
X167360000Y-84240000D01*
X168610000Y-85490000D02*
X168610000Y-84240000D01*
%TO.C,J_VMOT2*%
X163590000Y-75940000D02*
X163590000Y-82060000D01*
X163590000Y-82060000D02*
X168310000Y-82060000D01*
X164200000Y-76550000D02*
X164200000Y-81450000D01*
X164200000Y-78900000D02*
X164700000Y-78900000D01*
X164200000Y-79000000D02*
X164700000Y-79000000D01*
X164200000Y-81450000D02*
X167700000Y-81450000D01*
X164700000Y-78900000D02*
X164700000Y-79100000D01*
X164700000Y-79100000D02*
X164200000Y-79100000D01*
X165700000Y-75940000D02*
X165700000Y-76550000D01*
X165700000Y-82060000D02*
X165700000Y-81450000D01*
X167000000Y-75940000D02*
X167000000Y-76550000D01*
X167000000Y-82060000D02*
X167000000Y-81450000D01*
X167700000Y-76550000D02*
X164200000Y-76550000D01*
X167700000Y-78500000D02*
X167700000Y-76550000D01*
X167700000Y-79500000D02*
X168310000Y-79500000D01*
X167700000Y-81450000D02*
X167700000Y-79500000D01*
X168310000Y-75940000D02*
X163590000Y-75940000D01*
X168310000Y-77700000D02*
X168510000Y-77700000D01*
X168310000Y-78500000D02*
X167700000Y-78500000D01*
X168310000Y-82060000D02*
X168310000Y-75940000D01*
X168410000Y-77700000D02*
X168410000Y-77400000D01*
X168510000Y-77400000D02*
X168310000Y-77400000D01*
X168510000Y-77700000D02*
X168510000Y-77400000D01*
X168610000Y-75640000D02*
X167360000Y-75640000D01*
X168610000Y-76890000D02*
X168610000Y-75640000D01*
%TO.C,C_BULK3*%
X145110000Y-85671000D02*
X142133000Y-85671000D01*
X145110000Y-85711000D02*
X142140000Y-85711000D01*
X145110000Y-85751000D02*
X142148000Y-85751000D01*
X145110000Y-85791000D02*
X142156000Y-85791000D01*
X145110000Y-85831000D02*
X142165000Y-85831000D01*
X145110000Y-85871000D02*
X142174000Y-85871000D01*
X145110000Y-85911000D02*
X142183000Y-85911000D01*
X145110000Y-85951000D02*
X142193000Y-85951000D01*
X145110000Y-85991000D02*
X142203000Y-85991000D01*
X145110000Y-86031000D02*
X142214000Y-86031000D01*
X145110000Y-86071000D02*
X142225000Y-86071000D01*
X145110000Y-86111000D02*
X142236000Y-86111000D01*
X145110000Y-86151000D02*
X142248000Y-86151000D01*
X145110000Y-86191000D02*
X142261000Y-86191000D01*
X145110000Y-86231000D02*
X142273000Y-86231000D01*
X145110000Y-86271000D02*
X142287000Y-86271000D01*
X145110000Y-86311000D02*
X142300000Y-86311000D01*
X145110000Y-86351000D02*
X142315000Y-86351000D01*
X145110000Y-86391000D02*
X142329000Y-86391000D01*
X145110000Y-86431000D02*
X142345000Y-86431000D01*
X145110000Y-86471000D02*
X142360000Y-86471000D01*
X145110000Y-86511000D02*
X142376000Y-86511000D01*
X145110000Y-86551000D02*
X142393000Y-86551000D01*
X145110000Y-86591000D02*
X142410000Y-86591000D01*
X145110000Y-86631000D02*
X142428000Y-86631000D01*
X145110000Y-86671000D02*
X142446000Y-86671000D01*
X145110000Y-86711000D02*
X142464000Y-86711000D01*
X145110000Y-86751000D02*
X142484000Y-86751000D01*
X145110000Y-86791000D02*
X142503000Y-86791000D01*
X145110000Y-86831000D02*
X142523000Y-86831000D01*
X145110000Y-86871000D02*
X142544000Y-86871000D01*
X145110000Y-86911000D02*
X142566000Y-86911000D01*
X145110000Y-86951000D02*
X142588000Y-86951000D01*
X145110000Y-86991000D02*
X142610000Y-86991000D01*
X145110000Y-87031000D02*
X142633000Y-87031000D01*
X145110000Y-87071000D02*
X142657000Y-87071000D01*
X145110000Y-87111000D02*
X142681000Y-87111000D01*
X145110000Y-87151000D02*
X142706000Y-87151000D01*
X145110000Y-87191000D02*
X142732000Y-87191000D01*
X145110000Y-87231000D02*
X142758000Y-87231000D01*
X145110000Y-87271000D02*
X142785000Y-87271000D01*
X145110000Y-87311000D02*
X142812000Y-87311000D01*
X145110000Y-87351000D02*
X142841000Y-87351000D01*
X145110000Y-87391000D02*
X142870000Y-87391000D01*
X145110000Y-87431000D02*
X142900000Y-87431000D01*
X145110000Y-87471000D02*
X142930000Y-87471000D01*
X145110000Y-87511000D02*
X142961000Y-87511000D01*
X145110000Y-87551000D02*
X142994000Y-87551000D01*
X145110000Y-87591000D02*
X143026000Y-87591000D01*
X145110000Y-87631000D02*
X143060000Y-87631000D01*
X145110000Y-87671000D02*
X143095000Y-87671000D01*
X145110000Y-87711000D02*
X143131000Y-87711000D01*
X146683000Y-89031000D02*
X145617000Y-89031000D01*
X146918000Y-88991000D02*
X145382000Y-88991000D01*
X147098000Y-88951000D02*
X145202000Y-88951000D01*
X147248000Y-88911000D02*
X145052000Y-88911000D01*
X147379000Y-88871000D02*
X144921000Y-88871000D01*
X147496000Y-88831000D02*
X144804000Y-88831000D01*
X147603000Y-88791000D02*
X144697000Y-88791000D01*
X147702000Y-88751000D02*
X144598000Y-88751000D01*
X147795000Y-88711000D02*
X144505000Y-88711000D01*
X147881000Y-88671000D02*
X144419000Y-88671000D01*
X147963000Y-88631000D02*
X144337000Y-88631000D01*
X148040000Y-88591000D02*
X144260000Y-88591000D01*
X148114000Y-88551000D02*
X144186000Y-88551000D01*
X148184000Y-88511000D02*
X144116000Y-88511000D01*
X148252000Y-88471000D02*
X144048000Y-88471000D01*
X148316000Y-88431000D02*
X143984000Y-88431000D01*
X148378000Y-88391000D02*
X143922000Y-88391000D01*
X148437000Y-88351000D02*
X143863000Y-88351000D01*
X148465000Y-80540302D02*
X148465000Y-81340302D01*
X148495000Y-88311000D02*
X143805000Y-88311000D01*
X148550000Y-88271000D02*
X143750000Y-88271000D01*
X148604000Y-88231000D02*
X143696000Y-88231000D01*
X148655000Y-88191000D02*
X143645000Y-88191000D01*
X148706000Y-88151000D02*
X143594000Y-88151000D01*
X148754000Y-88111000D02*
X143546000Y-88111000D01*
X148801000Y-88071000D02*
X143499000Y-88071000D01*
X148847000Y-88031000D02*
X143453000Y-88031000D01*
X148865000Y-80940302D02*
X148065000Y-80940302D01*
X148891000Y-87991000D02*
X143409000Y-87991000D01*
X148934000Y-87951000D02*
X143366000Y-87951000D01*
X148976000Y-87911000D02*
X143324000Y-87911000D01*
X149017000Y-87871000D02*
X143283000Y-87871000D01*
X149057000Y-87831000D02*
X143243000Y-87831000D01*
X149095000Y-87791000D02*
X143205000Y-87791000D01*
X149133000Y-87751000D02*
X143167000Y-87751000D01*
X149169000Y-87711000D02*
X147190000Y-87711000D01*
X149205000Y-87671000D02*
X147190000Y-87671000D01*
X149240000Y-87631000D02*
X147190000Y-87631000D01*
X149274000Y-87591000D02*
X147190000Y-87591000D01*
X149306000Y-87551000D02*
X147190000Y-87551000D01*
X149339000Y-87511000D02*
X147190000Y-87511000D01*
X149370000Y-87471000D02*
X147190000Y-87471000D01*
X149400000Y-87431000D02*
X147190000Y-87431000D01*
X149430000Y-87391000D02*
X147190000Y-87391000D01*
X149459000Y-87351000D02*
X147190000Y-87351000D01*
X149488000Y-87311000D02*
X147190000Y-87311000D01*
X149515000Y-87271000D02*
X147190000Y-87271000D01*
X149542000Y-87231000D02*
X147190000Y-87231000D01*
X149568000Y-87191000D02*
X147190000Y-87191000D01*
X149594000Y-87151000D02*
X147190000Y-87151000D01*
X149619000Y-87111000D02*
X147190000Y-87111000D01*
X149643000Y-87071000D02*
X147190000Y-87071000D01*
X149667000Y-87031000D02*
X147190000Y-87031000D01*
X149690000Y-86991000D02*
X147190000Y-86991000D01*
X149712000Y-86951000D02*
X147190000Y-86951000D01*
X149734000Y-86911000D02*
X147190000Y-86911000D01*
X149756000Y-86871000D02*
X147190000Y-86871000D01*
X149777000Y-86831000D02*
X147190000Y-86831000D01*
X149797000Y-86791000D02*
X147190000Y-86791000D01*
X149816000Y-86751000D02*
X147190000Y-86751000D01*
X149836000Y-86711000D02*
X147190000Y-86711000D01*
X149854000Y-86671000D02*
X147190000Y-86671000D01*
X149872000Y-86631000D02*
X147190000Y-86631000D01*
X149890000Y-86591000D02*
X147190000Y-86591000D01*
X149907000Y-86551000D02*
X147190000Y-86551000D01*
X149924000Y-86511000D02*
X147190000Y-86511000D01*
X149940000Y-86471000D02*
X147190000Y-86471000D01*
X149955000Y-86431000D02*
X147190000Y-86431000D01*
X149971000Y-86391000D02*
X147190000Y-86391000D01*
X149985000Y-86351000D02*
X147190000Y-86351000D01*
X150000000Y-86311000D02*
X147190000Y-86311000D01*
X150013000Y-86271000D02*
X147190000Y-86271000D01*
X150027000Y-86231000D02*
X147190000Y-86231000D01*
X150039000Y-86191000D02*
X147190000Y-86191000D01*
X150052000Y-86151000D02*
X147190000Y-86151000D01*
X150064000Y-86111000D02*
X147190000Y-86111000D01*
X150075000Y-86071000D02*
X147190000Y-86071000D01*
X150086000Y-86031000D02*
X147190000Y-86031000D01*
X150097000Y-85991000D02*
X147190000Y-85991000D01*
X150107000Y-85951000D02*
X147190000Y-85951000D01*
X150117000Y-85911000D02*
X147190000Y-85911000D01*
X150126000Y-85871000D02*
X147190000Y-85871000D01*
X150135000Y-85831000D02*
X147190000Y-85831000D01*
X150144000Y-85791000D02*
X147190000Y-85791000D01*
X150152000Y-85751000D02*
X147190000Y-85751000D01*
X150160000Y-85711000D02*
X147190000Y-85711000D01*
X150167000Y-85671000D02*
X147190000Y-85671000D01*
X150174000Y-85630000D02*
X142126000Y-85630000D01*
X150180000Y-85590000D02*
X142120000Y-85590000D01*
X150187000Y-85550000D02*
X142113000Y-85550000D01*
X150192000Y-85510000D02*
X142108000Y-85510000D01*
X150198000Y-85470000D02*
X142102000Y-85470000D01*
X150202000Y-85430000D02*
X142098000Y-85430000D01*
X150207000Y-85390000D02*
X142093000Y-85390000D01*
X150211000Y-85350000D02*
X142089000Y-85350000D01*
X150215000Y-85310000D02*
X142085000Y-85310000D01*
X150218000Y-85270000D02*
X142082000Y-85270000D01*
X150221000Y-85230000D02*
X142079000Y-85230000D01*
X150224000Y-85190000D02*
X142076000Y-85190000D01*
X150226000Y-85150000D02*
X142074000Y-85150000D01*
X150227000Y-85110000D02*
X142073000Y-85110000D01*
X150229000Y-85070000D02*
X142071000Y-85070000D01*
X150230000Y-84950000D02*
X142070000Y-84950000D01*
X150230000Y-84990000D02*
X142070000Y-84990000D01*
X150230000Y-85030000D02*
X142070000Y-85030000D01*
X150270000Y-84950000D02*
G75*
G02*
X142030000Y-84950000I-4120000J0D01*
G01*
X142030000Y-84950000D02*
G75*
G02*
X150270000Y-84950000I4120000J0D01*
G01*
%TO.C,J_RIGHT_HEADER1*%
X186385000Y-75520000D02*
X186385000Y-93360000D01*
X186385000Y-75520000D02*
X189045000Y-75520000D01*
X186385000Y-93360000D02*
X189045000Y-93360000D01*
X187715000Y-72920000D02*
X189045000Y-72920000D01*
X189045000Y-72920000D02*
X189045000Y-74250000D01*
X189045000Y-75520000D02*
X189045000Y-93360000D01*
%TO.C,J_LEFT_HEADER1*%
X171145000Y-75520000D02*
X171145000Y-93360000D01*
X171145000Y-75520000D02*
X173805000Y-75520000D01*
X171145000Y-93360000D02*
X173805000Y-93360000D01*
X172475000Y-72920000D02*
X173805000Y-72920000D01*
X173805000Y-72920000D02*
X173805000Y-74250000D01*
X173805000Y-75520000D02*
X173805000Y-93360000D01*
%TO.C,J_RIGHT_HEADER3*%
X153110000Y-105170000D02*
X153110000Y-123010000D01*
X153110000Y-105170000D02*
X155770000Y-105170000D01*
X153110000Y-123010000D02*
X155770000Y-123010000D01*
X154440000Y-102570000D02*
X155770000Y-102570000D01*
X155770000Y-102570000D02*
X155770000Y-103900000D01*
X155770000Y-105170000D02*
X155770000Y-123010000D01*
%TD*%
M02*
