%TF.GenerationSoftware,KiCad,Pcbnew,9.0.0-rc3*%
%TF.CreationDate,2025-08-01T11:57:17+07:00*%
%TF.ProjectId,pdb,7064622e-6b69-4636-9164-5f7063625858,rev?*%
%TF.SameCoordinates,Original*%
%TF.FileFunction,Plated,1,2,PTH,Drill*%
%TF.FilePolarity,Positive*%
%FSLAX46Y46*%
G04 Gerber Fmt 4.6, Leading zero omitted, Abs format (unit mm)*
G04 Created by KiCad (PCBNEW 9.0.0-rc3) date 2025-08-01 11:57:17*
%MOMM*%
%LPD*%
G01*
G04 APERTURE LIST*
%TA.AperFunction,ComponentDrill*%
%ADD10C,0.750000*%
%TD*%
%TA.AperFunction,ComponentDrill*%
%ADD11C,0.800000*%
%TD*%
%TA.AperFunction,ComponentDrill*%
%ADD12C,0.900000*%
%TD*%
%TA.AperFunction,ComponentDrill*%
%ADD13C,1.000000*%
%TD*%
%TA.AperFunction,ComponentDrill*%
%ADD14C,1.170000*%
%TD*%
%TA.AperFunction,ComponentDrill*%
%ADD15C,1.400000*%
%TD*%
%TA.AperFunction,ComponentDrill*%
%ADD16C,1.520000*%
%TD*%
G04 APERTURE END LIST*
D10*
%TO.C,J_VMOT4*%
X108850000Y-78900000D03*
X108850000Y-80900000D03*
%TO.C,J_VMOT3*%
X108850000Y-86900000D03*
X108850000Y-88900000D03*
%TO.C,J_VMOT5*%
X134250000Y-111400000D03*
X134250000Y-113400000D03*
%TO.C,J_DRV_SIG2*%
X137100000Y-77150000D03*
X137100000Y-79150000D03*
X137100000Y-81150000D03*
X137100000Y-83150000D03*
X137100000Y-85150000D03*
X137100000Y-87150000D03*
X137100000Y-89150000D03*
%TO.C,J_DRV_SIG_3*%
X161200000Y-110150000D03*
X161200000Y-112150000D03*
X161200000Y-114150000D03*
X161200000Y-116150000D03*
%TO.C,J_VMOT2*%
X166500000Y-78000000D03*
X166500000Y-80000000D03*
%TO.C,J_VMOT1*%
X166500000Y-86600000D03*
X166500000Y-88600000D03*
%TO.C,J_DRV_SIG1*%
X194200000Y-79400000D03*
X194200000Y-81400000D03*
X194200000Y-83400000D03*
X194200000Y-85400000D03*
X194200000Y-87400000D03*
X194200000Y-89400000D03*
X194200000Y-91400000D03*
D11*
%TO.C,C_BYPASS7*%
X120850000Y-91650000D03*
%TO.C,C_BULK2*%
X120950000Y-109302651D03*
X120950000Y-112802651D03*
%TO.C,C_BYPASS6*%
X121100000Y-87650000D03*
%TO.C,C_BYPASS7*%
X123350000Y-91650000D03*
%TO.C,C_BYPASS6*%
X123600000Y-87650000D03*
%TO.C,C_BYPASS1*%
X126950000Y-110400000D03*
X126950000Y-112900000D03*
%TO.C,R_LED1*%
X127100000Y-99030000D03*
X127100000Y-106650000D03*
%TO.C,C_BYPASS8*%
X145700000Y-117150000D03*
%TO.C,C_BYPASS9*%
X145700000Y-121400000D03*
%TO.C,C_BULK3*%
X146150000Y-83200000D03*
X146150000Y-86700000D03*
%TO.C,C_BYPASS8*%
X148200000Y-117150000D03*
%TO.C,C_BYPASS9*%
X148200000Y-121400000D03*
%TO.C,R_LED2*%
X153250000Y-89300000D03*
X153250000Y-96920000D03*
%TO.C,C_BYPASS2*%
X153450000Y-83200000D03*
X153450000Y-85700000D03*
%TO.C,C_BYPASS4*%
X178950000Y-86750000D03*
%TO.C,C_BYPASS5*%
X178950000Y-91500000D03*
%TO.C,C_BYPASS4*%
X181450000Y-86750000D03*
%TO.C,C_BYPASS5*%
X181450000Y-91500000D03*
D12*
%TO.C,D_LED1*%
X121600000Y-101780000D03*
X121600000Y-104320000D03*
%TO.C,D_LED2*%
X146050000Y-91600000D03*
X146050000Y-94140000D03*
D13*
%TO.C,J_LEFT_HEADER2*%
X114850000Y-74240000D03*
X114850000Y-76780000D03*
X114850000Y-79320000D03*
X114850000Y-81860000D03*
X114850000Y-84400000D03*
X114850000Y-86940000D03*
X114850000Y-89480000D03*
X114850000Y-92020000D03*
%TO.C,C_BULK5*%
X122450000Y-73900000D03*
X122450000Y-78900000D03*
%TO.C,J_RIGHT_HEADER2*%
X130090000Y-74240000D03*
X130090000Y-76780000D03*
X130090000Y-79320000D03*
X130090000Y-81860000D03*
X130090000Y-84400000D03*
X130090000Y-86940000D03*
X130090000Y-89480000D03*
X130090000Y-92020000D03*
%TO.C,J_LEFT_HEADER3*%
X139200000Y-103900000D03*
X139200000Y-106440000D03*
X139200000Y-108980000D03*
X139200000Y-111520000D03*
X139200000Y-114060000D03*
X139200000Y-116600000D03*
X139200000Y-119140000D03*
X139200000Y-121680000D03*
%TO.C,C_BULK6*%
X146700000Y-103782323D03*
X146700000Y-108782323D03*
%TO.C,J_RIGHT_HEADER3*%
X154440000Y-103900000D03*
X154440000Y-106440000D03*
X154440000Y-108980000D03*
X154440000Y-111520000D03*
X154440000Y-114060000D03*
X154440000Y-116600000D03*
X154440000Y-119140000D03*
X154440000Y-121680000D03*
%TO.C,J_LEFT_HEADER1*%
X172475000Y-74250000D03*
X172475000Y-76790000D03*
X172475000Y-79330000D03*
X172475000Y-81870000D03*
X172475000Y-84410000D03*
X172475000Y-86950000D03*
X172475000Y-89490000D03*
X172475000Y-92030000D03*
%TO.C,C_BULK1*%
X177880000Y-108000000D03*
X177880000Y-113000000D03*
%TO.C,C_BULK4*%
X179950000Y-73900000D03*
X179950000Y-78900000D03*
%TO.C,NT1*%
X182650000Y-95900000D03*
X185250000Y-95900000D03*
%TO.C,J_RIGHT_HEADER1*%
X187715000Y-74250000D03*
X187715000Y-76790000D03*
X187715000Y-79330000D03*
X187715000Y-81870000D03*
X187715000Y-84410000D03*
X187715000Y-86950000D03*
X187715000Y-89490000D03*
X187715000Y-92030000D03*
D14*
%TO.C,F_SLOW1*%
X162750000Y-98600000D03*
X162750000Y-103600000D03*
X180550000Y-98600000D03*
X180550000Y-103600000D03*
D15*
%TO.C,J_LiPo1*%
X190700000Y-101400000D03*
X190700000Y-108900000D03*
D16*
%TO.C,J_LOGIC1*%
X110100000Y-98400000D03*
X110100000Y-103480000D03*
%TO.C,J_MOTOR1*%
X110100000Y-110150000D03*
X110100000Y-115230000D03*
%TO.C,J_UBEC_OUT1*%
X121020000Y-121150000D03*
X126100000Y-121150000D03*
%TO.C,J_BUCK_OUT1*%
X146370000Y-74800000D03*
X151450000Y-74800000D03*
%TO.C,J_UBEC_IN1*%
X169450000Y-121150000D03*
X174530000Y-121150000D03*
%TO.C,J_BUCK_IN1*%
X181450000Y-121150000D03*
X186530000Y-121150000D03*
M02*
